<svg width="1680" height="800" viewBox="0 0 1680 800" fill="none" xmlns="http://www.w3.org/2000/svg">
<rect width="1680" height="800" fill="#010E05"/>
<path fill-rule="evenodd" clip-rule="evenodd" d="M1080.5 388.891C1021.98 348.292 1092.07 294.493 1074.94 230.164C1057.82 165.834 1016.35 69.9169 1179.97 104.095C1345.74 138.724 1450.89 183.314 1426.04 321.434C1401.19 459.554 1139.02 429.49 1080.5 388.891Z" fill="#458544"/>
<path fill-rule="evenodd" clip-rule="evenodd" d="M1334.51 444.503C1330.84 440.844 1329.1 435.729 1327.48 430.808C1323.23 436.961 1313.74 437.159 1307.23 433.487C1300.72 429.816 1296.32 423.405 1291.64 417.571C1283.27 407.126 1247.4 381.332 1246.81 373.551C1246.5 369.423 1258.5 361.91 1258.5 361.91L1236.93 349.22C1236.93 349.22 1225.74 357.801 1219.31 358.821C1201.42 361.658 1188.77 359.969 1188.75 363.189C1188.7 374.84 1259.19 433.951 1236.71 433.487C1202.97 432.791 1141.36 367.128 1121.4 361.91C1113.04 359.724 1055.71 363.189 1055.71 349.312C1055.71 330.674 1106.91 317.851 1106.91 317.851C1106.91 317.851 1093.57 272.846 1109.72 236.043C1113.42 227.614 1118 217.821 1118.45 209.54C1118.57 207.268 1183.15 146.097 1191.45 143.041C1210.79 135.915 1231.37 132.15 1251.98 131.963C1254.73 131.938 1333.08 143.041 1368.32 201.199C1374.69 211.709 1403.61 289.763 1374.24 338.726C1369.61 346.45 1370.18 356.037 1373.38 364.541C1376.58 373.045 1380.52 382.504 1376.89 390.835C1374.91 377.488 1371.43 364.364 1366.54 351.789C1359.71 356.75 1363.17 367.426 1367.23 374.818C1372.36 384.133 1377.49 393.448 1382.62 402.763C1384.75 406.637 1386.95 410.906 1386.19 415.261C1385.31 420.241 1380.87 423.686 1376.76 426.632C1367.38 433.356 1357.99 440.081 1348.61 446.806C1344.4 449.824 1338.18 448.161 1334.51 444.503Z" fill="white"/>
<path fill-rule="evenodd" clip-rule="evenodd" d="M1207.74 238.386C1208.46 236.44 1211.05 235.637 1212.96 236.448C1214.87 237.258 1216.05 239.286 1216.35 241.338C1216.65 243.39 1216.2 245.476 1215.61 247.466C1215.08 249.281 1214.44 251.063 1213.69 252.8C1213.62 252.961 1213.53 253.142 1213.35 253.18C1213.17 253.221 1213 253.079 1212.87 252.946C1209.63 249.66 1207.67 245.134 1207.5 240.52C1207.48 239.8 1207.49 239.062 1207.74 238.386M1213.35 238.86C1212.82 238.404 1212.13 238.105 1211.43 238.127C1209.8 238.176 1208.65 239.961 1208.69 241.597C1208.73 243.233 1209.6 244.718 1210.44 246.119C1211.05 247.122 1211.66 248.126 1212.26 249.129C1212.47 249.471 1212.87 249.861 1213.2 249.624C1213.33 249.529 1213.38 249.361 1213.42 249.206C1213.67 248.295 1213.91 247.383 1214.16 246.472C1214.52 245.168 1214.87 243.844 1214.85 242.494C1214.83 241.143 1214.38 239.739 1213.35 238.86L1213.35 238.86Z" fill="#FFB61D"/>
<path fill-rule="evenodd" clip-rule="evenodd" d="M1212.28 244.098C1211.88 244.21 1211.45 244.189 1211.06 244.039C1210.31 243.747 1209.8 242.945 1209.84 242.143C1209.88 241.341 1210.48 240.6 1211.26 240.39C1212.43 240.073 1213.76 241.156 1213.68 242.37C1213.63 243.159 1213.04 243.884 1212.28 244.098Z" fill="#FFB61D"/>
<path fill-rule="evenodd" clip-rule="evenodd" d="M1233.7 434.799C1235.04 434.976 1234.54 437.059 1233.67 438.096C1225.36 447.995 1214.5 455.741 1202.44 460.384C1199.73 461.425 1196.93 462.32 1194.04 462.519C1188.67 462.888 1183.33 460.794 1179.09 457.49C1174.85 454.186 1171.62 449.745 1168.98 445.058C1161.78 432.24 1158.76 417.114 1160.49 402.513C1160.65 401.139 1161.59 399.317 1162.85 399.875C1162.49 404.756 1162.43 409.661 1162.68 414.55C1162.93 419.352 1163.49 424.167 1164.87 428.773C1166.14 433.038 1168.11 437.062 1170.16 441.014C1172.26 445.077 1174.49 449.129 1177.53 452.549C1180.57 455.969 1184.52 458.749 1189.01 459.635C1194.63 460.747 1200.41 458.808 1205.6 456.362C1216.36 451.288 1226.01 443.881 1233.7 434.799Z" fill="#00160A"/>
<path fill-rule="evenodd" clip-rule="evenodd" d="M1272.63 379.163C1282.4 369.548 1292.17 359.933 1301.95 350.318C1302.49 349.78 1303.3 349.205 1303.95 349.618C1304.81 350.168 1304.12 351.493 1303.4 352.213C1292.88 362.616 1282.36 373.019 1271.84 383.421C1271.08 383.037 1270.86 382 1271.13 381.193C1271.4 380.386 1272.02 379.759 1272.63 379.163H1272.63Z" fill="#00160A"/>
<path fill-rule="evenodd" clip-rule="evenodd" d="M1197.82 323.865C1197.22 323.968 1196.62 324.071 1196.03 324.174C1194.87 322.439 1193.69 320.638 1193.33 318.584C1192.96 316.531 1193.64 314.141 1195.46 313.127C1197.53 311.981 1198.15 309.162 1197.49 306.896C1196.83 304.629 1195.21 302.793 1193.61 301.053C1191.99 299.287 1189.4 297.411 1187.47 298.842C1186.22 299.775 1184.35 299.247 1183.22 298.16C1182.1 297.073 1181.51 295.57 1180.78 294.186C1179.41 291.568 1177.41 289.207 1174.79 287.834C1172.17 286.462 1168.9 286.19 1166.26 287.529C1163.65 288.858 1162 291.502 1159.77 293.408C1157.54 295.314 1153.87 296.326 1151.86 294.189C1151.35 293.646 1151 292.84 1151.29 292.153C1151.58 291.466 1152.71 291.23 1153.07 291.883C1153.99 293.548 1156.52 293.524 1158.1 292.474C1159.69 291.424 1160.68 289.707 1161.98 288.32C1164.52 285.608 1168.38 284.196 1172.07 284.63C1175.76 285.064 1179.19 287.332 1181.03 290.56C1181.92 292.115 1182.47 293.883 1183.63 295.248C1184.79 296.612 1186.9 297.448 1188.38 296.451C1190.06 295.325 1192.26 296.725 1193.73 298.109C1195.73 299.983 1197.67 302.008 1198.79 304.504C1199.92 307 1200.1 310.072 1198.63 312.382C1197.4 314.305 1195.06 315.863 1195.27 318.132C1195.46 320.249 1197.89 321.742 1197.82 323.865V323.865Z" fill="#00160A"/>
<path fill-rule="evenodd" clip-rule="evenodd" d="M1223.61 228.564C1227.19 230.239 1230.37 232.918 1232.21 236.414C1234.05 239.911 1234.43 244.253 1232.78 247.842C1229.37 255.269 1218.52 258.16 1217.32 266.244C1217.02 268.303 1217.43 270.444 1216.92 272.462C1216.57 273.857 1215.8 275.102 1215.19 276.402C1213.86 279.191 1213.24 282.307 1213.39 285.389C1212.01 286.136 1210.39 284.546 1210.21 282.988C1210.03 281.431 1210.66 279.884 1210.62 278.316C1210.56 275.37 1208.28 273.025 1206.34 270.81C1203.42 267.488 1200.89 263.577 1200.41 259.182C1200.26 257.766 1200.33 256.322 1200.01 254.934C1199.66 253.441 1198.9 252.087 1198.22 250.714C1196.39 247.009 1195.15 242.734 1196.28 238.759C1197.4 234.785 1201.6 231.496 1205.58 232.59C1206.72 232.901 1207.82 233.536 1208.98 233.363C1211.02 233.059 1211.85 230.627 1213.27 229.134C1215.81 226.457 1220.27 226.997 1223.61 228.564M1206.29 267.19C1208.55 270.162 1210.81 273.134 1213.06 276.106C1215.66 273.377 1214.58 268.964 1215.37 265.285C1216.45 260.273 1220.93 256.871 1224.81 253.527C1228.7 250.183 1232.55 245.608 1231.68 240.557C1230.98 236.499 1227.44 233.615 1224.04 231.284C1222.13 229.97 1219.92 228.649 1217.64 229.071C1215.33 229.498 1213.75 231.545 1212.08 233.202C1210.42 234.859 1207.91 236.298 1205.83 235.212C1202.9 233.684 1199.17 236.291 1198.34 239.49C1197.52 242.689 1198.7 246.036 1200.01 249.071C1201.31 252.106 1202.79 255.253 1202.54 258.547C1202.3 261.753 1204.34 264.63 1206.29 267.19Z" fill="#00160A"/>
<path fill-rule="evenodd" clip-rule="evenodd" d="M1026.1 198.924C1025.95 198.527 1026.65 198.415 1027.02 198.615C1027 199.028 1026.37 199.237 1026.11 198.914L1026.1 198.924Z" fill="#00160A"/>
<path fill-rule="evenodd" clip-rule="evenodd" d="M1297.04 361.687C1297.81 361.794 1298.22 362.738 1298.04 363.493C1297.87 364.247 1297.3 364.838 1296.76 365.389C1292.35 369.839 1287.95 374.289 1283.55 378.739C1283.22 379.067 1282.84 379.42 1282.38 379.405C1281.76 379.386 1281.35 378.667 1281.43 378.05C1281.5 377.433 1281.91 376.914 1282.3 376.433C1286.35 371.48 1290.74 366.808 1295.44 362.464C1295.89 362.046 1296.43 361.602 1297.04 361.687V361.687Z" fill="#00160A"/>
<path fill-rule="evenodd" clip-rule="evenodd" d="M1167.59 297.33C1170.02 297.55 1171.88 299.829 1172.3 302.229C1172.71 304.629 1171.97 307.082 1170.95 309.297C1170.39 310.517 1169.75 311.698 1169.03 312.831C1168.51 313.645 1167.85 314.502 1166.9 314.66C1165.31 314.924 1164.19 313.173 1163.58 311.683C1162.71 309.584 1161.92 307.457 1161.2 305.305C1160.85 304.249 1160.51 303.137 1160.69 302.038C1160.97 300.357 1162.39 299.1 1163.89 298.287C1165.03 297.67 1166.3 297.214 1167.59 297.33M1165.31 309.687C1165.5 309.978 1165.7 310.275 1165.99 310.459C1166.23 310.61 1166.52 310.673 1166.8 310.634C1167.52 310.534 1167.98 309.839 1168.35 309.211C1169.32 307.567 1170.31 305.842 1170.42 303.939C1170.52 302.036 1169.44 299.918 1167.58 299.526C1165.39 299.067 1163.36 301.254 1163.18 303.476C1162.99 305.699 1164.11 307.81 1165.31 309.687Z" fill="#FFB61D"/>
<path fill-rule="evenodd" clip-rule="evenodd" d="M1167.49 301.84C1168.08 302.034 1168.6 302.471 1168.89 303.029C1169.15 303.527 1169.23 304.115 1169.11 304.662C1168.83 305.925 1167.4 306.807 1166.15 306.489C1164.89 306.171 1164.06 304.716 1164.42 303.473C1164.77 302.231 1166.25 301.442 1167.49 301.84M1167.21 304.462C1167.66 304.222 1167.26 303.347 1166.78 303.542C1166.41 303.591 1166.16 304.056 1166.33 304.389C1166.5 304.722 1167.02 304.799 1167.28 304.529L1167.21 304.462Z" fill="#FFB61D"/>
<path fill-rule="evenodd" clip-rule="evenodd" d="M1295.87 325.75C1294.51 324.29 1293.3 322.703 1292.24 321.017C1291.9 320.478 1292.6 319.776 1293.23 319.86C1293.86 319.944 1294.33 320.473 1294.73 320.966C1296.13 322.684 1297.53 324.403 1298.93 326.121C1298.77 326.735 1298 327.012 1297.39 326.85C1296.77 326.687 1296.3 326.215 1295.87 325.75L1295.87 325.75Z" fill="#00160A"/>
<path fill-rule="evenodd" clip-rule="evenodd" d="M1342.03 405.378C1342.05 405.578 1341.97 405.774 1341.9 405.96C1341.13 407.833 1339.98 409.551 1338.55 410.983C1336.27 413.259 1333.18 414.946 1331.96 417.928C1331.67 418.635 1330.59 418.737 1330.03 418.219C1329.47 417.701 1329.39 416.813 1329.64 416.091C1329.89 415.369 1330.4 414.775 1330.9 414.2C1332.54 412.325 1334.17 410.451 1335.81 408.577C1337.06 407.141 1338.37 405.663 1340.1 404.875C1340.82 404.551 1341.97 404.596 1342.03 405.378V405.378Z" fill="#00160A"/>
<path fill-rule="evenodd" clip-rule="evenodd" d="M1297.53 317.946C1299.15 319.842 1300.76 321.737 1302.37 323.633C1302.64 323.951 1302.93 324.313 1302.91 324.731C1302.88 325.38 1302.08 325.768 1301.45 325.616C1300.82 325.465 1300.34 324.96 1299.92 324.468C1298.55 322.882 1297.33 321.174 1296.26 319.37C1295.85 318.666 1295.69 317.436 1296.5 317.331C1296.91 317.277 1297.26 317.627 1297.53 317.946L1297.53 317.946Z" fill="#00160A"/>
<path fill-rule="evenodd" clip-rule="evenodd" d="M1278.95 328.512C1278.71 328.168 1278.45 327.719 1278.66 327.35C1279 326.741 1279.93 327.214 1280.39 327.736C1282.03 329.585 1283.43 331.649 1284.53 333.86C1283.48 334.392 1282.36 333.309 1281.68 332.349C1280.77 331.07 1279.86 329.791 1278.95 328.512Z" fill="#00160A"/>
<path fill-rule="evenodd" clip-rule="evenodd" d="M1280.4 333.955C1281.06 334.638 1281.73 335.76 1281.04 336.416C1280.35 337.082 1279.23 336.33 1278.62 335.588C1277.13 333.793 1275.84 331.838 1274.77 329.768C1275.46 329.179 1276.47 329.864 1277.1 330.516C1278.2 331.662 1279.3 332.809 1280.4 333.955Z" fill="#00160A"/>
<path fill-rule="evenodd" clip-rule="evenodd" d="M1282.19 327.235C1281.9 326.798 1281.62 326.198 1281.94 325.779C1282.4 325.182 1283.33 325.731 1283.85 326.282C1285.34 327.882 1286.83 329.482 1288.33 331.082C1288.26 331.66 1287.58 332.006 1287.01 331.921C1286.43 331.835 1285.95 331.447 1285.52 331.056C1284.26 329.92 1283.14 328.634 1282.19 327.235L1282.19 327.235Z" fill="#00160A"/>
<path fill-rule="evenodd" clip-rule="evenodd" d="M1291.6 323.687C1292.53 324.873 1293.46 326.059 1294.39 327.245C1294.76 327.715 1295.15 328.319 1294.91 328.866C1294.68 329.393 1293.95 329.532 1293.42 329.305C1292.89 329.079 1292.52 328.599 1292.17 328.138C1291.2 326.843 1290.24 325.541 1289.29 324.233C1289.08 323.944 1288.86 323.62 1288.89 323.264C1288.94 322.671 1289.7 322.363 1290.27 322.544C1290.83 322.725 1291.24 323.218 1291.6 323.687H1291.6Z" fill="#00160A"/>
<path fill-rule="evenodd" clip-rule="evenodd" d="M1290.9 329.156C1291.1 329.366 1291.3 329.611 1291.28 329.895C1291.25 330.274 1290.81 330.509 1290.43 330.453C1290.06 330.396 1289.75 330.139 1289.46 329.885C1287.61 328.217 1286.04 326.225 1284.86 324.027C1285.1 323.423 1286.01 323.834 1286.45 324.31C1287.93 325.925 1289.42 327.541 1290.9 329.156Z" fill="#00160A"/>
<path fill-rule="evenodd" clip-rule="evenodd" d="M1308.92 318.461C1309.06 318.627 1309.22 318.818 1309.21 319.038C1309.19 319.371 1308.8 319.58 1308.47 319.523C1308.14 319.467 1307.88 319.233 1307.63 319.007C1305.89 317.393 1304.22 315.697 1302.63 313.926C1303.19 313.172 1304.37 313.777 1305.06 314.424C1306.41 315.708 1307.7 317.055 1308.92 318.461V318.461Z" fill="#00160A"/>
<path fill-rule="evenodd" clip-rule="evenodd" d="M1303.38 320.073C1302.41 318.736 1301.43 317.398 1300.45 316.06C1300.28 315.815 1300.09 315.517 1300.18 315.229C1300.37 314.662 1301.23 314.914 1301.7 315.292C1303.17 316.49 1304.41 317.96 1305.35 319.605C1305.54 319.924 1305.71 320.302 1305.58 320.646C1305.42 321.084 1304.82 321.213 1304.39 321.03C1303.96 320.846 1303.66 320.451 1303.38 320.073L1303.38 320.073Z" fill="#00160A"/>
<path fill-rule="evenodd" clip-rule="evenodd" d="M1311.18 315.158C1310.21 314.12 1309.25 313.083 1308.29 312.045C1307.94 311.675 1308.36 311.019 1308.86 310.965C1309.36 310.912 1309.82 311.229 1310.22 311.54C1310.95 312.112 1311.66 312.717 1312.33 313.353C1312.71 313.704 1313.09 314.089 1313.23 314.583C1313.37 315.077 1313.18 315.704 1312.69 315.872C1312.13 316.065 1311.58 315.591 1311.18 315.158L1311.18 315.158Z" fill="#00160A"/>
<path fill-rule="evenodd" clip-rule="evenodd" d="M1309.31 317.212C1307.97 315.842 1306.69 314.418 1305.47 312.943C1305.26 312.687 1305.04 312.37 1305.13 312.05C1305.23 311.688 1305.7 311.546 1306.06 311.667C1306.42 311.788 1306.68 312.088 1306.92 312.375C1308.04 313.696 1309.15 315.017 1310.27 316.338C1310.57 316.695 1310.87 317.257 1310.52 317.575C1310.18 317.896 1309.64 317.55 1309.31 317.212V317.212Z" fill="#00160A"/>
<path fill-rule="evenodd" clip-rule="evenodd" d="M1372.84 401.873C1374.34 401.408 1378.16 400.373 1379.67 399.908C1380.34 399.699 1381.35 399.672 1381.47 400.368C1381.58 400.94 1380.92 401.33 1380.37 401.515C1378.84 402.026 1374.96 402.952 1373.37 403.145C1372.8 403.213 1371.97 403.002 1372.09 402.442C1372.16 402.12 1372.52 401.97 1372.84 401.873Z" fill="#00160A"/>
<path fill-rule="evenodd" clip-rule="evenodd" d="M1204.41 338.836C1206.8 338.871 1209.62 339.426 1210.57 341.615C1211.47 343.67 1210.06 346.142 1208.09 347.208C1206.12 348.275 1203.77 348.302 1201.53 348.299C1170.94 348.26 1140.36 347.521 1109.81 346.085C1107.9 345.995 1107.72 343.248 1108.16 341.393C1108.42 340.285 1108.71 339.118 1109.51 338.308C1110.66 337.143 1112.48 337.063 1114.12 337.058C1136.08 336.987 1158.08 336.918 1179.95 338.939C1183.42 339.259 1186.89 339.632 1190.36 339.598C1195.06 339.552 1199.72 338.767 1204.41 338.836M1207.84 344.388C1208.35 343.387 1207.6 342.116 1206.57 341.656C1205.54 341.197 1204.37 341.316 1203.25 341.426C1188.91 342.837 1174.47 341.209 1160.09 340.368C1149.64 339.757 1139.17 339.563 1128.7 339.368C1124.33 339.287 1119.97 339.206 1115.6 339.125C1114.21 339.099 1112.69 339.118 1111.62 340.009C1110.55 340.901 1110.51 343.003 1111.84 343.423C1112.08 343.499 1112.33 343.512 1112.58 343.524C1143.31 345.018 1174.08 345.688 1204.84 345.534C1205.97 345.529 1207.32 345.391 1207.84 344.388V344.388Z" fill="#00160A"/>
<path fill-rule="evenodd" clip-rule="evenodd" d="M1184.89 363.558C1187.61 369.528 1193.49 373.948 1199.98 374.913C1203.04 375.367 1205.12 378.145 1206.86 380.697C1208.67 383.35 1210 387.845 1207.01 389.016C1218.61 401.807 1230.21 414.598 1241.81 427.39C1243.15 428.876 1244.46 431.356 1242.9 432.614C1242.32 433.081 1241.53 433.155 1240.78 433.18C1231.22 433.5 1222.21 429.027 1213.94 424.228C1202.03 417.317 1190.65 409.484 1179.95 400.824C1172.12 394.496 1160.89 392.686 1151.48 396.237C1146.59 398.079 1140.47 394.324 1139.9 389.136C1139.33 383.948 1144.49 378.953 1149.66 379.691C1141.89 368.166 1128 361.044 1114.11 361.463C1097.34 361.97 1080.51 360.211 1064.21 356.249C1062.77 355.901 1061.24 355.466 1060.34 354.298C1058.55 351.969 1060.43 348.657 1062.39 346.476C1076.9 330.406 1099.21 321.736 1120.76 323.8C1121.67 323.888 1122.17 322.773 1122.39 321.876C1127.87 299.049 1133.34 276.222 1138.82 253.395C1139.48 250.642 1143.67 250.262 1145.75 252.186C1147.82 254.11 1148.28 257.179 1148.52 259.999C1150.3 281.025 1147.19 303.661 1157.64 321.992C1158.13 322.846 1158.68 323.721 1159.53 324.205C1160.37 324.683 1161.39 324.712 1162.36 324.729C1181.71 325.072 1201.06 325.415 1220.41 325.758C1222.83 325.801 1225.79 325.514 1226.76 323.308C1229.26 317.654 1231.75 312.001 1234.25 306.348C1235.04 304.55 1236.14 302.509 1238.08 302.213C1240.87 301.788 1242.63 305.285 1242.54 308.1C1242.45 310.914 1241.5 313.904 1242.74 316.433C1247.29 311.6 1251.91 306.705 1257.59 303.284C1263.28 299.863 1270.26 298.046 1276.64 299.884C1271 308.845 1265.37 317.807 1259.73 326.768C1264.44 329.883 1264.81 337.761 1260.41 341.305C1258.54 342.818 1260.03 345.804 1261.58 347.646C1266.45 353.417 1271.32 359.188 1276.19 364.959C1272.03 366.886 1267.19 364.903 1263.11 362.832C1255.8 359.132 1248.67 355.088 1241.75 350.719C1238.39 348.598 1234.69 352.574 1231.64 355.12C1226.8 359.163 1220.12 359.968 1213.84 360.607C1204.19 361.591 1194.54 362.574 1184.89 363.558M1201.72 351.013C1207.65 351.338 1213.69 351.749 1219.45 350.279C1225.34 348.774 1230.7 345.27 1234.44 340.479C1235.35 339.315 1236.94 338.986 1238.4 338.735C1243.42 337.871 1248.71 337.026 1253.51 338.745C1255.68 339.52 1258.32 338.632 1259.58 336.707C1260.83 334.782 1260.59 332.006 1259.01 330.335C1257.3 330.288 1256.98 332.715 1256.08 334.165C1254.89 336.071 1252.29 336.381 1250.04 336.494C1241.81 336.908 1233.57 337.322 1225.34 337.736C1223.34 337.837 1220.58 337.255 1220.64 335.254C1220.67 334.373 1221.31 333.646 1221.94 333.031C1224.15 330.873 1226.68 329.035 1229.41 327.594C1195.97 327.847 1162.53 327.471 1129.11 326.466C1112.67 325.972 1095.14 325.598 1081.14 334.214C1079.83 335.019 1078.81 337.391 1080.33 337.625C1084.79 338.314 1089.26 339.003 1093.73 339.692C1094.26 339.775 1094.83 339.874 1095.22 340.251C1096.37 341.378 1094.75 343.192 1093.27 343.818C1087.13 346.401 1079.82 346.007 1073.99 342.779C1072.67 342.047 1071.11 341.157 1069.76 341.842C1068.14 342.67 1068.36 345.281 1069.74 346.475C1071.12 347.668 1073.08 347.836 1074.9 347.949C1091.24 348.957 1107.59 349.966 1123.94 350.975C1128.53 351.258 1133.14 351.542 1137.73 351.255C1159.03 349.928 1180.41 349.847 1201.72 351.013M1225.58 414.379C1219.86 406.508 1213.34 399.216 1206.16 392.649C1203.81 390.499 1201.74 388.065 1199.68 385.638C1190.65 375.028 1181.63 364.417 1172.6 353.807C1171.7 352.748 1170.14 352.608 1168.75 352.564C1156.9 352.189 1145.01 353.07 1133.34 355.188C1132.47 355.344 1131.54 355.546 1130.97 356.213C1129.65 357.759 1131.3 360.018 1132.85 361.336C1148.35 374.529 1164.41 387.052 1180.98 398.861C1184.03 401.034 1187.13 403.199 1190.57 404.67C1197.07 407.445 1203.57 410.22 1210.07 412.995C1215.04 415.119 1220.97 417.195 1225.58 414.379M1147.98 297.232C1147.74 294.132 1147.74 290.978 1146.89 287.988C1145.35 282.602 1141.26 278.373 1137.19 274.529C1136.87 274.231 1136.46 273.91 1136.05 274.059C1135.68 274.195 1135.54 274.641 1135.46 275.027C1132.42 288.851 1129.39 302.675 1126.35 316.5C1125.78 319.109 1125.2 321.754 1125.33 324.423C1135.97 324.557 1146.61 324.691 1157.25 324.825C1151.95 316.58 1148.73 307.006 1147.98 297.232M1273.03 301.822C1266.42 301.257 1259.61 303.687 1254.85 308.31C1246.13 316.777 1236.82 324.635 1227.01 331.807C1225.67 332.789 1224.23 333.877 1223.77 335.477C1231.99 335.106 1240.21 334.736 1248.43 334.365C1250.6 334.267 1253.15 333.942 1254.19 332.036C1259.86 321.602 1266.16 311.507 1273.03 301.822M1062.05 350.768C1061.83 351.247 1061.63 351.78 1061.75 352.294C1061.97 353.203 1063.03 353.581 1063.94 353.802C1082.32 358.261 1101.39 358.835 1120.29 359.388C1122.17 359.443 1124.12 359.486 1125.85 358.739C1127.58 357.992 1129.01 356.216 1128.73 354.355C1116.45 352.652 1104.04 351.78 1091.64 351.745C1084.21 351.725 1076.56 351.971 1069.6 349.385C1067.92 348.761 1066.01 347.51 1066.23 345.73C1064.44 347.018 1062.99 348.77 1062.05 350.768M1237.3 347.449C1236.64 346.018 1234.78 345.489 1233.24 345.819C1231.7 346.15 1230.39 347.125 1229.1 348.027C1226.12 350.109 1222.89 351.945 1219.36 352.784C1216.27 353.515 1213.06 353.463 1209.89 353.407C1198.32 353.202 1186.75 352.997 1175.18 352.792C1177.75 356.637 1181.29 360.957 1185.89 360.451C1194.89 359.462 1204.01 359.698 1212.96 358.377C1221.92 357.055 1231 353.953 1237.3 347.449M1264.07 357.348C1264.49 357.291 1264.98 357.15 1265.12 356.746C1265.23 356.407 1265.02 356.053 1264.83 355.756C1261.49 350.741 1257.39 346.294 1253.3 341.872C1252.68 341.197 1252.03 340.503 1251.18 340.147C1250.31 339.778 1249.32 339.813 1248.37 339.884C1244.49 340.175 1240.66 340.965 1236.98 342.229C1236.68 342.333 1236.33 342.499 1236.3 342.814C1236.27 343.06 1236.45 343.273 1236.63 343.449C1240.49 347.375 1245.32 350.179 1250.09 352.936C1254.4 355.43 1259.13 358.014 1264.07 357.348M1154.18 382.566C1153.82 382.287 1153.44 381.998 1152.99 381.94C1152.62 381.892 1152.26 382.003 1151.9 382.112C1151.09 382.366 1150.27 382.619 1149.45 382.873C1148.65 383.121 1147.65 383.857 1148.11 384.557C1149.55 386.738 1150.14 389.468 1149.72 392.047C1149.58 392.884 1150.79 393.183 1151.63 393.123C1156 392.815 1160.38 392.506 1164.75 392.197C1165.2 392.165 1165.82 391.934 1165.71 391.49C1161.87 388.515 1158.03 385.54 1154.18 382.566M1229.1 323.438C1228.79 324.242 1229.61 325.114 1230.46 325.203C1231.32 325.291 1232.13 324.859 1232.88 324.441C1235.59 322.933 1238.52 321.182 1239.54 318.255C1239.87 317.302 1239.98 316.285 1240.08 315.28C1240.25 313.555 1240.42 311.83 1240.59 310.105C1240.63 309.722 1240.66 309.307 1240.46 308.98C1240.26 308.653 1239.72 308.521 1239.49 308.833C1238.59 310.095 1237.25 311.046 1235.76 311.492C1235.12 311.685 1234.42 311.796 1233.88 312.193C1233.23 312.666 1232.92 313.456 1232.63 314.205C1231.45 317.283 1230.27 320.36 1229.1 323.438M1202.16 378.716C1200.98 376.514 1197.73 375.775 1195.71 377.249C1198.31 379.28 1199.78 382.414 1201.98 384.867C1202.74 385.711 1203.73 386.527 1204.86 386.453C1205.99 386.378 1206.93 384.864 1206.13 384.061C1204.55 382.486 1203.21 380.679 1202.16 378.716M1144.36 384.72C1142.61 386.433 1143.21 389.334 1143.93 391.677C1144.17 392.467 1144.95 393.45 1145.6 392.934C1145.82 392.758 1145.9 392.465 1145.96 392.192C1146.28 390.846 1146.61 389.467 1146.47 388.091C1146.32 386.714 1145.61 385.314 1144.36 384.72Z" fill="#00160A"/>
<path fill-rule="evenodd" clip-rule="evenodd" d="M1338.42 447.763C1334.75 444.104 1333.01 438.989 1331.39 434.068C1327.14 440.22 1321.63 444.588 1315.12 440.917C1308.6 437.245 1300.23 426.665 1295.56 420.831C1287.18 410.386 1277.23 401.205 1266.15 393.695C1272.07 400.188 1275.61 408.804 1275.96 417.583C1280.45 417.536 1284.94 417.489 1289.43 417.443C1274.34 422.586 1258.17 424.546 1242.28 423.158C1250.91 415.899 1257.66 406.421 1261.7 395.89C1260.8 393.041 1256.52 393.701 1254.02 395.338C1251.52 396.974 1248.28 399.052 1245.88 397.283C1242.91 395.105 1243.12 388.283 1239.59 389.349C1230.45 392.119 1219.62 386.617 1216.46 377.603C1214.3 378.951 1212.15 380.299 1209.99 381.646C1208.96 378.307 1213.76 375.727 1217 377.044C1220.24 378.361 1222.14 381.637 1224.39 384.317C1226.63 386.997 1230.24 389.363 1233.44 387.967C1239.42 385.364 1247.27 390.064 1247.81 396.559C1252.44 392.841 1258.8 391.367 1264.59 392.666C1260.89 387.31 1256.77 382.25 1252.26 377.55C1255.69 372.988 1259.92 369.035 1264.71 365.933C1262.36 370.373 1259.1 374.331 1255.2 377.492C1275.22 397.121 1295.24 416.751 1315.26 436.38C1316.52 437.616 1317.97 438.933 1319.73 438.957C1321.67 438.984 1323.23 437.46 1324.55 436.046C1333.94 425.962 1343.34 415.878 1352.74 405.794C1355.18 403.166 1357.76 400.27 1358.13 396.697C1358.59 392.211 1355.46 388.233 1352.47 384.857C1340.43 371.273 1327.63 358.371 1314.14 346.234C1308.23 340.91 1300.43 335.374 1292.98 338.193C1284 341.595 1281.86 355.111 1272.64 357.781C1275.4 353.99 1278.15 350.198 1280.91 346.407C1275.44 342.451 1268.6 333.621 1268.25 326.881C1272.64 322.881 1278.05 319.853 1282.54 317.531C1278.05 306.961 1278.58 304.763 1284.59 303.32C1290.59 301.876 1295.79 300.446 1301.31 298.6C1316.61 293.484 1323.91 269.227 1311.07 259.152C1304 253.609 1251.06 199.2 1228.33 179.14C1230.05 186.818 1219.94 194.057 1213.23 189.951C1214.51 194.377 1211.42 199.733 1206.85 200.317C1202.27 200.9 1197.81 195.831 1199.41 191.508C1200.79 187.788 1205.2 186.248 1207.76 183.217C1210.32 180.185 1208.09 173.522 1204.61 175.431C1202.77 182.825 1191.96 185.975 1186.44 180.724C1184.49 178.876 1181.95 178.422 1179.34 178.858C1176.16 179.393 1170.64 180.631 1168.28 182.918C1164.58 186.5 1163.75 191.733 1159.35 194.165C1158.65 194.553 1157.91 194.885 1157.14 195.15C1151.49 197.075 1143.58 191.485 1146.51 186.288C1130.44 201.107 1119.41 221.295 1115.62 242.824C1124 245.215 1125.6 256.231 1125.57 264.954C1116.11 267.355 1125.01 285.418 1116.83 290.741C1107.5 296.808 1110.09 310.918 1113.79 321.416C1104.33 301.063 1103.19 276.989 1110.69 255.835C1109.95 269.256 1109.21 282.677 1108.47 296.098C1114.81 295.169 1117.37 287.436 1117.9 281.044C1118.42 274.652 1118.82 267.131 1124.2 263.631C1122.19 258.517 1121.37 252.943 1121.81 247.468C1119.47 246.714 1117.14 245.96 1114.8 245.206C1113.4 255.087 1102.42 259.948 1093.37 264.155C1083.6 268.697 1074.41 274.482 1066.09 281.326C1057.16 288.667 1048.66 298.758 1049.65 310.273C1050.6 321.345 1060.14 329.811 1070.16 334.623C1059.43 334.599 1050.23 325.058 1048.5 314.472C1046.77 303.887 1051.38 292.997 1058.59 285.057C1065.8 277.117 1075.36 271.719 1085.06 267.134C1097.76 261.129 1113.16 253.341 1113.63 239.303C1114.03 227.601 1126.86 216.132 1120.72 206.168C1112.08 192.171 1107.26 175.844 1106.92 159.401C1106.75 151.289 1108.23 142.107 1114.88 137.457C1118.19 135.143 1122.31 134.335 1126.32 133.874C1141.2 132.165 1156.54 134.549 1170.2 140.698C1178.26 144.327 1187.06 149.357 1195.36 146.301C1214.7 139.175 1235.28 135.41 1255.9 135.223C1258.64 135.198 1260.92 133.18 1262.84 131.207C1270.37 123.445 1276.65 114.463 1284.84 107.406C1293.04 100.349 1303.94 95.2679 1314.53 97.452C1325.61 99.7386 1333.89 109.612 1337.51 120.338C1341.13 131.063 1340.93 142.651 1340.68 153.969C1340.25 174.238 1365.67 185.276 1372.23 204.458C1376.1 215.769 1388.86 221.01 1400.34 224.346C1411.82 227.683 1424.68 231.38 1430.59 241.767C1436.1 251.441 1433.38 264.115 1426.87 273.15C1420.37 282.186 1410.74 288.377 1401.34 294.35C1386.13 304.021 1390.4 328.755 1378.16 341.985C1371.98 348.655 1374.09 359.297 1377.29 367.801C1380.5 376.305 1384.44 385.764 1380.81 394.095C1378.82 380.748 1375.34 367.624 1370.45 355.049C1363.62 360.01 1367.08 370.686 1371.15 378.078C1376.27 387.393 1381.4 396.708 1386.53 406.023C1388.66 409.897 1390.87 414.166 1390.1 418.521C1389.22 423.501 1384.78 426.946 1380.67 429.892C1371.29 436.616 1361.91 443.341 1352.52 450.065C1348.31 453.084 1342.09 451.421 1338.42 447.763ZM1358.45 361.907C1357.62 360.981 1356.12 361.433 1354.99 361.953C1353.87 362.473 1352.74 362.994 1351.61 363.515C1351.37 363.629 1351.09 363.745 1350.83 363.674C1350.34 363.539 1350.25 362.807 1350.56 362.399C1350.87 361.991 1351.4 361.828 1351.89 361.669C1352.93 361.332 1353.94 360.918 1354.92 360.432C1355.48 360.153 1356.08 359.786 1356.23 359.18C1356.38 358.575 1355.69 357.839 1355.17 358.194C1353.66 359.236 1351.96 360.003 1350.17 360.447C1349.64 360.58 1348.8 360.412 1348.93 359.876C1348.98 359.67 1349.17 359.535 1349.35 359.423C1350.94 358.422 1352.68 357.654 1354.49 357.148C1355.14 356.966 1354.98 355.869 1354.35 355.6C1353.73 355.331 1353.02 355.603 1352.4 355.874C1350.9 356.528 1349.4 357.182 1347.9 357.836C1347.58 357.977 1347.22 358.16 1347.13 358.501C1347.06 358.807 1347.23 359.113 1347.4 359.378C1348.49 361.086 1349.58 362.793 1350.67 364.501C1350.84 364.761 1351.03 365.039 1351.32 365.134C1351.64 365.238 1351.98 365.094 1352.29 364.952C1354.36 363.983 1356.42 362.968 1358.45 361.907ZM1255.94 176.178C1252.41 176.238 1249.76 172.223 1250.42 168.753C1251.07 165.283 1254.19 162.686 1257.57 161.657C1262.16 160.259 1267.65 161.077 1271.31 157.972C1272.95 156.577 1273.95 154.574 1275.45 153.022C1278.71 149.641 1284.39 148.925 1288.39 151.391C1289.29 149.035 1286.63 146.756 1284.14 146.336C1281.66 145.916 1278.98 146.418 1276.69 145.363C1272.66 143.51 1267.92 145.89 1264.7 148.933C1261.48 151.975 1258.84 155.807 1254.87 157.775C1250.9 159.742 1244.89 158.645 1243.8 154.351C1243.46 153.013 1243.42 151.24 1242.11 150.788C1240.05 150.077 1238.98 147.674 1239.11 145.5C1239.23 143.325 1240.27 141.324 1241.29 139.4C1237.26 139.196 1233.21 139.322 1229.19 139.774C1228.23 139.882 1227.01 140.288 1227.01 141.257C1227.01 143.259 1225.15 144.696 1223.48 145.8C1219.95 148.136 1216.41 150.473 1212.88 152.81C1212.99 155.144 1216.43 155.702 1218.45 154.52C1220.46 153.338 1221.88 151.225 1224.05 150.366C1225.22 149.907 1226.49 149.851 1227.74 149.8C1229.87 149.713 1232 149.627 1234.13 149.54C1236.86 149.429 1240.54 150.122 1240.68 152.85C1240.8 155.086 1238.32 156.393 1236.73 157.971C1233.11 161.563 1233.12 168.515 1228.37 170.369C1226.68 171.027 1226.23 173.365 1226.97 175.019C1227.71 176.673 1229.25 177.797 1230.71 178.869C1256.21 197.578 1300.63 245.813 1301.6 245.942C1302.58 246.071 1303.72 245.373 1303.66 244.394C1303.52 241.863 1303.38 239.286 1304 236.828C1304.62 234.37 1306.13 232.004 1308.44 230.976C1310.58 230.028 1313.69 229.814 1314.15 227.524C1315.18 222.401 1320.31 218.439 1325.53 218.732C1328.09 218.876 1330.92 219.855 1333.06 218.426C1331.34 216.794 1328.79 216.457 1326.66 215.421C1324.53 214.385 1322.65 211.761 1323.92 209.761C1325.81 206.808 1323.06 202.945 1323.63 199.488C1323.87 198.021 1324.7 196.722 1325.57 195.521C1328.54 191.45 1332.29 187.952 1336.56 185.273C1337.55 184.65 1337.8 183.339 1337.96 182.177C1338.34 179.374 1338.71 176.571 1339.09 173.767C1339.35 171.811 1339.53 169.567 1338.19 168.12C1333.82 163.412 1326.55 163.258 1320.13 163.467C1313.71 163.677 1306.46 163.594 1302.01 158.96C1300.63 157.522 1298.11 158.011 1296.62 159.327C1295.12 160.643 1294.29 162.539 1293.18 164.192C1289.7 169.355 1282.96 172.092 1276.86 170.817C1273.6 170.134 1270.31 168.414 1267.1 169.335C1262.83 170.563 1260.39 176.102 1255.94 176.178ZM1378.62 303.262C1378.81 303.974 1379.1 304.788 1379.8 305.028C1380.36 305.22 1380.96 304.958 1381.5 304.701C1383.27 303.846 1385.04 302.992 1386.82 302.138C1387.73 301.7 1388.75 301.118 1388.91 300.121C1392.2 279.9 1391.24 259.001 1386.14 239.161C1384.93 234.469 1383.49 229.827 1381.57 225.379C1379.12 219.696 1375.91 214.378 1372.61 209.141C1367.86 201.603 1362.92 194.19 1357.78 186.914C1356.83 188.401 1356.54 190.202 1356.06 191.9C1355.57 193.599 1354.76 195.359 1353.2 196.187C1351.64 197.016 1349.24 196.313 1348.97 194.568C1348.37 190.797 1344.32 187.946 1340.57 188.651C1339.76 188.803 1339.49 189.807 1339.39 190.622C1338.48 198.029 1337.57 205.437 1336.65 212.845C1336.59 213.383 1336.56 214.024 1336.98 214.363C1337.34 214.646 1337.84 214.583 1338.29 214.576C1340.84 214.538 1343.07 217.205 1342.58 219.711C1342.09 222.218 1339.01 223.842 1336.66 222.838C1335.65 222.405 1334.86 223.779 1334.6 224.852C1333.07 231.328 1331.53 237.803 1330 244.279C1329.55 246.189 1331.2 247.992 1332.97 248.831C1334.74 249.67 1336.77 249.974 1338.4 251.071C1342.48 253.817 1342.3 260.063 1345.6 263.709C1348.29 266.68 1353.26 267.22 1356.52 264.896C1359.44 262.817 1360.71 259.019 1360.71 255.436C1360.71 252.992 1362.23 250.613 1364.44 249.582C1366.66 248.551 1369.45 248.922 1371.32 250.495C1373.15 252.027 1373.97 254.408 1374.72 256.668C1375.05 257.664 1375.38 258.752 1375.02 259.74C1374.45 261.357 1372.46 261.835 1370.83 262.39C1367.85 263.41 1365.24 265.474 1363.55 268.139C1362.73 269.44 1362.17 271.264 1363.19 272.418C1365.68 275.239 1368.16 278.059 1370.65 280.879C1371.95 282.354 1373.29 283.9 1373.81 285.795C1375.41 291.618 1377.01 297.44 1378.62 303.262ZM1125.4 210.542C1129.29 203.271 1133.23 195.944 1138.52 189.617C1143.15 184.076 1148.74 179.417 1154.31 174.822C1161.65 168.769 1169.04 162.77 1176.47 156.826C1179.57 154.351 1182.71 151.861 1186.32 150.223C1175.5 145.458 1164.62 140.669 1153.14 137.87C1141.66 135.071 1129.43 134.342 1118.1 137.705C1117.01 138.029 1115.92 138.398 1114.98 139.037C1113.38 140.116 1112.38 141.864 1111.63 143.633C1108.66 150.584 1108.83 158.459 1109.79 165.953C1111.82 181.685 1117.17 196.981 1125.4 210.542ZM1369.55 426.312C1369.45 427.368 1368.31 428.361 1367.35 427.902C1366.9 427.685 1366.62 427.226 1366.37 426.791C1362.56 420.132 1358.75 413.474 1354.93 406.815C1352.47 407.741 1351.29 410.708 1351.56 413.323C1351.84 415.938 1353.24 418.283 1354.6 420.532C1356.68 423.974 1358.76 427.415 1360.84 430.856C1359.75 431.983 1357.99 430.485 1357.17 429.139C1354.29 424.343 1351.4 419.547 1348.51 414.751C1342.99 420.426 1337.47 426.102 1331.96 431.777C1335.55 437.393 1339.14 443.01 1342.73 448.627C1343.58 449.95 1345.39 450.373 1346.93 450.04C1348.47 449.708 1349.79 448.776 1351.07 447.865C1360.7 441.016 1370.33 434.167 1379.96 427.319C1380.7 426.798 1381.48 426.204 1381.69 425.331C1381.92 424.419 1381.45 423.494 1381 422.671C1359.22 383.043 1335.97 344.221 1311.32 306.311C1310.59 305.195 1309.67 303.963 1308.35 303.874C1307.46 303.816 1306.64 304.298 1305.88 304.763C1296.11 310.779 1286.33 316.796 1276.55 322.812C1274.74 323.926 1272.93 325.04 1271.12 326.154C1270.65 326.443 1270.14 326.779 1269.99 327.309C1269.8 327.936 1270.17 328.58 1270.53 329.128C1274.09 334.599 1277.85 339.941 1281.8 345.14C1286.46 340.118 1292.01 334.71 1298.86 334.88C1304.78 335.027 1309.66 339.33 1313.97 343.386C1316.49 345.759 1319.01 348.131 1321.53 350.504C1317.55 343.041 1312.84 335.966 1307.49 329.411C1307.26 328.307 1309.2 328.609 1309.95 329.452C1317.42 337.847 1321.52 348.881 1329.38 356.907C1337.41 365.108 1345.45 373.31 1353.48 381.512C1356.89 384.995 1360.51 388.931 1360.78 393.8C1361.02 398.246 1358.39 402.29 1355.74 405.869C1360.41 411.383 1364.68 417.236 1368.51 423.365C1369.08 424.265 1369.65 425.256 1369.55 426.312ZM1284.49 140.315C1287.87 140.985 1291.26 141.656 1294.57 142.593C1303.12 145.006 1311.07 149.136 1318.94 153.238C1325.82 156.817 1332.73 160.421 1338.9 165.111C1339.57 148.343 1338.91 131.694 1333.33 115.868C1331.72 111.304 1327.83 106.382 1324.05 103.361C1319.61 99.8136 1313.45 99.1893 1307.83 99.9939C1298 101.399 1289.05 106.662 1281.68 113.309C1274.31 119.956 1268.34 127.976 1262.41 135.939C1269.77 137.398 1277.13 138.856 1284.49 140.315ZM1383.19 221.703C1392.69 245.923 1395.79 272.617 1392.1 298.369C1404.14 291.464 1414.91 282.335 1423.69 271.58C1428.07 266.22 1432.13 259.912 1431.84 252.998C1431.61 247.317 1428.38 242.072 1424.11 238.314C1419.84 234.556 1414.6 232.099 1409.33 229.957C1400.86 226.512 1392.11 223.748 1383.19 221.703ZM1364.57 263.115C1366.8 261.478 1369.19 260.055 1371.69 258.87C1371.69 257.274 1371.67 255.627 1371.03 254.165C1370.39 252.704 1368.95 251.467 1367.36 251.577C1365.69 251.692 1364.42 253.22 1363.89 254.811C1363.36 256.402 1363.35 258.117 1362.99 259.754C1361.97 264.279 1357.96 267.973 1353.37 268.615C1348.77 269.256 1343.9 266.803 1341.69 262.729C1339.9 259.446 1339.63 255.197 1336.78 252.775C1335.21 251.434 1333.11 250.919 1331.09 250.445C1330.62 250.334 1330.13 250.225 1329.67 250.381C1328.94 250.631 1328.6 251.448 1328.34 252.177C1326.61 257.057 1324.89 261.937 1323.16 266.816C1322.52 268.621 1322 270.929 1323.42 272.206C1336.6 283.997 1341.96 302.75 1355.36 314.286C1355.76 314.628 1356.25 314.984 1356.76 314.863C1363.15 313.346 1369.34 311.009 1375.15 307.928C1375.61 307.683 1376.09 307.412 1376.35 306.961C1376.62 306.504 1376.62 305.941 1376.59 305.412C1376.4 301.765 1375.32 298.169 1373.46 295.025C1372.59 293.538 1371.51 292.069 1371.34 290.351C1371.2 288.883 1371.74 287.378 1371.39 285.946C1371.11 284.776 1370.27 283.832 1369.46 282.941C1367.17 280.423 1364.89 277.905 1362.6 275.386C1361.47 274.141 1360.29 272.812 1359.94 271.165C1359.27 267.957 1361.93 265.055 1364.57 263.115ZM1221.18 188.977C1223.88 187.353 1225.51 184.114 1225.22 180.978C1224.79 176.402 1220.84 173.067 1217.21 170.258C1211.25 165.655 1197.62 154.472 1191.62 152.068C1185.63 149.665 1159.12 173.316 1149.9 182.384C1149.44 182.842 1148.95 183.341 1148.82 183.981C1148.69 184.621 1145.88 191.507 1151.55 193.181C1157.21 194.854 1157.82 193.565 1160.14 191.507C1162.45 189.449 1163.8 186.53 1164.89 183.63C1165.82 181.152 1168.63 179.967 1171.22 179.439C1173.81 178.91 1176.61 178.714 1178.75 177.164C1180.99 175.55 1184.11 175.644 1186.65 176.699C1189.2 177.754 1191.3 179.631 1193.35 181.474C1195.06 183.014 1197.83 181.292 1198.88 179.246C1199.94 177.2 1200.38 174.675 1202.22 173.299C1204.86 171.331 1208.91 173.092 1210.54 175.955C1212.85 180.026 1211.21 185.84 1207.12 188.112C1204.75 189.428 1201.28 190.311 1201.18 193.022C1201.14 194.37 1202.08 195.555 1203.13 196.403C1205.01 197.925 1208.07 198.647 1209.67 196.835C1211.96 194.252 1209.41 188.793 1212.57 187.421C1215.36 186.209 1218.57 190.546 1221.18 188.977ZM1293.3 160.079C1294.25 158.611 1295.2 157.003 1296.78 156.255C1298.79 155.299 1301.22 156.059 1303.13 157.208C1305.04 158.358 1306.75 159.896 1308.85 160.657C1310.99 161.431 1313.33 161.326 1315.6 161.212C1319.37 161.021 1323.14 160.831 1326.92 160.64C1304.1 147.423 1278.44 138.153 1252.08 137.892C1249.86 137.87 1247.59 137.921 1245.5 138.69C1243.41 139.459 1241.52 141.077 1240.99 143.234C1240.17 146.519 1243.16 150.031 1246.54 150.135C1244.78 151.429 1245.05 154.433 1246.73 155.834C1248.42 157.235 1250.93 157.224 1252.96 156.381C1254.98 155.537 1256.61 153.999 1258.2 152.493C1261.16 149.689 1264.12 146.886 1267.08 144.082C1268.94 142.32 1271.83 142.246 1274.35 142.743C1276.86 143.24 1279.32 144.203 1281.88 144.14C1287.26 144.01 1292.02 149.53 1291.1 154.83C1288.69 152.554 1285.18 151.499 1281.91 152.068C1278.64 152.637 1275.69 154.816 1274.19 157.774C1272.97 160.172 1270.26 161.439 1267.61 161.932C1264.97 162.426 1262.24 162.322 1259.6 162.867C1256.97 163.411 1254.28 164.797 1253.21 167.262C1252.13 169.726 1253.54 173.24 1256.21 173.489C1259.33 173.778 1261.15 170.115 1263.78 168.404C1266.28 166.775 1269.54 166.988 1272.45 167.622C1275.36 168.255 1278.27 169.253 1281.24 168.996C1286.41 168.55 1290.5 164.434 1293.3 160.079ZM1376.84 310.284C1370.87 312.589 1364.89 314.894 1358.91 317.198C1358.08 317.519 1357.07 318.338 1357.57 319.076C1363.27 327.491 1367.66 336.794 1370.53 346.545C1370.81 347.494 1372.25 346.784 1372.81 345.97C1378.04 338.412 1382.21 330.121 1385.16 321.417C1385.69 319.842 1386.19 318.14 1385.73 316.541C1385.01 314.028 1382.31 312.761 1380.32 311.067C1379.77 310.599 1379.21 310.057 1378.5 309.953C1377.94 309.871 1377.38 310.08 1376.84 310.284ZM1307.89 235.54C1305.14 238.456 1307.45 243.395 1306.04 247.144C1305.73 247.975 1305.22 248.851 1305.51 249.691C1305.65 250.109 1305.97 250.437 1306.29 250.75C1307.26 251.729 1308.24 252.707 1309.22 253.685C1309.98 254.453 1311.23 255.249 1312.02 254.515C1315.31 251.494 1319.29 249.234 1323.56 247.958C1324.79 247.591 1326.12 247.259 1326.98 246.304C1327.74 245.461 1327.99 244.29 1328.2 243.177C1329.41 236.949 1330.61 230.72 1331.8 224.489C1331.89 224.003 1331.98 223.482 1331.78 223.028C1331.57 222.547 1331.09 222.252 1330.61 222.027C1325.8 219.736 1319.34 222.083 1317.12 226.925C1316.36 228.569 1316.01 230.471 1314.75 231.763C1312.9 233.644 1309.69 233.622 1307.89 235.54ZM1212 155.879C1211.07 155.035 1210.11 153.976 1210.2 152.724C1210.3 151.389 1211.54 150.469 1212.66 149.736C1216.62 147.141 1220.59 144.545 1224.56 141.95C1224.46 141.179 1223.38 141.098 1222.62 141.237C1212.34 143.105 1202.28 146.117 1192.66 150.199C1203.38 156.808 1213.67 164.123 1223.43 172.082C1224.61 169.393 1227.66 168.07 1229.47 165.751C1231.75 162.822 1231.92 158.473 1234.72 156.041C1236.1 154.847 1238.14 154.02 1238.42 152.22C1236.01 152.236 1233.6 152.253 1231.2 152.27C1228.27 152.291 1225.15 152.367 1222.72 153.996C1220.59 155.418 1218.96 158.004 1216.41 158.077C1214.72 158.125 1213.25 157.011 1212 155.879ZM1332.01 316.017C1333.88 319.367 1335.74 322.717 1337.61 326.066C1334.19 315.177 1330.11 304.494 1325.4 294.096C1325.23 293.727 1325.04 293.332 1324.68 293.142C1324.24 292.909 1323.7 293.063 1323.23 293.222C1309.96 297.659 1296.68 302.096 1283.41 306.533C1283.01 306.668 1282.57 306.829 1282.36 307.195C1282.1 307.634 1282.25 308.193 1282.43 308.673C1283.2 310.819 1284.22 312.878 1285.45 314.799C1293.78 309.956 1302.1 305.113 1310.42 300.27C1311.71 299.525 1313.05 298.759 1314.54 298.703C1315.76 298.657 1316.95 299.106 1318.05 299.658C1324.55 302.938 1328.46 309.657 1332.01 316.017ZM1271.75 406.641C1270.08 403.067 1267.21 400.142 1263.91 397.973C1259.87 405.491 1255.22 412.688 1250.04 419.473C1249.64 419.992 1249.5 421.054 1250.15 421.008C1256.47 420.564 1262.79 420.119 1269.11 419.675C1270.38 419.586 1271.9 419.319 1272.37 418.136C1273.81 414.465 1273.43 410.214 1271.75 406.641ZM1367.17 353.929C1367.68 353.145 1368.2 352.34 1368.41 351.427C1368.69 350.219 1368.38 348.963 1368.06 347.768C1365.55 338.582 1361.61 329.815 1356.69 321.664C1356.11 320.715 1355.5 319.743 1354.56 319.145C1353.63 318.547 1352.29 318.436 1351.47 319.189C1350.39 320.194 1350.8 321.969 1351.29 323.364C1355.22 334.419 1359.14 345.474 1363.07 356.528C1363.3 357.187 1363.83 357.997 1364.48 357.745C1364.74 357.646 1364.9 357.405 1365.05 357.177C1365.76 356.094 1366.47 355.012 1367.17 353.929ZM1327.79 213.325C1328.93 214.283 1330.43 214.646 1331.88 214.98C1333.04 215.247 1333.73 213.733 1333.93 212.559C1335.27 204.715 1336.14 196.798 1337 188.887C1336.34 188.607 1335.64 189.145 1335.13 189.644C1333.28 191.435 1331.43 193.226 1329.59 195.017C1328.3 196.263 1326.96 197.61 1326.55 199.353C1325.78 202.672 1328.6 206.453 1326.82 209.355C1326.04 210.62 1326.65 212.367 1327.79 213.325ZM1323.77 276.072C1323.33 275.574 1322.85 275.06 1322.21 274.855C1321.58 274.649 1320.75 274.882 1320.53 275.511C1318.57 281.133 1316.6 286.755 1314.64 292.377C1314.45 292.912 1314.57 293.811 1315.12 293.651C1318.43 292.673 1321.49 290.942 1324.82 290.012C1328.15 289.083 1332.04 289.094 1334.7 291.301C1331.6 285.864 1327.93 280.751 1323.77 276.072ZM1352.16 193.861C1353.16 191.156 1354.16 188.452 1355.15 185.748C1355.35 185.223 1354.96 184.678 1354.6 184.25C1351.04 180.01 1347.46 175.741 1343.15 172.266C1342.96 172.118 1342.75 171.963 1342.52 171.976C1342.07 172 1341.89 172.557 1341.83 173.001C1341.29 176.772 1340.76 180.543 1340.22 184.314C1340.06 185.413 1341.08 186.368 1342.14 186.693C1343.2 187.018 1344.34 186.927 1345.43 187.13C1347.44 187.505 1349.23 188.945 1350.01 190.834C1350.51 192.033 1350.88 193.627 1352.16 193.861ZM1320.34 266.704C1322.22 261.884 1323.95 257.003 1325.52 252.072C1325.63 251.74 1325.73 251.379 1325.62 251.049C1325.32 250.168 1324.02 250.397 1323.19 250.813C1319.92 252.45 1316.78 254.337 1313.79 256.453C1313.42 256.716 1313.02 257.047 1313.01 257.5C1313 257.844 1313.22 258.146 1313.43 258.416C1315.64 261.252 1317.95 264.017 1320.34 266.704ZM1347.99 346.147C1347.63 345.762 1347.05 345.702 1346.53 345.71C1345.35 345.73 1344.17 345.971 1343.08 346.417C1342.54 346.636 1342 346.909 1341.42 346.939C1340.84 346.968 1340.19 346.666 1340.05 346.103C1341.58 345.005 1343.44 344.37 1345.33 344.302C1346.17 344.271 1346.19 342.847 1345.46 342.444C1344.72 342.041 1343.81 342.336 1343.03 342.637C1341.73 343.135 1340.44 343.632 1339.14 344.129C1338.77 344.274 1338.38 343.819 1338.43 343.419C1338.49 343.018 1338.81 342.715 1339.13 342.47C1340.3 341.58 1341.69 340.988 1343.14 340.764C1343.83 340.657 1343.94 339.586 1343.43 339.103C1342.93 338.62 1342.15 338.588 1341.46 338.625C1339.43 338.731 1337.42 339.171 1335.53 339.921C1337.14 342.809 1338.78 345.678 1340.46 348.528C1340.89 349.265 1341.37 350.036 1342.12 350.445C1343.47 348.739 1345.52 347.607 1347.69 347.378C1348.21 347.323 1348.34 346.532 1347.99 346.147ZM1375.71 398.255C1374.47 398.571 1373.24 398.932 1372.03 399.337C1371.69 399.448 1371.31 399.621 1371.25 399.967C1371.22 400.173 1371.32 400.375 1371.42 400.56C1372.13 401.931 1372.84 403.302 1373.56 404.673C1373.84 405.229 1374.43 405.882 1374.97 405.564C1376.75 404.518 1378.73 403.827 1380.78 403.545C1381.34 403.467 1381.71 402.864 1381.72 402.296C1381.74 401.728 1381.48 401.192 1381.24 400.679C1380.82 399.802 1380.36 398.877 1379.53 398.365C1378.41 397.677 1376.98 397.931 1375.71 398.255ZM1380.5 413.323C1380.01 413.412 1379.45 413.558 1379.26 414.013C1379.11 414.384 1379.27 414.804 1379.43 415.172C1380.05 416.576 1380.67 417.98 1381.29 419.385C1381.48 419.823 1381.74 420.315 1382.21 420.42C1382.54 420.494 1382.88 420.343 1383.18 420.195C1384.14 419.738 1385.09 419.282 1386.05 418.825C1386.58 418.567 1387.15 418.281 1387.45 417.764C1387.74 417.247 1387.58 416.437 1387.01 416.279C1386.7 416.195 1386.38 416.315 1386.09 416.454C1385.24 416.869 1384.47 417.473 1383.56 417.737C1382.65 418.002 1381.49 417.799 1381.05 416.954C1383.3 416.156 1385.45 415.079 1387.43 413.757C1387.25 412.517 1385.52 412.407 1384.28 412.632C1383.02 412.862 1381.76 413.093 1380.5 413.323ZM1362.14 381.083C1362.51 380.685 1363.04 380.491 1363.54 380.31C1364.94 379.813 1366.34 379.315 1367.74 378.818C1368.47 378.559 1368.29 377.35 1367.61 376.996C1366.92 376.642 1366.09 376.863 1365.35 377.09C1363.75 377.583 1362.15 378.076 1360.55 378.569C1360.34 378.634 1360.12 378.705 1359.98 378.867C1359.64 379.238 1359.87 379.822 1360.1 380.261C1360.74 381.433 1361.37 382.605 1362.01 383.777C1362.08 383.913 1362.16 384.059 1362.31 384.125C1362.48 384.204 1362.67 384.144 1362.85 384.082C1364.8 383.409 1366.75 382.736 1368.7 382.063C1369.16 381.902 1369.72 381.608 1369.68 381.118C1369.63 380.449 1368.65 380.444 1368.01 380.647C1366 381.283 1364 381.918 1362 382.554C1361.64 382.147 1361.78 381.48 1362.14 381.083ZM1387.04 304.646C1385.32 305.621 1383.59 306.596 1381.87 307.57C1381.66 307.687 1381.44 307.815 1381.33 308.024C1381.03 308.578 1381.62 309.179 1382.15 309.53C1383.22 310.249 1384.29 310.968 1385.37 311.687C1385.58 311.828 1385.8 311.975 1386.06 311.977C1386.64 311.983 1386.93 311.303 1387.08 310.744C1387.56 308.952 1388.03 307.159 1388.51 305.366C1388.57 305.141 1388.63 304.895 1388.53 304.683C1388.3 304.171 1387.53 304.37 1387.04 304.646ZM1364.33 385.098C1363.92 385.205 1363.44 385.361 1363.29 385.762C1363.17 386.06 1363.28 386.397 1363.41 386.687C1363.76 387.433 1364.31 388.082 1365 388.546C1366.8 387.856 1368.61 387.165 1370.42 386.474C1371.2 386.177 1372.12 385.677 1372.09 384.846C1372.07 384.25 1371.5 383.789 1370.92 383.674C1370.33 383.559 1369.73 383.709 1369.16 383.857C1367.55 384.271 1365.94 384.684 1364.33 385.098ZM1338.12 320.002C1338.75 321.238 1340.32 321.596 1341.69 321.819C1343.87 322.173 1346.06 322.527 1348.24 322.881C1348.28 321.641 1347 320.816 1345.86 320.318C1343.78 319.405 1341.61 318.7 1339.38 318.217C1339.14 318.165 1338.89 318.115 1338.65 318.173C1337.94 318.344 1337.78 319.35 1338.12 320.002ZM1330.01 319.067C1330.18 319.002 1330.36 318.936 1330.51 318.828C1331.16 318.349 1330.96 317.222 1330.29 316.762C1329.63 316.301 1328.73 316.363 1327.95 316.605C1327.18 316.848 1326.46 317.25 1325.67 317.428C1324.61 317.669 1323.21 317.658 1322.8 318.673C1322.45 319.539 1323.25 320.52 1324.16 320.72C1325.08 320.921 1326.01 320.585 1326.88 320.254C1327.93 319.858 1328.97 319.463 1330.01 319.067ZM1334.21 326.881C1335.09 326.306 1334.68 324.793 1333.75 324.314C1332.81 323.836 1331.68 324.059 1330.66 324.294C1329.58 324.541 1328.42 324.831 1327.69 325.66C1326.95 326.49 1326.95 328.044 1327.95 328.514C1329.32 329.152 1330.6 327.35 1332.09 327.127C1332.8 327.02 1333.61 327.274 1334.21 326.881ZM1365.13 375.368C1365.43 375.27 1365.74 375.158 1365.93 374.912C1366.14 374.637 1366.15 374.246 1366.03 373.92C1365.75 373.158 1364.87 372.753 1364.06 372.768C1363.25 372.782 1362.48 373.127 1361.74 373.466C1360.81 373.897 1359.87 374.328 1358.93 374.759C1358.41 374.996 1357.83 375.318 1357.74 375.88C1357.65 376.451 1358.18 376.97 1358.74 377.091C1359.31 377.212 1359.89 377.042 1360.44 376.872C1362.01 376.389 1363.57 375.888 1365.13 375.368ZM1369.36 395.257C1371.39 394.407 1373.41 393.556 1375.43 392.706C1375.62 392.625 1375.82 392.54 1375.96 392.387C1376.37 391.932 1376 391.139 1375.42 390.92C1374.85 390.701 1374.21 390.87 1373.62 391.041C1372.26 391.437 1370.89 391.833 1369.52 392.228C1368.77 392.447 1367.92 392.742 1367.6 393.462C1367.17 394.446 1368.37 395.675 1369.36 395.257ZM1383.02 407.05C1383.83 406.738 1383.53 405.376 1382.73 405.05C1381.93 404.724 1381.03 405.059 1380.21 405.358C1378.62 405.945 1376.98 406.399 1375.31 406.714C1374.73 407.496 1375.44 408.696 1376.38 408.962C1377.31 409.228 1378.3 408.871 1379.21 408.52C1380.48 408.03 1381.75 407.54 1383.02 407.05ZM1339.95 316.397C1341.58 316.824 1343.21 317.251 1344.84 317.678C1345.46 317.841 1346.42 317.75 1346.38 317.11C1343.56 315.164 1340.32 313.834 1336.95 313.242C1336.77 313.21 1336.58 313.182 1336.41 313.244C1335.83 313.456 1336.05 314.362 1336.49 314.801C1337.4 315.71 1338.71 316.071 1339.95 316.397ZM1346.11 310.1C1346.69 311.486 1347.27 312.872 1347.84 314.258C1348.19 315.093 1348.58 315.98 1349.35 316.46C1350.11 316.941 1351.36 316.737 1351.61 315.869C1351.8 315.207 1351.35 314.545 1350.93 314.003C1349.3 311.934 1347.63 309.902 1345.91 307.911C1345.53 308.57 1345.82 309.397 1346.11 310.1ZM1343.32 312.705C1343.63 312.81 1344 312.905 1344.25 312.696C1344.54 312.452 1344.43 311.979 1344.24 311.655C1343.52 310.479 1342.08 310.013 1340.75 309.637C1338.97 309.132 1337.19 308.627 1335.41 308.121C1334.86 307.964 1334.44 308.771 1334.7 309.284C1334.96 309.797 1335.56 310.028 1336.1 310.215C1338.51 311.045 1340.91 311.875 1343.32 312.705ZM1367.11 389.128C1366.61 389.279 1366.07 389.463 1365.8 389.908C1365.31 390.7 1366.02 391.733 1366.86 392.14C1368.74 390.604 1371.15 389.717 1373.58 389.658C1374.41 389.638 1374.48 388.251 1373.78 387.811C1373.08 387.372 1372.17 387.599 1371.37 387.839C1369.95 388.269 1368.53 388.698 1367.11 389.128ZM1359.21 367.464C1358.06 367.767 1356.92 368.07 1355.77 368.374C1354.72 368.652 1353.4 369.34 1353.65 370.399C1353.86 371.3 1355.12 371.505 1355.97 371.125C1356.81 370.746 1357.46 370.01 1358.3 369.622C1359.67 368.987 1361.61 369.219 1362.38 367.915C1361.72 366.983 1360.31 367.172 1359.21 367.464ZM1316.21 306.791C1315.99 306.886 1315.76 306.995 1315.62 307.186C1315.24 307.679 1315.65 308.445 1316.23 308.662C1316.81 308.878 1317.46 308.723 1318.06 308.579C1320.08 308.094 1322.14 307.758 1324.22 307.575C1324.42 306.438 1322.93 305.8 1321.78 305.755C1319.87 305.679 1317.96 306.036 1316.21 306.791ZM1349.76 350.899C1350.36 350.269 1350.02 348.865 1349.17 349.031C1346.92 349.472 1344.74 350.324 1342.79 351.534C1342.33 352.463 1343.6 353.427 1344.62 353.266C1345.64 353.105 1346.46 352.355 1347.42 351.962C1348.22 351.634 1349.17 351.529 1349.76 350.899ZM1351 330.528C1350.73 330.191 1350.3 330.031 1349.9 329.886C1347.93 329.181 1345.96 328.477 1343.99 327.772C1343.45 327.579 1342.84 327.388 1342.32 327.617C1341.79 327.847 1341.58 328.716 1342.1 328.97C1344.62 330.218 1347.31 331.144 1350.06 331.718C1350.35 331.777 1350.67 331.828 1350.92 331.67C1351.28 331.439 1351.26 330.866 1351 330.528ZM1341.72 307.347C1342 307.514 1342.37 307.199 1342.38 306.872C1342.38 306.546 1342.17 306.262 1341.94 306.021C1339.83 303.712 1336.72 302.633 1333.75 301.64C1333 301.388 1331.89 301.303 1331.67 302.066C1335.11 303.655 1338.46 305.418 1341.72 307.347ZM1385.54 409.794C1385.37 409.175 1384.71 408.79 1384.07 408.725C1383.43 408.66 1382.79 408.851 1382.18 409.039C1381.1 409.368 1380.03 409.696 1378.95 410.025C1378.21 410.252 1377.31 410.699 1377.37 411.473C1377.42 412.103 1378.16 412.48 1378.78 412.419C1379.41 412.359 1379.97 412.003 1380.54 411.73C1381.78 411.135 1383.2 410.912 1384.57 411.098C1385.2 411.185 1385.72 410.413 1385.54 409.794ZM1318.13 311.5C1318.12 312.082 1318.58 312.637 1319.15 312.742C1319.52 312.81 1319.9 312.708 1320.26 312.607C1322.35 312.024 1324.44 311.441 1326.53 310.858C1326.57 310.27 1326.06 309.762 1325.5 309.591C1324.93 309.421 1324.33 309.508 1323.74 309.597C1322.22 309.828 1320.71 310.059 1319.19 310.29C1318.61 310.378 1318.14 310.918 1318.13 311.5ZM1352.69 353.351C1352.77 352.805 1352.24 352.322 1351.69 352.254C1351.14 352.185 1350.6 352.409 1350.09 352.628C1348.48 353.325 1346.86 354.022 1345.25 354.719C1344.77 355.329 1345.36 356.296 1346.12 356.467C1346.87 356.639 1347.64 356.293 1348.34 355.956C1349.44 355.424 1350.55 354.892 1351.65 354.36C1352.1 354.141 1352.61 353.849 1352.69 353.351ZM1329.6 297.441C1329.78 297.773 1330.15 297.949 1330.5 298.104C1333.38 299.393 1336.25 300.682 1339.13 301.971C1339.64 302.2 1340.39 302.356 1340.64 301.856C1340.91 301.32 1340.24 300.807 1339.69 300.572C1336.59 299.257 1333.5 297.942 1330.4 296.627C1330.25 296.561 1330.08 296.494 1329.92 296.522C1329.54 296.584 1329.41 297.11 1329.6 297.441ZM1344.5 334.558C1344.4 334.517 1344.3 334.475 1344.19 334.496C1344.09 334.517 1344 334.61 1343.98 334.718C1344.23 336.44 1346.17 337.288 1347.82 337.825C1349.98 338.528 1352.15 339.23 1354.31 339.932C1354.83 339.357 1353.98 338.56 1353.27 338.259C1350.34 337.025 1347.42 335.791 1344.5 334.558ZM1328.5 314.379C1328.74 313.924 1328.38 313.355 1327.92 313.12C1327.12 312.709 1326.16 312.938 1325.29 313.176C1324.3 313.447 1323.31 313.719 1322.32 313.99C1321.61 314.185 1320.75 314.554 1320.73 315.292C1320.71 315.844 1321.23 316.296 1321.77 316.397C1322.32 316.498 1322.87 316.338 1323.4 316.18C1324.81 315.76 1326.22 315.339 1327.63 314.918C1327.96 314.818 1328.34 314.69 1328.5 314.379ZM1377.48 394.492C1376.89 394.152 1376.15 394.351 1375.51 394.558C1373.45 395.215 1371.39 395.872 1369.34 396.53C1368.88 397.258 1369.71 398.227 1370.57 398.278C1371.42 398.329 1372.2 397.829 1372.96 397.423C1374.33 396.686 1375.85 396.211 1377.4 396.033C1378.08 395.956 1378.07 394.832 1377.48 394.492ZM1338.21 332.067C1337.55 331.891 1336.85 332.013 1336.18 332.137C1335.35 332.29 1334.52 332.443 1333.69 332.596C1332.75 332.77 1331.56 333.257 1331.66 334.208C1331.72 334.77 1332.27 335.175 1332.83 335.257C1333.39 335.338 1333.95 335.172 1334.49 335.007C1336.15 334.503 1337.8 333.999 1339.46 333.495C1339.47 332.813 1338.87 332.244 1338.21 332.067ZM1332.56 320.913C1332.1 320.443 1331.34 320.409 1330.71 320.592C1330.08 320.775 1329.51 321.134 1328.89 321.361C1328.16 321.628 1327.38 321.707 1326.65 321.982C1325.93 322.256 1325.22 322.804 1325.1 323.57C1325.37 324.207 1326.29 324.136 1326.96 323.956C1328.73 323.478 1330.5 323.001 1332.28 322.523C1332.91 322.352 1333.02 321.383 1332.56 320.913ZM1330.09 329.59C1329.35 329.805 1329.48 331.026 1330.16 331.397C1330.83 331.768 1331.66 331.563 1332.4 331.35C1333.95 330.902 1335.5 330.454 1337.05 330.006C1337.16 329.232 1336.46 328.531 1335.69 328.363C1334.93 328.194 1334.14 328.414 1333.39 328.633C1332.29 328.952 1331.19 329.271 1330.09 329.59ZM1338.89 220.524C1339.87 219.815 1339.72 218.349 1339.75 217.135C1338.47 216.978 1337.06 216.848 1335.98 217.556C1334.89 218.265 1334.6 220.177 1335.76 220.752C1336.16 220.949 1336.63 220.944 1337.07 220.934C1337.7 220.921 1338.38 220.893 1338.89 220.524ZM1341.37 323.781C1340.75 323.717 1339.85 323.991 1340.02 324.59C1340.11 324.877 1340.43 325.018 1340.71 325.12C1343.41 326.097 1346.23 326.744 1349.09 327.041C1349.44 326.96 1349.54 326.459 1349.36 326.147C1349.17 325.834 1348.82 325.673 1348.48 325.537C1346.21 324.624 1343.81 324.031 1341.37 323.781ZM1328.8 293.791C1331.14 294.991 1333.52 296.105 1335.94 297.128C1336.41 297.327 1336.94 297.524 1337.41 297.33C1337.89 297.136 1338.07 296.345 1337.6 296.141C1334.85 294.936 1332.1 293.732 1329.35 292.528C1328.91 292.337 1328.29 292.2 1328.05 292.615C1327.79 293.069 1328.33 293.552 1328.8 293.791ZM1351.93 334.067C1351.53 333.705 1351 333.543 1350.48 333.392C1348.31 332.754 1346.14 332.116 1343.97 331.479C1343.67 331.39 1343.33 331.305 1343.05 331.443C1342.77 331.581 1342.67 332.054 1342.95 332.191C1345.92 333.647 1349.06 334.765 1352.28 335.518C1352.54 335.051 1352.33 334.428 1351.93 334.067ZM1353.63 367.566C1355.18 367.019 1356.73 366.471 1358.27 365.924C1358.96 365.683 1359.69 365.404 1360.08 364.796C1359.98 364.251 1359.39 363.908 1358.83 363.897C1358.28 363.886 1357.75 364.125 1357.25 364.36C1355.9 364.994 1354.54 365.628 1353.18 366.262C1352.69 366.491 1352.13 366.827 1352.12 367.368C1352.37 367.864 1353.11 367.752 1353.63 367.566ZM1341.33 336.609C1341.69 336.207 1341.37 335.508 1340.87 335.308C1340.36 335.107 1339.8 335.245 1339.27 335.385C1337.5 335.86 1335.72 336.336 1333.94 336.811C1333.62 337.184 1333.91 337.815 1334.37 338.011C1334.82 338.206 1335.34 338.102 1335.82 337.995C1337.42 337.639 1339.03 337.284 1340.63 336.928C1340.88 336.871 1341.16 336.804 1341.33 336.609ZM1363.04 369.902C1362.67 369.822 1362.3 369.966 1361.95 370.108C1360.06 370.882 1358.16 371.656 1356.27 372.43C1355.72 372.654 1355.94 373.585 1356.5 373.789C1357.06 373.992 1357.66 373.729 1358.2 373.471C1359.83 372.683 1361.45 371.895 1363.08 371.108C1363.27 371.018 1363.46 370.916 1363.55 370.732C1363.72 370.396 1363.41 369.983 1363.04 369.902ZM1349.13 339.827C1348.41 339.557 1347.35 339.416 1347.06 340.137C1349.63 341.459 1352.35 342.478 1355.16 343.166C1355.73 342.82 1355.01 342.003 1354.39 341.771C1352.64 341.123 1350.88 340.475 1349.13 339.827ZM1313.83 304.359C1313.34 304.916 1313.82 305.971 1314.56 305.965C1316.26 304.858 1318.24 304.191 1320.26 304.046C1319.62 303.245 1318.51 302.941 1317.48 303.021C1316.46 303.101 1315.5 303.509 1314.56 303.911C1314.29 304.024 1314.02 304.143 1313.83 304.359ZM1355.3 345.949C1355.86 346.083 1356.73 345.927 1356.59 345.373C1354.28 344.326 1351.83 343.557 1349.33 343.086C1349.06 343.458 1349.22 344.021 1349.57 344.33C1349.91 344.639 1350.38 344.758 1350.83 344.867C1352.32 345.228 1353.81 345.588 1355.3 345.949ZM1353.55 348.853C1354.85 349.255 1356.19 349.508 1357.55 349.606C1357.82 349.247 1357.66 348.699 1357.33 348.395C1357 348.091 1356.54 347.97 1356.11 347.859C1354.73 347.508 1353.34 347.156 1351.96 346.804C1351.46 347.668 1352.6 348.558 1353.55 348.853ZM1383.11 422.565C1382.8 423.325 1383.2 424.389 1384.02 424.494C1385.03 423.521 1385.9 422.399 1386.59 421.176C1386.2 420.751 1385.51 420.854 1384.96 421.054C1384.19 421.337 1383.42 421.804 1383.11 422.565ZM1361.46 359.42C1360.8 358.805 1359.99 358.359 1359.11 358.133C1358.97 359.37 1359.68 360.658 1360.8 361.201C1361.07 361.331 1361.39 361.42 1361.66 361.303C1362.36 361.008 1362.01 359.934 1361.46 359.42ZM1358.21 351.649C1357.76 351.321 1357.17 351.259 1356.62 351.207C1355.93 351.143 1355.25 351.079 1354.56 351.015C1354.23 351.816 1355.17 352.595 1356.03 352.72C1356.88 352.846 1357.82 352.675 1358.57 353.11C1358.91 352.665 1358.67 351.976 1358.21 351.649ZM1363.53 366.73C1363.8 366.959 1364.13 367.164 1364.48 367.126C1364.61 365.442 1363.47 363.875 1362.05 362.955C1361.89 364.353 1362.46 365.817 1363.53 366.73ZM1359.14 355.379C1358.34 354.941 1357.41 354.761 1356.51 354.874C1356.83 355.751 1357.61 356.447 1358.52 356.674C1359.01 356.796 1359.61 356.742 1359.88 356.316C1360.14 355.891 1359.62 355.187 1359.21 355.475M1314.64 300.822C1313.89 300.956 1313.18 301.338 1312.66 301.896C1313.59 302.159 1314.66 301.893 1315.36 301.221C1315.19 300.988 1314.92 300.829 1314.63 300.789" fill="#00160A"/>
<path fill-rule="evenodd" clip-rule="evenodd" d="M1298.48 375.732C1306.16 368.352 1316.95 369.393 1324.49 377.491C1331.05 384.536 1329.49 393.844 1322.04 401.65C1319.23 404.566 1313.59 406.5 1309.51 406.026C1306.05 405.683 1300.67 403.136 1297.48 400.787C1296 399.7 1294.64 397.459 1293.37 394.055L1293.18 393.546C1290.91 387.26 1292.44 380.615 1297.58 376.445L1297.82 376.253L1297.87 376.178C1297.92 376.123 1297.97 376.071 1298.03 376.022L1298.12 375.95L1298.23 375.883L1298.44 375.773L1298.48 375.732ZM1311.84 401.082L1309.51 403.568L1309.77 403.589C1312.15 403.762 1314.48 403.39 1316.6 402.489L1316.72 402.437L1316.56 402.427C1315.09 402.323 1313.54 401.875 1311.94 401.129L1311.84 401.082ZM1305.06 396.414L1304.84 396.215L1304.61 396.438C1303.71 397.316 1302.79 398.215 1301.86 399.142L1300.8 400.196C1301.1 400.414 1301.41 400.628 1301.74 400.836C1303.21 401.794 1304.79 402.52 1306.43 402.992L1306.79 403.089L1308.49 401.3L1309.76 399.955L1309.67 399.905C1308.08 398.924 1306.51 397.72 1305.06 396.414ZM1316.14 396.477L1313.37 399.441L1313.51 399.501C1315.67 400.405 1317.58 400.576 1319.23 399.91L1319.41 399.836L1319.24 399.647C1318.41 398.715 1317.51 397.791 1316.53 396.847L1316.14 396.477ZM1299.45 390.223L1298.96 390.706C1298.25 391.395 1297.54 392.079 1296.82 392.759L1295.69 393.818L1295.78 394.045C1296.55 395.814 1297.62 397.354 1299.01 398.701L1299.06 398.748L1299.22 398.588C1300.23 397.564 1301.27 396.527 1302.36 395.466L1303.2 394.643L1302.97 394.412C1301.71 393.127 1300.63 391.869 1299.72 390.599L1299.45 390.223ZM1320.67 391.635L1317.64 394.87L1317.67 394.899C1318.83 396.005 1319.89 397.091 1320.88 398.188L1321.18 398.525L1321.19 398.514C1322.22 397.113 1322.04 394.83 1320.8 391.942L1320.67 391.635ZM1310.09 391.197L1309.87 391.408C1308.83 392.378 1307.78 393.373 1306.72 394.4L1306.41 394.69L1306.7 394.939C1308.17 396.23 1309.59 397.315 1311 398.189L1311.27 398.35L1313.17 396.337L1314.48 394.945L1314.04 394.562C1313.26 393.87 1312.41 393.146 1311.35 392.251L1310.09 391.197ZM1326.24 385.674L1322.06 390.148L1322.19 390.411C1322.42 390.864 1322.65 391.325 1322.87 391.793L1323.2 392.5L1323.51 393.181C1323.82 393.841 1324.04 394.497 1324.15 395.144L1324.17 395.253L1324.29 395.029C1325.99 391.927 1326.68 388.733 1326.25 385.766L1326.24 385.674ZM1317.04 385.625L1316.83 385.34L1316.06 385.981L1313.94 387.738L1313.56 388.057C1313.17 388.387 1312.82 388.69 1312.49 388.977L1312.11 389.315L1311.73 389.674L1312.6 390.406C1313.58 391.226 1314.43 391.955 1315.23 392.657L1315.98 393.333L1318.41 390.729L1319.57 389.485L1319.56 389.468C1318.84 388.186 1317.97 386.876 1317.04 385.625ZM1304.09 385.887L1303.91 385.709L1303.85 385.77C1303.14 386.514 1302.43 387.253 1301.7 387.986L1300.98 388.711L1301.13 388.941C1302.01 390.258 1303.1 391.543 1304.37 392.79L1304.69 393.101L1304.74 393.155L1304.84 393.061C1305.58 392.361 1306.33 391.65 1307.1 390.92L1308.36 389.749L1308.18 389.604C1306.77 388.405 1305.41 387.169 1304.09 385.887ZM1296.36 381.141L1296.29 381.256C1294.57 384.149 1294.04 387.745 1294.84 391.17L1294.91 391.463L1294.95 391.603L1295.31 391.266C1296.06 390.556 1296.81 389.839 1297.56 389.115L1298.31 388.372L1298.24 388.241C1297 385.937 1296.35 383.597 1296.36 381.194L1296.36 381.141ZM1310.03 378.976L1309.13 380.006C1308.12 381.165 1307.08 382.312 1306.04 383.446L1305.42 384.109L1305.57 384.258C1306.79 385.437 1308.06 386.585 1309.37 387.714L1309.99 388.233L1310.57 387.694C1310.95 387.352 1311.35 387.001 1311.81 386.614L1312.56 385.987L1314.31 384.541C1314.63 384.279 1314.91 384.043 1315.18 383.821L1315.43 383.602L1315.31 383.457C1314.71 382.757 1314.14 382.157 1313.67 381.716L1313.53 381.589C1312.57 380.725 1311.53 379.935 1310.36 379.184L1310.03 378.976ZM1322.71 378.85L1322.62 379.015C1321.65 380.658 1320.31 382.198 1318.49 383.873L1318.34 384.012L1318.4 384.087C1319.19 385.203 1319.94 386.369 1320.66 387.587L1320.91 388.036L1322.95 385.84L1325.52 383.048L1325.46 382.902C1324.87 381.496 1323.99 380.177 1322.82 378.963L1322.71 378.85ZM1298.64 380.1L1298.63 380.194C1298.42 382.411 1298.86 384.591 1299.87 386.736L1299.9 386.789L1300.17 386.518C1300.77 385.91 1301.37 385.298 1301.96 384.682L1302.41 384.208L1302.23 384.021C1301.19 382.947 1300.16 381.839 1299.15 380.689L1298.64 380.1ZM1299.65 377.648L1299.5 377.723L1299.54 377.771C1300.91 379.413 1302.32 380.968 1303.77 382.459L1303.92 382.611L1304.52 381.961C1305.58 380.81 1306.63 379.645 1307.66 378.467L1308.17 377.889L1308.11 377.859C1307.86 377.72 1307.6 377.582 1307.33 377.442L1306.92 377.233C1304.52 376.057 1302.76 376.188 1299.89 377.533L1299.65 377.648ZM1314.63 373.454L1313.75 374.549C1313.15 375.281 1312.55 376.009 1311.94 376.732L1311.52 377.235L1311.63 377.304C1313.23 378.339 1314.6 379.462 1315.72 380.706L1315.98 380.996C1316.23 381.285 1316.47 381.578 1316.71 381.875L1316.99 382.221L1317.03 382.186C1318.82 380.518 1320.08 378.998 1320.95 377.366L1320.98 377.316L1320.75 377.134C1318.43 375.311 1316.73 374.227 1314.93 373.561L1314.63 373.454ZM1311.08 372.827C1308.81 372.811 1306.74 373.217 1304.83 374.052L1304.72 374.1L1304.91 374.125C1305.33 374.187 1305.74 374.292 1306.14 374.445L1306.34 374.525C1307.43 375.002 1308.42 375.479 1309.35 375.975L1309.67 376.144L1310.28 375.423C1310.9 374.681 1311.52 373.935 1312.13 373.184L1312.35 372.912L1312.08 372.882C1311.86 372.859 1311.64 372.844 1311.42 372.835L1311.08 372.827Z" fill="#FFB61D"/>
<path fill-rule="evenodd" clip-rule="evenodd" d="M1349.72 217.204C1350.44 215.258 1353.02 214.455 1354.93 215.265C1356.84 216.076 1358.03 218.103 1358.33 220.156C1358.62 222.208 1358.17 224.294 1357.59 226.284C1357.05 228.098 1356.41 229.881 1355.66 231.617C1355.59 231.779 1355.5 231.959 1355.33 231.998C1355.15 232.039 1354.98 231.897 1354.85 231.764C1351.6 228.478 1349.65 223.952 1349.48 219.338C1349.45 218.617 1349.47 217.88 1349.72 217.204M1355.33 217.678C1354.79 217.222 1354.11 216.923 1353.41 216.945C1351.77 216.994 1350.63 218.778 1350.66 220.415C1350.7 222.051 1351.57 223.536 1352.42 224.937C1353.02 225.94 1353.63 226.944 1354.24 227.947C1354.44 228.289 1354.85 228.679 1355.17 228.442C1355.3 228.347 1355.35 228.179 1355.39 228.024C1355.64 227.112 1355.89 226.201 1356.14 225.289C1356.49 223.986 1356.85 222.662 1356.83 221.312C1356.8 219.961 1356.35 218.557 1355.33 217.678L1355.33 217.678Z" fill="#FFB61D"/>
<path fill-rule="evenodd" clip-rule="evenodd" d="M1354.26 222.916C1353.86 223.028 1353.42 223.007 1353.04 222.856C1352.29 222.565 1351.77 221.763 1351.81 220.961C1351.86 220.159 1352.46 219.418 1353.23 219.208C1354.41 218.891 1355.73 219.974 1355.65 221.188C1355.6 221.976 1355.02 222.702 1354.26 222.916Z" fill="#FFB61D"/>
</svg>
