<svg width="1680" height="800" viewBox="0 0 1680 800" fill="none" xmlns="http://www.w3.org/2000/svg">
<rect width="1680" height="800" fill="#010E05"/>
<path d="M1423.6 47.6181C1389.49 59.2631 1367.46 90.3122 1365.65 124.22C1410.94 138.078 1450.62 168.477 1475.33 210.84C1476.53 210.487 1477.73 210.105 1478.93 209.695C1523.71 194.41 1547.67 145.69 1532.4 100.962C1517.13 56.2344 1468.38 32.3329 1423.6 47.6181Z" fill="#458544"/>
<path d="M1477.44 242.088C1446.51 151.486 1347.76 103.067 1257.06 134.031C1166.35 164.995 1117.82 263.691 1148.74 354.294C1179.67 444.894 1278.42 493.315 1369.13 462.35C1459.84 431.387 1508.37 332.688 1477.44 242.088Z" fill="#458544"/>
<path fill-rule="evenodd" clip-rule="evenodd" d="M1334.98 292.729C1334.64 297.754 1340.48 306.826 1342.11 308.702C1344.09 310.99 1346.5 337.501 1346.5 337.501C1340.83 337.087 1337.95 339.816 1337.24 340.606C1337.38 343.287 1337.41 345.707 1337.06 347.489C1337.03 347.688 1336.38 347.714 1335.5 347.75H1335.5C1334.77 347.779 1333.89 347.815 1333.05 347.96C1331.74 348.185 1331.58 349.886 1331.49 350.908C1331.48 351.022 1331.47 351.127 1331.46 351.221C1330.95 355.9 1333.81 357.872 1337.2 360.2C1337.86 360.656 1338.54 361.126 1339.22 361.632C1340.14 362.318 1343.65 364.135 1345.47 364.78C1345.49 364.788 1345.47 365.262 1345.44 366.086C1345.27 370.695 1344.69 386.262 1348.14 392.605C1351.22 398.277 1357.62 396.343 1361.11 395.286C1362.15 394.971 1362.94 394.734 1363.3 394.8C1382.51 398.295 1434.95 395.999 1435.15 391.858C1435.17 391.458 1435.15 390.034 1435.12 387.929V387.928C1434.97 377.363 1434.59 349.636 1437.69 347.957C1438.59 347.472 1439.47 347.004 1440.33 346.545C1443.78 344.699 1447 342.976 1450.5 340.711C1460.4 334.291 1467.23 329.01 1472.66 318.253C1483.03 297.663 1475.18 275.906 1460.49 260.637C1458.24 258.295 1455.91 256.015 1453.44 253.907C1449.81 250.809 1446 247.919 1442.2 245.039C1440.44 243.71 1438.32 242.468 1436.12 241.185L1436.12 241.184L1436.12 241.184C1431.1 238.246 1425.7 235.094 1423.53 230.195C1421 224.506 1423.33 216.233 1425.28 210.89L1425.56 210.138C1428.49 202.11 1430.97 195.309 1431.55 186.568C1432.19 177.11 1431.58 168.334 1427.98 159.647C1426.12 155.17 1425.33 150.236 1425.62 145.112C1426.9 145.555 1427.93 146.399 1428.97 147.243C1429.91 148.01 1430.85 148.777 1431.98 149.247C1431.58 147.681 1430.37 146.597 1429.15 145.51C1428.5 144.928 1427.84 144.345 1427.31 143.687C1428.62 143.286 1429.93 143.454 1431.25 143.625C1432.31 143.762 1433.39 143.902 1434.49 143.748C1434.25 143.648 1434.01 143.564 1433.76 143.48L1433.76 143.48C1433.38 143.35 1433 143.22 1432.64 143.03C1430.34 141.798 1431.87 138.97 1432.96 136.964C1433.3 136.341 1433.6 135.797 1433.72 135.405C1434.44 133.136 1434.66 129.151 1434.34 126.807C1433.42 119.978 1429.83 113.288 1423.91 109.532C1421.58 108.056 1417.39 106.757 1414.79 105.985C1414.23 105.985 1413.67 106.003 1413.12 106.02C1412.42 106.042 1411.72 106.065 1411.02 106.052C1410.9 106.013 1410.59 106.95 1410.33 107.747L1410.33 107.748L1410.33 107.748C1410.14 108.313 1409.98 108.807 1409.92 108.835C1408.65 109.47 1407.57 109.96 1406.6 110.397C1403.27 111.908 1401.36 112.774 1398.03 116.703C1394.61 120.728 1395.08 124.478 1395.61 127.253C1393.4 126.968 1390.64 125.175 1388.57 123.825C1387.18 122.924 1386.1 122.219 1385.68 122.293C1384.99 122.413 1384.29 122.522 1383.59 122.631L1383.59 122.631C1382.37 122.822 1381.14 123.014 1379.92 123.271C1381.03 124.259 1382.47 124.47 1383.9 124.68C1385.52 124.917 1387.13 125.151 1388.21 126.506C1387.28 126.992 1387.4 127.923 1387.52 128.79C1387.64 129.663 1387.75 130.472 1386.76 130.695C1386.25 130.811 1385.71 130.93 1385.16 131.052L1385.16 131.052L1385.16 131.052C1381.24 131.919 1376.52 132.963 1373.19 134.674C1361.67 140.595 1356.91 149.059 1351.39 160.289C1350.49 162.115 1349.57 164.532 1348.65 166.944L1348.65 166.944C1347.75 169.309 1346.85 171.668 1345.98 173.461C1345.37 174.717 1343.71 175.403 1342.04 176.09C1340.39 176.772 1338.74 177.455 1338.12 178.696C1338.11 178.724 1338.09 178.752 1338.07 178.782L1338.07 178.783C1337.96 179.004 1337.82 179.264 1337.94 179.468C1338.05 179.68 1338.4 179.664 1338.64 179.645C1338.67 179.643 1338.75 179.604 1338.88 179.544C1339.58 179.224 1341.6 178.298 1343.14 179.148C1344.71 180.016 1347.88 183.318 1346.88 184.659C1342.85 190.058 1344.38 196.549 1345.56 201.235C1347.03 207.059 1348.91 208.725 1350.5 210.131L1350.5 210.132C1350.79 210.385 1351.07 210.631 1351.33 210.89C1351.82 211.377 1352.18 212.405 1352.49 213.327C1352.74 214.052 1352.96 214.711 1353.22 214.991C1353.26 215.035 1353.41 214.838 1353.63 214.551L1353.63 214.551C1354.47 213.439 1356.36 210.97 1356.9 215.905C1357.45 221.002 1358.21 222.927 1360.23 228.054C1360.7 229.252 1361.24 230.625 1361.87 232.255C1362.12 232.929 1362.37 233.598 1362.62 234.25L1362.62 234.251C1363.66 237.072 1364.61 239.607 1365.77 241.146C1365.88 241.298 1364.37 241.912 1363.47 242.275L1363.47 242.275C1363.19 242.389 1362.97 242.477 1362.88 242.52C1361.51 243.175 1360.7 243.806 1359.99 244.364C1358.95 245.178 1358.11 245.836 1356.01 246.182C1353.55 246.589 1349.36 248.308 1345.92 249.72L1345.92 249.721C1344.45 250.326 1343.11 250.875 1342.11 251.24C1340.58 251.794 1339.13 252.32 1337.73 252.825C1325.74 257.157 1317.94 259.971 1306.49 265.882C1303.74 267.297 1299.36 267.73 1295.18 268.144C1291.36 268.521 1287.71 268.882 1285.64 269.956C1286.9 269.609 1281.41 272.959 1281.41 272.959C1278.94 274.914 1277.08 278.766 1276.62 281.694C1275.78 287.109 1275.97 289.637 1276.79 295.052C1277.08 296.967 1277.17 298.76 1277.26 300.44V300.44C1277.48 304.761 1277.66 308.338 1281.11 311.343C1282.97 312.96 1283.32 312.938 1283.97 312.896H1283.97C1284.16 312.884 1284.37 312.871 1284.65 312.894C1285.42 312.958 1285.94 313.92 1286.45 314.877C1286.69 315.322 1286.93 315.765 1287.19 316.118C1288.51 317.903 1292.48 318.024 1293.75 316.494C1294.48 315.604 1295.59 316.537 1296.69 317.471C1297.3 317.989 1297.92 318.508 1298.47 318.715C1300.04 319.309 1301.64 319.212 1303.25 318.884C1305.03 318.524 1305.67 315.809 1305.37 313.935C1305.28 313.361 1306.82 313.854 1307.94 314.213L1307.94 314.213C1308.38 314.354 1308.76 314.475 1308.95 314.502C1310.19 314.684 1311.39 314.921 1312.56 315.153L1312.56 315.153C1314.22 315.482 1315.82 315.801 1317.44 315.935C1322.16 316.325 1326.63 315.505 1331 313.918C1332.48 313.383 1334.1 312.795 1335.4 311.808C1335.54 311.735 1336.18 311.369 1336.3 311.224C1337 310.627 1337.29 310.125 1337.49 309.35C1337.64 308.791 1337.6 307.732 1337.27 307.302C1335.3 304.771 1325.69 302.163 1319.59 302.258C1318.66 302.272 1317.74 302.329 1316.82 302.387L1316.82 302.387H1316.82H1316.82C1315.82 302.449 1314.82 302.511 1313.82 302.518C1313.77 302.518 1313.71 302.52 1313.66 302.521C1313.34 302.529 1312.98 302.538 1312.81 302.298C1312.62 302.024 1312.78 301.384 1312.92 300.828C1313 300.467 1313.09 300.14 1313.06 299.972C1312.95 299.351 1312.68 298.751 1312.33 298.224C1311.19 296.471 1310.14 295.504 1308.09 294.899C1307.72 294.789 1307.33 294.801 1306.93 294.814C1306.5 294.827 1306.06 294.841 1305.66 294.686C1306.14 293.485 1307.42 292.676 1308.62 291.92L1308.62 291.92L1308.62 291.92C1309.06 291.642 1309.49 291.372 1309.87 291.091L1309.85 291.094C1311.24 290.286 1312.66 289.364 1313.56 288.778C1314.19 288.372 1314.56 288.127 1314.5 288.196C1315.78 288.338 1316.91 287.733 1318.01 287.144C1318.47 286.899 1318.92 286.656 1319.37 286.472C1319.73 286.327 1320.09 286.181 1320.45 286.034L1320.46 286.031C1322.62 285.149 1324.78 284.267 1327.02 283.603C1329.09 282.992 1331.21 282.582 1333.33 282.172L1333.33 282.172C1333.88 282.064 1334.44 281.956 1335 281.845L1335.02 281.841L1335.08 281.829C1335.33 281.777 1335.61 281.719 1335.83 281.845C1336 281.944 1337.71 280.253 1339.67 278.309L1339.67 278.309L1339.67 278.309L1339.67 278.309C1342.22 275.789 1345.19 272.845 1345.8 272.83C1345.92 272.827 1345.68 273.003 1345.22 273.349L1345.22 273.35L1345.22 273.35C1343.88 274.337 1340.68 276.711 1338.56 280.3C1335.8 284.974 1335.04 291.855 1334.98 292.729ZM1311.49 374.653C1311.69 374.965 1311.64 375.173 1311.57 375.406C1311.54 375.55 1311.49 375.703 1311.51 375.895C1311.63 377.589 1311.83 379.278 1312.03 380.964C1312.06 381.154 1312.1 381.365 1312.15 381.587L1312.15 381.587C1312.27 382.117 1312.4 382.703 1312.24 383.179C1312.11 383.574 1311.44 383.693 1311.13 383.701C1310.47 383.719 1309.81 383.702 1309.16 383.686C1308.14 383.661 1307.12 383.635 1306.1 383.738C1303.11 384.045 1300.79 387.029 1301.07 389.984C1301.11 390.42 1301.98 390.949 1302.34 390.99C1303.95 391.171 1304.62 391.088 1305.44 390.985C1306.03 390.912 1306.69 390.83 1307.82 390.823C1308.97 390.818 1310.12 390.88 1311.27 390.992C1311.83 391.049 1312.25 391.259 1312.04 391.942C1311.72 392.982 1310.73 393.362 1309.77 393.724C1309.32 393.896 1308.88 394.063 1308.53 394.294C1306.9 395.366 1306.61 397.447 1306.36 399.254C1306.32 399.565 1306.28 399.868 1306.23 400.156C1306.23 400.181 1306.22 400.212 1306.22 400.246C1306.15 400.651 1305.99 401.622 1306.28 401.917C1306.61 402.266 1307.9 402.266 1308.3 402.266C1309.03 402.265 1309.75 402.245 1310.47 402.225C1311.67 402.192 1312.87 402.159 1314.07 402.212C1316.21 402.304 1317.71 402.726 1319.54 403.852C1321.47 405.052 1321.91 407.703 1321.63 409.765C1321.56 410.314 1321.28 410.887 1321 411.453C1320.54 412.4 1320.09 413.327 1320.61 414.094C1321.31 415.123 1323.36 415.326 1324.43 415.431C1324.51 415.439 1324.59 415.447 1324.65 415.454C1325.81 415.578 1326.97 415.662 1328.13 415.747L1328.13 415.747L1328.13 415.747C1329.37 415.837 1330.6 415.927 1331.83 416.065C1335.82 416.513 1340.63 417.561 1344.77 418.464L1344.78 418.465C1346.13 418.759 1347.4 419.038 1348.56 419.275C1348.84 419.334 1349.13 419.384 1349.41 419.433H1349.41C1349.75 419.492 1350.09 419.55 1350.42 419.624L1350.44 419.628C1350.71 419.687 1351.34 419.827 1351.12 420.342C1350.77 421.13 1349.37 421.096 1348.44 421.074C1347.63 421.054 1347.18 421.043 1348.1 421.59C1344.43 423.19 1340.36 423.563 1336.42 423.808C1326.25 424.437 1322.84 424.437 1312.66 424.045C1305.48 423.768 1303.58 423.553 1298.7 423C1297.37 422.848 1295.81 422.671 1293.85 422.461C1292.72 422.338 1291.57 422.222 1290.41 422.104L1290.41 422.104L1290.4 422.103L1290.4 422.103L1290.4 422.103L1290.4 422.103L1290.4 422.103C1285.33 421.587 1280.13 421.059 1275.21 419.982C1269.76 418.791 1266.47 417.818 1264.94 415.22C1264.61 414.666 1264.07 414.312 1263.63 414.03C1263.23 413.767 1262.92 413.567 1262.97 413.327C1263.25 412.16 1263.51 412.102 1263.8 412.039C1263.87 412.023 1263.95 412.007 1264.02 411.972C1264.64 411.692 1265.32 411.493 1265.98 411.295L1265.98 411.295L1265.98 411.295C1266.3 411.202 1266.61 411.108 1266.92 411.007C1267.37 410.858 1267.97 410.858 1268.59 410.859C1269.9 410.859 1271.29 410.859 1271.55 409.499C1271.74 408.484 1271.76 407.319 1271.78 406.178C1271.79 405.312 1271.81 404.459 1271.9 403.697C1271.96 403.147 1273.52 403.178 1274.59 403.198C1275.28 403.212 1275.77 403.221 1275.49 403.062C1272.8 401.524 1272.04 396.045 1271.72 393.302C1271.04 387.534 1271.62 383.832 1272.51 378.148L1272.51 378.143C1273.74 370.233 1275.41 364.614 1279.47 357.674C1279.94 356.881 1280.35 356.165 1280.74 355.492L1280.74 355.49C1282.1 353.121 1283.17 351.267 1285.23 348.35C1285.7 347.68 1286.82 346.965 1287.63 346.82C1287.79 346.791 1288.01 346.784 1288.26 346.775H1288.26H1288.26C1289.09 346.748 1290.25 346.709 1290.69 345.857C1291.28 344.72 1291.67 343.658 1292.04 342.632C1292.66 340.935 1293.24 339.337 1294.66 337.654C1296.42 335.562 1297.87 335.084 1300.08 335.952C1300.72 336.202 1301.38 336.942 1301.4 337.67C1301.45 339.425 1300.67 340.91 1299.9 342.402C1299.32 343.517 1298.73 344.635 1298.49 345.871C1298.87 345.896 1299.53 346.049 1300.27 346.223C1301.91 346.604 1303.99 347.087 1304.54 346.554C1306.01 345.121 1306.95 342.092 1307.49 340.348L1307.52 340.249C1308.01 338.646 1308.99 337.189 1311.06 337.504C1313.13 337.818 1313.58 339.389 1314.1 341.144C1314.29 341.788 1314.48 342.456 1314.77 343.096C1316.44 346.882 1316.56 351.418 1314.72 355.176C1314.36 355.931 1313.88 356.653 1313.4 357.381L1313.4 357.381C1312.45 358.823 1311.49 360.283 1311.35 362.038C1311.24 363.32 1311.43 364.623 1311.61 365.924C1311.93 368.12 1312.24 370.309 1311.14 372.381C1310.58 370.537 1310.81 376.269 1311.49 374.653ZM1233.77 432.393C1230.9 431.774 1228.21 431.659 1225.44 431.541H1225.44H1225.44H1225.43C1224.11 431.485 1222.77 431.428 1221.39 431.315C1218.34 431.065 1215.3 430.77 1212.26 430.475L1212.25 430.475L1212.25 430.474L1212.25 430.474C1208.6 430.121 1204.95 429.767 1201.3 429.492C1200.49 429.43 1199.63 429.441 1198.75 429.452C1196.35 429.482 1193.84 429.513 1191.85 428.037C1190.34 426.923 1190.46 424.981 1190.57 423.253C1190.61 422.708 1190.64 422.184 1190.62 421.714C1190.57 420.623 1190.46 419.513 1190.35 418.396C1190.04 415.184 1189.72 411.907 1190.81 408.821C1191.69 406.358 1194.55 405.474 1196.76 404.795L1196.9 404.753C1196.92 404.745 1196.78 404.877 1196.54 405.098L1196.54 405.098L1196.54 405.098L1196.54 405.098L1196.54 405.098C1195.47 406.077 1192.51 408.796 1193.95 408.837C1194.86 408.864 1194.92 411.666 1194.99 414.944C1195.08 418.891 1195.18 423.529 1196.8 424.851C1198.41 426.166 1237.15 430.629 1242.01 429.202C1244.95 429.36 1244.46 412.386 1242.09 411.803C1241.47 411.649 1240.17 411.603 1238.93 411.56H1238.93C1237.16 411.497 1235.51 411.439 1236.18 411.077C1236.84 410.709 1236.94 409.856 1237.02 409.076C1237.1 408.409 1237.17 407.796 1237.58 407.587C1238.98 406.891 1243.17 407.369 1243.28 407.385C1243.57 407.432 1243.86 407.462 1244.15 407.493L1244.15 407.493C1244.75 407.556 1245.36 407.619 1245.92 407.824C1246.84 408.16 1246.91 409.039 1246.92 409.824C1246.95 414.484 1246.93 419.143 1246.88 423.8C1246.86 425.316 1246.8 427.545 1245.92 428.9C1244.19 431.585 1240.81 431.872 1237.85 432.123L1237.85 432.124L1237.85 432.124L1237.85 432.124C1237.15 432.183 1236.48 432.24 1235.85 432.326C1235.18 432.393 1234.51 432.393 1233.77 432.393ZM1238.08 344.653L1238.08 344.653C1236.68 343.306 1234.9 341.586 1234.39 340.703C1233.69 339.49 1230.75 333.317 1233.2 331.941C1233.7 331.661 1234.2 331.673 1234.92 331.69C1235.56 331.705 1236.36 331.725 1237.47 331.551C1239.29 331.264 1241.06 330.645 1242.85 330.018C1245.45 329.11 1248.08 328.189 1250.97 328.249C1258.98 328.416 1265.65 333.47 1265.49 334.487C1264.04 343.792 1256.74 349.866 1247.74 349.503C1244.66 349.379 1242.85 348.227 1240.3 346.6C1240.07 346.459 1239.85 346.314 1239.61 346.167C1239.3 345.824 1238.73 345.279 1238.08 344.653ZM1327.67 313.97C1327.51 314.012 1327.37 314.052 1327.24 314.09C1326.47 314.165 1325.63 314.32 1324.76 314.481C1321.92 315.005 1318.74 315.593 1316.44 313.676C1314.55 312.098 1311.2 308.208 1314.21 306.006C1314.72 305.634 1315.28 305.306 1315.86 305.078C1316.44 304.857 1317.04 304.699 1317.66 304.664C1318.48 304.618 1319.32 304.773 1320.15 304.927C1320.73 305.034 1321.31 305.141 1321.88 305.177C1322.55 305.221 1323.23 305.217 1323.91 305.213C1324.41 305.21 1324.91 305.207 1325.41 305.223C1325.78 305.236 1326.16 305.247 1326.53 305.258C1327.98 305.302 1329.42 305.345 1330.85 305.473C1331.08 305.492 1331.37 305.559 1331.47 305.761C1331.54 305.889 1331.43 306.032 1331.34 306.163C1331.31 306.201 1331.28 306.239 1331.26 306.274C1331.11 306.508 1330.96 306.704 1330.82 306.888C1330.43 307.408 1330.11 307.826 1330.21 308.702C1330.25 309.143 1330.4 309.565 1330.55 309.987C1330.7 310.413 1330.85 310.84 1330.9 311.286C1331.08 313.04 1329 313.606 1327.67 313.97Z" fill="white"/>
<g clip-path="url(#clip0)">
<path fill-rule="evenodd" clip-rule="evenodd" d="M1208.35 398.829C1209.26 399.42 1209.38 400.781 1208.56 401.585C1208.07 402.068 1207.49 402.458 1206.98 402.925C1205.9 403.92 1205.48 405.214 1205.96 406.556C1206.45 407.905 1207.54 408.678 1209 409.064C1210.75 409.522 1212.4 409.184 1214.02 408.715C1214.7 408.519 1215.24 407.929 1215.14 406.904C1214.95 405 1215.05 403.071 1214.92 401.159C1214.85 400.171 1215.64 400.338 1216.08 400.203C1217.23 399.844 1218.44 399.455 1219.62 399.437C1220.47 399.425 1221.33 399.995 1222.11 400.372C1220.76 400.44 1219.47 400.346 1218.2 400.489C1217.75 400.54 1217.36 401.161 1216.94 401.522C1217.24 401.788 1217.52 402.267 1217.83 402.281C1219 402.335 1220.18 402.261 1221.36 402.195C1222.28 402.142 1222.63 401.605 1222.45 400.708C1223.04 402.189 1222.77 403.087 1221.55 403.669C1221.37 403.756 1221.25 403.962 1221.08 404.084C1220.88 404.228 1220.65 404.339 1220.43 404.465C1220.48 404.252 1220.64 403.97 1220.55 403.836C1219.68 402.419 1218.29 403.357 1217.14 403.176C1216.91 403.14 1216.35 403.759 1216.32 404.103C1216.23 405.482 1216.21 406.879 1216.33 408.257C1216.37 408.715 1216.82 409.35 1217.24 409.512C1217.78 409.72 1218.54 409.771 1218.78 408.826C1219.06 407.7 1219.43 406.595 1219.77 405.481C1219.81 405.323 1219.86 405.164 1219.9 405.005C1219.95 405.166 1220.03 405.326 1220.03 405.488C1220.05 406.697 1219.79 408.067 1221.12 408.745C1221.97 409.178 1222.97 409.416 1223.93 409.543C1225.85 409.802 1227.79 409.949 1229.73 410.091C1230.38 410.139 1231.06 409.988 1231.01 409.103C1230.94 407.76 1231.03 406.349 1230.64 405.097C1230.15 403.544 1230.52 402.014 1231.42 401.201C1232.1 400.588 1233.74 401.007 1234.96 401.052C1235.34 401.066 1235.71 401.361 1236.1 401.511C1236.54 401.684 1237.37 401.809 1237.38 402.008C1237.44 402.706 1237.41 403.543 1237.07 404.12C1235.67 406.484 1235.89 408.305 1237.62 410.018C1238.29 410.678 1239.64 410.792 1240.7 410.873C1242.46 411.006 1242.57 410.894 1242.79 412.436C1243.14 414.905 1243.46 417.392 1243.58 419.882C1243.72 422.574 1243.6 425.277 1243.63 427.975C1243.64 428.309 1243.93 428.638 1244.09 428.966C1244.38 428.77 1244.72 428.623 1244.94 428.373C1245.65 427.599 1245.79 426.672 1245.78 425.627C1245.73 420.842 1245.75 416.058 1245.76 411.271C1245.76 410.214 1245.66 409.329 1244.23 409.823C1244.21 409.826 1244.05 409.6 1244.08 409.516C1244.45 408.242 1243.92 407.799 1242.69 407.947C1242.39 407.983 1242.09 407.896 1241.79 407.872C1241.04 407.808 1240.28 407.784 1239.54 407.673C1239.11 407.61 1238.69 407.408 1238.27 407.27C1238.57 407.141 1238.87 406.916 1239.18 406.9C1240.13 406.851 1241.09 406.816 1242.04 406.898C1243.35 407.013 1244.67 407.167 1245.96 407.447C1246.76 407.619 1247.4 408.028 1247.39 409.121C1247.34 414.532 1247.42 419.945 1247.34 425.356C1247.29 428.668 1244.45 431.435 1241.28 431.353C1239.26 431.302 1237.13 432.148 1235.23 431.748C1231.23 430.911 1227.18 431.329 1223.19 430.79C1221.86 430.61 1220.5 430.637 1219.16 430.498C1215.95 430.164 1212.76 429.758 1209.55 429.445C1207.86 429.282 1206.15 429.258 1204.44 429.165C1201.26 428.987 1198.07 428.815 1194.89 428.623C1193.64 428.547 1191.73 426.735 1191.64 425.476C1191.35 421.52 1190.94 417.561 1190.89 413.601C1190.86 411.346 1191.31 409.133 1192.94 407.206C1194.23 405.68 1195.74 405.211 1197.51 405.008C1197.82 404.973 1198.14 405.009 1198.45 405.002C1198.77 404.993 1199.08 404.972 1199.4 404.957C1199.14 405.101 1198.88 405.257 1198.61 405.387C1197.57 405.89 1196.51 406.347 1195.49 406.906C1195.2 407.068 1194.95 407.489 1194.89 407.829C1194.86 408.007 1195.26 408.417 1195.51 408.462C1197.1 408.745 1198.67 409.166 1200.06 407.745C1201.24 406.536 1201.73 404.848 1201.02 403.274C1200.5 402.154 1200.25 401.003 1200.9 399.912C1201.15 399.495 1201.82 399.342 1202.27 399.033C1204.15 397.758 1206.58 397.669 1208.35 398.829ZM1192.98 409.299C1192.8 409.591 1192.47 409.877 1192.46 410.175C1192.41 411.888 1192.37 413.604 1192.45 415.314C1192.58 418.328 1192.83 421.336 1192.96 424.347C1193.04 426.139 1193.83 427.241 1195.59 427.542C1197.48 427.864 1199.38 428.321 1201.28 428.306C1204.54 428.282 1207.68 429.038 1210.88 429.387C1214.35 429.767 1217.86 429.821 1221.36 429.956C1223.16 430.029 1224.96 429.935 1226.76 429.977C1229.22 430.035 1231.68 430.146 1234.14 430.242C1234.35 430.251 1234.55 430.348 1234.76 430.357C1235.99 430.414 1237.22 430.492 1238.45 430.474C1238.66 430.471 1238.86 430.041 1239.06 429.809C1238.84 429.682 1238.64 429.469 1238.42 429.448C1237.12 429.327 1235.75 429.478 1234.52 429.125C1229.69 427.734 1224.68 428.228 1219.78 427.608C1217.8 427.361 1215.74 427.936 1213.74 427.78C1209.94 427.481 1206.16 426.985 1202.38 426.455C1200.57 426.199 1198.79 425.675 1196.86 425.136C1196.28 424.44 1195.4 423.823 1195.18 423.025C1194.77 421.553 1194.71 419.978 1194.59 418.437C1194.37 415.655 1194.25 412.861 1194 410.082C1193.97 409.792 1193.33 409.558 1192.98 409.299ZM1197.1 409.555C1195.82 409.783 1195.51 410.563 1195.64 411.722C1195.76 412.797 1195.87 413.881 1195.91 414.962C1196.02 417.609 1196.07 420.255 1196.2 422.899C1196.24 423.751 1196.55 424.446 1197.58 424.615C1199.49 424.925 1201.38 425.428 1203.3 425.648C1206.44 426.009 1209.59 426.253 1212.74 426.47C1217.22 426.777 1221.71 427.018 1226.2 427.283C1226.47 427.298 1226.74 427.262 1227 427.289C1230.69 427.641 1234.38 427.996 1238.07 428.364C1238.53 428.409 1238.99 428.502 1239.44 428.614C1241.42 429.113 1242.57 428.264 1242.53 426.247C1242.51 425.166 1242.33 424.088 1242.28 423.004C1242.17 420.361 1242.09 417.714 1242.01 415.068C1241.92 412.162 1240.7 411.542 1238.17 411.473C1237.35 411.448 1236.63 411.891 1236.66 412.882C1236.69 413.83 1236.94 414.779 1236.89 415.721C1236.78 418.199 1236.62 420.677 1236.35 423.143C1236.24 424.082 1236.04 425.305 1235.41 425.816C1234.75 426.343 1233.7 427.099 1232.6 426.473C1231.64 425.937 1231.31 425.055 1231.28 423.995C1231.21 421.288 1231.11 418.581 1231.02 415.607C1231.11 414.929 1231.18 414.246 1231.29 413.571C1231.58 411.927 1230.76 410.943 1229.13 410.901C1226.98 410.846 1224.83 410.759 1222.68 410.633C1220.91 410.527 1220.47 410.843 1220.59 412.56C1220.69 414.056 1220.96 415.54 1221.1 417.034C1221.23 418.47 1221.4 419.915 1221.33 421.348C1221.29 422.185 1221.02 423.104 1220.05 423.534C1218.5 424.224 1216.56 423.727 1215.8 422.227C1215.18 420.993 1214.8 419.524 1214.73 418.139C1214.62 415.95 1214.88 413.743 1214.93 411.545C1214.96 410.353 1214.43 409.985 1213.28 410.289C1213.03 410.356 1212.75 410.416 1212.51 410.362C1211 410.024 1209.51 409.558 1207.99 409.356C1207.49 409.29 1206.48 409.838 1206.44 410.193C1206.27 411.692 1206.08 413.294 1206.43 414.73C1207.09 417.461 1206.38 419.87 1205.26 422.243C1205.13 422.52 1204.47 422.547 1204.06 422.691C1204.21 422.468 1204.38 422.255 1204.51 422.023C1204.61 421.848 1204.72 421.652 1204.75 421.457C1205.03 419.602 1205.36 417.75 1205.54 415.887C1205.65 414.785 1204.88 414.14 1203.71 414.131C1202.73 414.122 1201.44 415.176 1201.57 416.016C1201.85 417.85 1202.24 419.668 1202.6 421.487C1202.68 421.905 1202.82 422.312 1202.93 422.721C1202.48 422.414 1201.97 422.164 1201.59 421.788C1201.31 421.511 1201.07 421.077 1201.03 420.692C1200.89 419.304 1200.78 417.91 1200.75 416.513C1200.71 414.592 1200.76 412.668 1200.72 410.747C1200.72 410.44 1200.56 410.073 1200.35 409.847C1199.37 408.778 1198.23 409.35 1197.1 409.555ZM1234.06 414.179C1233.55 414.237 1232.85 414.7 1232.68 415.149C1232.39 415.929 1232.43 416.838 1232.36 417.696C1232.26 419.177 1232.21 420.665 1232.08 422.143C1231.96 423.504 1232.09 424.793 1233.3 425.615C1233.62 425.834 1234.44 425.783 1234.7 425.527C1235.06 425.154 1235.12 424.477 1235.31 423.661C1235.4 421.017 1235.56 418.371 1235.53 415.73C1235.52 415.019 1235.06 414.062 1234.06 414.179ZM1296.37 334.949C1297.76 334.96 1299.16 335.081 1300.54 335.218C1301.36 335.298 1301.69 335.831 1301.78 336.661C1301.93 337.972 1301.45 339.076 1300.93 340.212C1300.23 341.752 1299.59 343.325 1298.93 344.885C1298.88 344.999 1298.85 345.12 1298.81 345.237C1299.46 345.383 1300.11 345.655 1300.75 345.628C1301.14 345.612 1301.7 345.22 1301.86 344.855C1302.54 343.297 1303.1 341.685 1303.72 340.101C1303.81 339.871 1304.08 339.71 1304.16 339.48C1304.99 337.157 1306.79 336.771 1308.98 336.777C1311.18 336.783 1312.74 337.966 1313.64 339.591C1314.52 341.182 1314.73 343.161 1315.14 344.991C1315.49 346.518 1315.8 348.066 1315.94 349.621C1316.17 352.208 1315.16 354.487 1313.95 356.703C1313.13 358.191 1312.09 359.671 1311.77 361.279C1311.43 362.94 1311.08 364.665 1311.59 366.521C1312.21 368.729 1312.21 371.107 1312.47 373.412C1312.5 373.632 1312.56 373.903 1312.47 374.076C1310.96 376.86 1312.39 379.633 1312.5 382.406C1312.52 382.781 1312.81 382.935 1312.16 383.025C1310.48 383.255 1308.89 383.611 1307.12 383.355C1305.84 383.171 1304.44 383.885 1303.03 384.265C1301.76 385.133 1300.7 387.805 1301.27 388.933C1301.46 389.315 1302.13 389.649 1302.59 389.667C1304.6 389.747 1306.61 389.673 1308.62 389.713C1309.61 389.733 1310.62 389.79 1311.58 390.016C1311.94 390.102 1312.39 390.689 1312.43 391.085C1312.52 391.913 1312.8 392.93 1311.77 393.442C1311.37 393.64 1310.88 393.694 1310.42 393.719C1308.24 393.837 1307.15 394.883 1306.85 397.192C1306.67 398.609 1306.46 400.024 1306.36 401.448C1306.35 401.627 1306.95 401.93 1307.31 402.027C1307.69 402.129 1308.11 402.039 1308.51 402.052C1311.33 402.138 1314.16 402.186 1316.97 402.333C1319.06 402.441 1321.12 404.713 1321.54 406.786C1321.8 408.079 1321.57 409.476 1321.53 410.825C1321.5 411.515 1321.32 412.201 1321.36 412.882C1321.37 413.132 1321.78 413.52 1322.06 413.568C1323.9 413.887 1325.78 414.044 1327.61 414.426C1329.15 414.745 1330.62 415.345 1332.15 415.73C1334.14 416.227 1336.14 416.748 1338.16 417.058C1341.67 417.597 1345.21 417.919 1348.71 418.47C1349.57 418.602 1350.33 419.28 1351.14 419.707C1351.04 419.819 1350.97 419.984 1350.85 420.029C1349.11 420.668 1347.37 421.336 1345.6 421.905C1342.65 422.851 1339.58 422.962 1336.52 423.329C1332.62 423.796 1328.7 424.392 1324.8 424.007C1317.19 423.257 1309.58 423.766 1301.98 423.489C1297.65 423.332 1293.34 422.872 1289.03 422.435C1285.54 422.08 1282.05 421.685 1278.6 421.059C1276.76 420.722 1274.99 419.906 1273.21 419.22C1270.64 418.22 1268.1 417.109 1265.53 416.106C1264.56 415.73 1263.47 415.655 1262.55 415.209C1260.61 414.276 1260.66 412.999 1262.1 411.5C1263.98 409.543 1266.28 409.169 1268.74 409.031C1268.96 409.019 1269.2 408.98 1269.41 409.04C1270.26 409.284 1270.5 409.004 1270.43 408.137C1270.32 406.817 1270.45 405.473 1270.27 404.165C1270.17 403.4 1269.77 402.633 1269.35 401.958C1268.26 400.184 1266.83 398.595 1266.53 396.417C1266.49 396.166 1266.42 395.92 1266.39 395.669C1266.21 393.685 1265.89 391.701 1265.89 389.718C1265.9 387.645 1266.11 385.557 1266.41 383.502C1266.86 380.446 1267.41 377.402 1268.01 374.372C1268.98 369.463 1270.41 364.689 1272.57 360.163C1273.16 358.925 1273.98 357.8 1274.64 356.592C1275.75 354.553 1276.58 352.295 1277.98 350.489C1279.41 348.656 1280.2 346.179 1282.58 345.179C1283.6 344.747 1284.72 344.044 1285.72 344.147C1287.67 344.346 1287.84 343.075 1288.08 341.851C1288.88 337.7 1292.15 334.915 1296.37 334.949ZM1217.49 417.889C1216.6 417.871 1216.15 418.223 1216.27 419.192C1216.33 419.71 1216.12 420.273 1216.25 420.764C1216.42 421.442 1216.62 422.393 1217.11 422.643C1217.78 422.983 1218.84 423.034 1219.52 422.736C1220.38 422.363 1220.64 419.867 1220 418.693C1219.56 417.877 1218.65 417.768 1217.49 417.889ZM1282.5 347.14C1281.38 348.489 1280.19 349.815 1279.28 351.309C1277.87 353.651 1276.68 356.131 1275.38 358.539C1274.92 359.383 1274.27 360.14 1273.91 361.02C1272.55 364.358 1270.92 367.59 1270.38 371.238C1269.91 374.402 1269.14 377.521 1268.54 380.667C1268.23 382.337 1267.91 384.015 1267.76 385.703C1267.63 387.076 1267.59 388.492 1267.78 389.849C1268.09 392.012 1268.73 394.127 1269.04 396.289C1269.46 399.194 1270.73 401.334 1273.65 402.202C1274.97 402.593 1276.54 401.87 1277.68 403.116C1277.77 403.218 1278 403.2 1278.16 403.239C1277.97 403.29 1277.76 403.301 1277.6 403.399C1276.32 404.178 1275.01 404.01 1273.63 403.7C1272.97 403.552 1271.9 403.283 1272.01 404.688C1272.12 405.963 1271.93 407.333 1272.34 408.498C1273.38 411.506 1275.14 414.029 1278.63 414.366C1282.11 414.7 1285.62 414.83 1289.12 414.923C1297.17 415.134 1305.26 414.423 1313.28 415.522C1315.37 415.808 1317.49 415.363 1319.54 416.01C1319.68 416.055 1319.81 416.118 1319.95 416.17C1319.83 416.296 1319.72 416.507 1319.57 416.534C1318.44 416.736 1317.31 417.034 1316.18 417.058C1313.01 417.13 1309.84 417.091 1306.67 417.073C1306.25 417.07 1305.84 416.889 1305.42 416.865C1303.69 416.766 1301.92 416.462 1300.23 416.678C1298.35 416.919 1296.57 417.031 1294.71 416.642C1293.27 416.341 1291.77 416.278 1290.29 416.311C1288.89 416.341 1287.48 416.865 1286.1 416.769C1283.15 416.564 1280.21 416.212 1277.3 415.706C1274.91 415.29 1272.93 414.134 1271.67 411.855C1271.34 411.262 1270.39 410.84 1269.66 410.696C1268.89 410.542 1268.01 410.696 1267.24 410.94C1266.15 411.289 1265.07 411.756 1264.08 412.337C1263.53 412.656 1263.82 413.926 1264.41 414.122C1265.83 414.592 1267.27 414.989 1268.68 415.48C1270.66 416.179 1272.73 416.748 1274.58 417.708C1277.33 419.135 1280.29 419.394 1283.25 419.759C1285.81 420.075 1288.39 420.297 1290.95 420.574C1294.2 420.927 1297.44 421.345 1300.69 421.628C1302.88 421.818 1305.08 421.911 1307.28 421.896C1311.44 421.872 1315.6 421.692 1319.76 421.658C1326.27 421.607 1332.79 421.845 1339.26 420.848C1341.24 420.541 1343.23 420.313 1345.22 420.02C1345.39 419.996 1345.53 419.759 1345.69 419.62C1345.53 419.578 1345.37 419.512 1345.2 419.506C1342.83 419.409 1340.45 419.322 1338.08 419.232C1337.33 419.201 1336.53 419.337 1335.85 419.114C1333.33 418.304 1330.88 417.287 1328.35 416.513C1325.98 415.784 1323.59 414.911 1321.04 415.877C1320.11 416.233 1319.79 415.673 1319.72 414.857C1319.69 414.619 1319.75 414.372 1319.71 414.14C1319.54 413.273 1319.25 412.415 1319.2 411.542C1319.11 410.115 1319.18 408.681 1319.18 407.249C1319.17 406.038 1318.8 405.058 1317.49 404.742C1316.6 404.524 1315.68 404.25 1314.77 404.22C1310.57 404.081 1306.36 404.023 1302.15 403.928C1298.48 403.845 1294.81 403.751 1291.14 403.661C1290.46 403.644 1289.66 403.895 1289.43 402.859C1289.18 401.7 1290.22 401.864 1290.77 401.522C1290.86 401.461 1291.04 401.551 1291.16 401.507C1292.12 401.146 1292.4 400.803 1292.23 399.483C1291.83 396.488 1289.56 393.635 1291.3 390.429C1291.41 390.227 1291.43 389.975 1291.49 389.747C1291.79 389.84 1292.16 389.854 1292.36 390.048C1292.55 390.236 1292.68 390.628 1292.63 390.899C1292.53 391.547 1292.06 392.231 1292.18 392.805C1292.7 395.211 1293.34 397.59 1294 399.962C1294.28 400.97 1294.85 401.916 1295.99 402.026C1298.63 402.281 1301.29 402.417 1303.94 402.578C1304.36 402.604 1304.8 402.508 1305.23 402.468C1304.95 402.094 1304.69 401.715 1304.4 401.348C1304.29 401.207 1304.15 401.092 1304.03 400.966C1301.26 398.224 1299.76 394.936 1299.9 391.008C1299.96 389.512 1300.21 388.019 1300.43 386.533C1300.66 384.939 1300.72 383.265 1301.29 381.79C1301.84 380.359 1301.58 378.821 1302.48 377.389C1303.55 375.677 1303.88 373.51 1304.74 371.636C1305.57 369.81 1306.67 368.104 1307.65 366.48C1306.71 369.036 1305.77 371.594 1304.82 374.147C1304.43 375.211 1304.95 376.092 1306.13 376.269C1306.53 376.328 1306.94 376.313 1307.34 376.273C1309.54 376.051 1311.29 374.847 1310.86 372.477C1310.55 370.741 1310.28 368.979 1309.74 367.313C1309.5 366.6 1308.87 365.533 1307.65 366.211C1308.95 364.11 1310.15 361.943 1311.56 359.925C1313.19 357.593 1314.27 355.136 1314.08 352.243C1314.01 351.209 1313.78 350.482 1312.34 350.446C1310.09 350.389 1308.67 351.696 1307.21 352.99C1304.11 355.761 1302.9 359.788 1300.69 363.158C1299.25 365.343 1299.34 368.291 1297.21 370.126C1297.15 370.175 1297.13 370.272 1297.1 370.346C1297.04 370.252 1296.94 370.153 1296.94 370.064C1297 369.332 1296.99 368.578 1297.17 367.876C1298.21 363.847 1300.38 360.325 1302.4 356.763C1304.32 353.373 1306.82 350.47 1310.55 348.893C1310.83 348.772 1311.1 348.604 1311.37 348.459C1311.06 348.336 1310.77 348.142 1310.45 348.103C1308.11 347.813 1305.77 347.477 1303.41 347.302C1299.02 346.976 1294.62 346.745 1290.22 346.482C1288.51 346.381 1286.78 346.448 1285.11 346.162C1283.93 345.959 1283.16 346.353 1282.5 347.14ZM1217.24 409.871C1216.77 410.015 1216.07 410.539 1216.08 410.879C1216.1 412.189 1216.37 413.496 1216.55 415.071C1216.42 416.462 1217.42 416.332 1218.25 416.257C1218.93 416.194 1220.04 416.51 1219.76 415.113C1219.5 413.752 1219.31 412.37 1218.93 411.045C1218.72 410.328 1218.18 409.582 1217.24 409.871ZM1318 412.005C1318.3 412.012 1318.6 412.316 1318.91 412.484C1318.62 412.764 1318.35 413.062 1318.04 413.318C1317.92 413.415 1317.73 413.415 1317.5 413.526C1316.68 413.592 1315.92 413.601 1315.17 413.589C1314.66 413.583 1314.09 413.836 1313.96 412.894C1313.92 412.608 1312.89 412.454 1312.3 412.255C1312.11 412.189 1311.89 412.171 1311.69 412.132C1311.92 412.081 1312.16 411.99 1312.4 411.99C1314.26 411.978 1316.13 411.96 1318 412.005ZM1233.31 411.184C1233.08 411.205 1232.86 411.307 1232.63 411.373C1232.76 411.756 1232.9 412.138 1233.16 412.653C1233.36 412.939 1233.57 413.472 1233.74 413.46C1234.41 413.409 1235.08 413.207 1235.73 412.996C1235.81 412.972 1235.84 412.496 1235.74 412.31C1235.23 411.328 1234.33 411.09 1233.31 411.184ZM1202.04 410.088C1201.85 410.268 1201.98 410.925 1202.1 411.319C1202.23 411.747 1202.53 412.123 1202.89 412.653C1203.92 413.321 1204.58 413.165 1204.99 412.153C1205.64 410.575 1205.28 409.94 1203.65 409.359C1202.79 409.055 1202.45 409.714 1202.04 410.088ZM1232.37 404.394C1232.15 404.422 1231.83 405.001 1231.85 405.301C1231.96 406.523 1232.31 407.733 1232.33 408.949C1232.35 410.202 1233.27 410.295 1233.99 410.316C1234.71 410.337 1235.48 409.934 1235.31 408.627C1235.31 407.826 1235.06 406.904 1235.37 406.257C1235.79 405.389 1235.57 404.603 1235 404.396C1234.22 404.111 1233.24 404.28 1232.37 404.394ZM1315.76 407.622C1316.14 408.043 1316.45 408.395 1316.76 408.751C1316.33 408.934 1315.9 409.263 1315.47 409.275C1311.09 409.404 1306.7 409.461 1302.32 409.576C1300.75 409.615 1299.18 409.78 1297.61 409.817C1296.98 409.832 1296.33 409.717 1295.73 409.531C1295.32 409.407 1294.99 409.049 1294.62 408.796C1295.08 408.606 1295.53 408.263 1295.99 408.251C1298.27 408.194 1300.55 408.257 1302.82 408.218C1306.36 408.155 1309.89 408.064 1313.43 407.941C1314.18 407.914 1314.94 407.688 1315.76 407.622ZM1203 402.404C1202.58 402.841 1202.39 403.13 1202.35 403.656C1202.26 404.777 1202.17 405.896 1202.08 407.285C1202.3 407.685 1202.43 408.203 1202.76 408.447C1203.1 408.694 1203.65 408.781 1204.08 408.727C1204.42 408.681 1204.96 408.341 1204.99 408.082C1205.16 406.572 1205.28 405.046 1205.26 403.526C1205.26 402.948 1205.01 402.143 1204.6 401.861C1204.19 401.585 1203.58 401.808 1203 402.404ZM1228.39 406.354C1228.48 406.376 1228.57 406.511 1228.59 406.609C1228.61 406.669 1228.49 406.826 1228.43 406.825C1226.34 406.808 1224.26 406.777 1222.11 406.681C1222.52 406.491 1223 406.374 1223.48 406.245C1225.13 405.799 1226.76 405.936 1228.39 406.354ZM1208.68 405.292C1209.7 405.302 1210.72 405.345 1211.73 405.428C1211.96 405.446 1212.15 405.691 1212.38 405.78C1212.59 405.861 1212.82 405.871 1213.04 405.912C1212.81 406.057 1212.56 406.339 1212.35 406.322C1211.24 406.238 1210.15 406.077 1208.98 405.876C1208.7 405.778 1208.5 405.747 1208.29 405.716C1208.42 405.568 1208.55 405.291 1208.68 405.292ZM1234 401.69C1233.63 401.703 1233.27 401.831 1232.9 401.909C1233.07 402.313 1233.14 402.945 1233.43 403.079C1234.14 403.398 1234.94 403.482 1235.98 403.661L1236.06 403.431C1236.08 403.393 1236.09 403.356 1236.11 403.319C1236.29 402.957 1236.47 402.598 1236.65 402.238C1236.23 402.086 1235.83 401.884 1235.41 401.795C1234.95 401.7 1234.47 401.672 1234 401.69ZM1207.04 399.366C1205.57 399.403 1204.1 399.396 1202.64 399.515C1202.35 399.538 1202.1 400.043 1201.83 400.326C1202.28 400.542 1202.71 400.781 1203.17 400.968C1203.43 401.078 1203.73 401.154 1204.02 401.163L1205.11 401.201C1206.03 401.231 1206.94 401.25 1207.85 401.187C1208.11 401.169 1208.33 400.526 1208.57 400.171C1208.15 399.903 1207.73 399.634 1207.04 399.366ZM1302.26 393.508C1302.13 393.493 1301.81 394.071 1301.78 394.396C1301.71 395.145 1301.57 395.973 1301.81 396.644C1302.09 397.441 1302.74 398.11 1303.25 398.819C1303.28 398.861 1303.61 398.782 1303.62 398.73C1303.82 397.473 1304.03 396.215 1304.14 394.949C1304.16 394.694 1303.81 394.404 1303.77 393.997C1303.27 393.818 1302.77 393.569 1302.26 393.508ZM1139.59 393.335C1139.59 393.335 1148.59 393.27 1161.7 393.348C1165.52 393.372 1169.69 393.432 1174.09 393.488C1182.15 393.594 1190.98 393.754 1199.85 393.877L1202.98 393.919C1206.44 393.962 1209.9 394 1213.3 394.024C1218.38 394.059 1223.34 394.067 1228.04 394.081C1246.14 394.133 1260.33 394.149 1262.22 394.151L1262.44 394.151C1262.69 394.154 1262.89 394.358 1262.89 394.609C1262.89 394.857 1262.68 395.059 1262.43 395.059C1262.43 395.059 1247.5 394.867 1228.04 394.66C1225.06 394.629 1221.98 394.593 1218.83 394.563L1217.71 394.537C1221.52 394.618 1225.32 394.714 1229.12 394.801C1233.1 394.893 1237.12 394.685 1241.06 395.143C1246.26 395.749 1251.46 395.483 1256.65 395.607C1256.88 395.612 1257.13 395.537 1257.32 395.621C1257.86 395.863 1258.37 396.167 1258.89 396.446C1258.36 396.524 1257.83 396.681 1257.3 396.667C1255.02 396.61 1252.73 396.502 1250.31 396.413C1248.17 396.413 1246.16 396.482 1244.15 396.395C1241.81 396.293 1239.48 395.944 1237.14 395.906C1234.59 395.864 1232.03 396.169 1229.48 396.119C1224.82 396.028 1220.16 395.785 1215.5 395.609C1215.09 395.593 1214.66 395.643 1214.26 395.568C1214.11 395.54 1213.86 395.159 1213.9 395.097C1214.04 394.873 1214.28 394.569 1214.5 394.558C1214.74 394.546 1214.98 394.537 1215.22 394.531C1214.58 394.526 1213.94 394.521 1213.3 394.517C1210.86 394.502 1208.39 394.493 1205.91 394.488C1205.94 394.515 1205.97 394.54 1206 394.563C1205.79 394.642 1205.58 394.754 1205.37 394.795C1204.99 394.865 1204.61 394.891 1204.16 395.003C1203.65 395.07 1203.2 395.089 1202.76 395.062C1202.55 395.049 1202.34 394.948 1202.13 394.887C1202.22 394.772 1202.3 394.623 1202.38 394.482C1193.71 394.477 1185.01 394.513 1176.96 394.517L1170.09 394.517C1167.15 394.516 1164.34 394.511 1161.7 394.49C1148.58 394.391 1139.58 394.205 1139.58 394.205C1139.35 394.205 1139.15 394.008 1139.15 393.766C1139.15 393.526 1139.35 393.332 1139.59 393.335ZM1313.98 394.52C1313.98 394.52 1325.07 394.471 1341.24 394.571C1345.95 394.598 1351.09 394.665 1356.51 394.73C1367.62 394.862 1379.92 395.064 1392.13 395.204C1396.4 395.252 1400.66 395.298 1404.85 395.328C1411.12 395.371 1417.24 395.384 1423.03 395.406C1445.34 395.489 1462.83 395.527 1465.17 395.532L1465.44 395.533C1465.69 395.535 1465.89 395.737 1465.89 395.988C1465.89 396.238 1465.68 396.44 1465.43 396.438C1465.43 396.438 1447.02 396.225 1423.03 395.988C1417.23 395.929 1411.12 395.861 1404.85 395.818C1400.66 395.791 1396.4 395.778 1392.13 395.77C1379.91 395.743 1367.61 395.778 1356.5 395.759C1351.08 395.748 1345.94 395.745 1341.24 395.71C1325.39 395.594 1314.42 395.398 1313.99 395.39L1313.97 395.39C1313.74 395.39 1313.54 395.193 1313.54 394.953C1313.54 394.711 1313.74 394.517 1313.98 394.52ZM1341.44 392.672C1347.26 392.7 1353.07 392.841 1358.88 392.921C1366.08 393.019 1373.28 393.176 1380.47 393.161C1384.3 393.153 1388.12 392.709 1391.95 392.685C1397.09 392.652 1402.24 392.824 1407.38 392.926C1411.05 392.999 1414.72 393.142 1418.39 393.173C1420.09 393.188 1421.8 392.926 1423.5 392.941C1427.08 392.971 1430.66 393.095 1434.24 393.193C1437.15 393.273 1440.06 393.394 1442.97 393.452C1445.04 393.493 1447.11 393.425 1449.18 393.468C1451.73 393.521 1454.29 393.623 1456.84 393.757C1457.05 393.768 1457.4 394.188 1457.39 394.413C1457.39 394.636 1457.02 395.044 1456.81 395.042C1452.16 394.989 1447.51 394.904 1442.86 394.793C1441.73 394.765 1440.61 394.577 1439.48 394.542C1435.9 394.429 1432.32 394.28 1428.74 394.285C1424.67 394.289 1420.6 394.515 1416.53 394.503C1414.5 394.498 1412.48 394.12 1410.45 394.02C1409.47 393.972 1408.47 394.252 1407.48 394.253C1395.07 394.271 1382.66 394.298 1370.24 394.254C1362.02 394.224 1353.79 394.086 1345.44 393.997C1342.53 393.997 1339.76 393.927 1337 394.016C1334.12 394.109 1331.25 394.467 1328.38 394.495C1326.35 394.515 1324.33 394.067 1322.3 394.026C1320.15 393.983 1318 394.205 1315.85 394.245C1315.28 394.256 1314.7 394.022 1314.12 393.901C1314.63 393.664 1315.14 393.452 1315.63 393.186C1316.73 392.581 1317.85 392.808 1319.05 392.854C1323.51 393.027 1327.98 392.955 1332.44 392.911C1335.44 392.882 1338.44 392.658 1341.44 392.672ZM1246.95 379.781C1247.09 380.073 1247.31 380.353 1247.35 380.659C1247.56 382.055 1247.72 383.46 1247.9 384.86C1247.98 385.406 1247.97 385.997 1248.19 386.482C1248.64 387.478 1249.54 386.898 1250.26 386.941C1251.99 387.045 1253.72 387.107 1255.44 387.33C1255.86 387.384 1256.3 387.932 1256.56 388.359C1256.79 388.729 1256.77 389.248 1256.86 389.701C1256.46 389.474 1256.05 389.273 1255.68 389.008C1255.53 388.899 1255.52 388.563 1255.37 388.488C1255.01 388.307 1254.59 388.217 1254.2 388.091C1254.24 388.437 1254.2 388.827 1254.35 389.121C1254.83 390.086 1255.44 390.992 1255.9 391.967C1256.22 392.657 1256.82 392.894 1257.48 393.124C1258.06 392.618 1258.31 392.174 1257.89 391.476C1257.72 391.191 1257.86 390.715 1257.86 390.325C1257.99 390.386 1258.15 390.418 1258.25 390.512C1258.56 390.811 1259.05 391.098 1259.11 391.453C1259.26 392.266 1259.54 393.239 1258.48 393.73C1257.43 394.212 1256.4 394.202 1255.48 393.403C1254.67 392.691 1253.87 391.952 1253.05 391.244C1252.32 390.611 1251.54 390.736 1250.68 391.046C1249.71 391.398 1248.68 391.597 1247.66 391.828C1247.6 391.842 1247.4 391.563 1247.37 391.401C1246.82 388.274 1246.31 385.144 1246.55 381.945C1246.57 381.631 1246.26 381.272 1246.33 380.989C1246.43 380.561 1246.73 380.181 1246.95 379.781ZM1215.41 220.376C1215.36 220.561 1215.37 220.815 1215.25 220.919C1213.53 222.412 1212.85 224.462 1212.35 226.562C1212.09 227.687 1212.04 228.879 1212.01 230.043C1211.96 232.204 1212.03 234.369 1211.99 236.53C1211.93 239.268 1211.79 242.003 1211.73 244.74C1211.62 250.16 1211.59 255.582 1211.45 261.001C1211.32 265.849 1211.12 270.696 1210.92 275.542C1210.77 279.226 1210.59 282.91 1210.38 286.592C1210.14 290.732 1209.86 294.87 1209.58 299.008C1209.32 302.834 1209.03 306.658 1208.79 310.485C1208.72 311.704 1208.85 312.936 1208.77 314.153C1208.44 318.704 1208.06 323.251 1207.71 327.801C1207.59 329.372 1207.46 330.947 1207.45 332.521C1207.43 342.004 1207.44 351.488 1207.44 360.972C1207.44 362.642 1207.41 364.314 1207.45 365.983C1207.49 367.334 1207.62 368.683 1207.71 370.033C1207.72 370.345 1207.7 370.659 1207.71 370.972C1207.71 371.309 1207.73 371.646 1207.74 371.983C1208 371.627 1208.47 371.278 1208.48 370.911C1208.7 365.351 1208.86 359.788 1209.05 354.225C1209.12 352.099 1209.26 349.975 1209.31 347.849C1209.35 345.776 1209.29 343.702 1209.32 341.629C1209.39 336.701 1209.46 331.772 1209.59 326.844C1209.73 321.952 1209.94 317.061 1210.12 312.17C1210.21 309.881 1210.27 307.59 1210.39 305.303C1210.55 302.334 1210.78 299.368 1210.91 296.398C1211.05 293.396 1211.07 290.388 1211.2 287.385C1211.34 284.325 1211.54 281.269 1211.73 278.212C1211.9 275.512 1212.1 272.815 1212.26 270.114C1212.46 266.745 1212.61 263.372 1212.8 260.003C1212.96 257.302 1213.15 254.603 1213.34 251.905C1213.6 248.258 1213.93 244.615 1214.12 240.964C1214.29 237.785 1214.3 234.597 1214.41 231.414C1214.46 230.242 1214.58 229.072 1214.68 227.902C1214.69 227.784 1214.76 227.671 1214.81 227.556C1214.85 227.672 1214.91 227.784 1214.94 227.904C1215.04 228.313 1215.2 228.724 1215.2 229.134C1215.22 235.397 1215.34 241.663 1215.16 247.921C1215.06 251.717 1214.49 255.499 1214.14 259.288C1213.95 261.405 1213.84 263.53 1213.59 265.64C1213.31 268.012 1212.98 270.38 1212.56 272.731C1212.34 274.02 1213.39 276.845 1214.76 277.679C1217.74 279.49 1220.96 280.094 1224.43 279.415C1226.48 279.015 1228.58 278.626 1230.65 278.631C1232.2 278.635 1233.75 279.275 1235.29 279.641C1235.38 279.661 1235.45 279.757 1235.53 279.817C1235.45 279.846 1235.37 279.89 1235.3 279.901C1234.62 279.995 1233.94 280.158 1233.26 280.161C1227.1 280.181 1220.94 280.172 1214.78 280.173C1213.1 280.173 1212.87 280.468 1212.79 282.072C1212.56 286.66 1212.28 291.246 1211.98 295.829C1211.91 296.926 1211.64 298.009 1211.46 299.232C1211.46 302.364 1211.53 305.363 1211.44 308.358C1211.34 311.775 1211.11 315.189 1210.92 318.604C1210.84 320.088 1210.68 321.571 1210.67 323.056C1210.56 332.279 1210.52 341.502 1210.37 350.724C1210.31 354.365 1209.94 358.001 1209.88 361.642C1209.83 364.599 1210.05 367.561 1210.11 370.522C1210.15 372.37 1210.09 374.221 1210.13 376.07C1210.19 378.717 1210.26 381.366 1210.41 384.01C1210.48 385.328 1210.86 386.633 1210.89 387.949C1210.93 389.565 1210.75 391.185 1210.65 392.803C1210.64 392.936 1210.46 393.182 1210.44 393.174C1210.05 393.029 1209.48 392.947 1209.35 392.665C1208.82 391.504 1208.19 390.311 1208.02 389.072C1207.54 385.614 1207.25 382.129 1206.91 378.652C1206.78 377.35 1206.72 376.043 1206.64 374.737C1206.45 371.77 1206.27 368.802 1206.12 365.833C1206.09 365.428 1206.38 365.008 1206.35 364.604C1206.2 361.947 1206.01 359.294 1205.84 356.639C1205.81 356.327 1205.83 356.012 1205.83 355.699C1205.83 351.449 1205.8 347.2 1205.84 342.95C1205.87 340.213 1205.67 337.413 1206.17 334.754C1207.15 329.592 1207.05 324.408 1207.18 319.215C1207.31 314.501 1207.28 309.762 1207.78 305.086C1208.24 300.854 1208.49 296.642 1208.55 292.394C1208.6 289.728 1209.14 287.074 1209.29 284.405C1209.48 281.048 1209.18 277.637 1209.64 274.326C1211.04 264.295 1210.07 254.23 1210.39 244.187C1210.48 241.406 1210.67 238.624 1210.63 235.844C1210.59 233.277 1210.33 230.71 1210.11 228.149C1209.95 226.377 1210.88 224.989 1211.6 223.531C1212.3 222.129 1213.66 221.415 1214.89 220.581C1215.04 220.477 1215.24 220.443 1215.41 220.376ZM1238.88 368.247C1240.07 368.325 1241.23 368.611 1242.41 368.756C1244.75 369.044 1247.09 369.327 1249.43 369.551C1250.17 369.622 1251.24 369.419 1251.3 370.289C1251.36 371.109 1250.97 372.262 1250.36 372.763C1249.33 373.608 1247.99 374.097 1246.75 374.657C1245.24 375.336 1244.82 376.283 1244.91 377.905C1245.01 379.51 1244.7 381.135 1244.71 382.75C1244.72 384.857 1244.87 386.964 1244.95 389.071C1244.96 389.245 1244.93 389.574 1244.93 389.574C1243.36 389.514 1244.15 391.184 1243.37 391.7C1243.23 391.795 1243.14 391.976 1243.03 392.117C1242.96 391.942 1242.83 391.77 1242.82 391.59C1242.71 390.199 1242.63 388.806 1242.54 387.414C1242.43 385.521 1242.65 383.54 1242.16 381.756C1241.31 378.702 1240.03 375.771 1238.86 372.722C1238.38 371.797 1237.91 370.963 1237.58 370.076C1237.16 368.947 1237.7 368.168 1238.88 368.247ZM1307.94 391.32C1306.82 391.392 1305.7 391.491 1304.31 391.581C1304.13 391.581 1303.95 391.568 1303.77 391.584C1303.56 391.602 1303.35 391.643 1303.14 391.675C1303.36 391.733 1303.57 391.829 1303.79 391.843C1305.41 391.944 1307.02 392.036 1308.64 392.11C1308.93 392.123 1309.23 392.033 1309.52 391.992C1309.25 391.802 1308.99 391.572 1308.7 391.435C1308.47 391.333 1308.19 391.304 1307.94 391.32ZM1208.52 384.724C1208.43 385.087 1208.25 385.452 1208.27 385.81C1208.29 386.444 1208.41 387.075 1208.51 387.705C1208.69 388.79 1208.87 389.874 1209.06 390.956C1209.07 391.02 1209.23 391.059 1209.32 391.109C1209.49 390.604 1209.85 390.089 1209.82 389.596C1209.74 388.239 1209.49 386.892 1209.18 385.406L1208.52 384.724ZM1432.33 358.596C1432.56 358.761 1432.79 359.159 1432.76 359.431C1432.45 362.318 1433.3 365.256 1432.3 368.13C1432.07 368.788 1432.57 369.664 1432.49 370.415C1432.27 372.626 1431.93 374.826 1431.64 377.029C1431.58 377.451 1431.45 377.873 1431.46 378.293C1431.53 381.745 1431.63 385.197 1431.72 388.648C1431.72 388.827 1431.77 389.032 1431.71 389.181C1431.46 389.722 1431.12 390.716 1430.91 390.691C1430.15 390.598 1430.04 389.881 1430.1 389.163C1430.14 388.585 1430.11 388.001 1430.11 387.285C1429.81 385.71 1429.44 384.343 1429.75 382.77C1429.97 381.648 1429.89 380.374 1429.46 379.068C1429.02 377.739 1429.67 376.048 1429.86 374.518C1429.92 374.057 1430.08 373.606 1430.1 373.145C1430.29 369.105 1430.43 365.061 1430.68 361.025C1430.73 360.291 1431.2 359.566 1431.57 358.883C1431.67 358.69 1432.2 358.503 1432.33 358.596ZM1417.18 106.214C1418.72 107.018 1420.11 108.069 1421.68 108.568C1423.97 109.294 1425.77 110.711 1427.35 112.287C1429.18 114.104 1430.83 116.2 1432.15 118.418C1433.63 120.915 1434.69 123.674 1434.93 126.647C1435.05 128.218 1435.2 129.795 1435.18 131.368C1435.15 134.406 1433.93 137.07 1432.31 139.559C1431.93 140.134 1431.12 140.527 1430.97 141.123C1430.62 142.417 1431.08 143.208 1433.65 143.799C1433.81 143.836 1433.97 143.887 1434.13 143.931C1433.97 143.976 1433.8 144.075 1433.65 144.058C1432.16 143.895 1430.67 143.712 1429.18 143.539C1429.05 143.523 1428.91 143.509 1428.78 143.533C1428.16 143.649 1427.54 143.777 1426.92 143.901C1427.25 144.339 1427.55 144.802 1427.91 145.209C1428.87 146.293 1429.87 147.351 1430.84 148.429C1430.94 148.551 1430.98 148.74 1431.05 148.898C1430.89 148.835 1430.72 148.799 1430.59 148.704C1429.22 147.699 1427.86 146.671 1426.48 145.681C1426.16 145.451 1425.75 145.343 1425.38 145.178C1425.35 145.523 1425.24 145.885 1425.3 146.208C1425.41 146.731 1425.54 147.298 1425.84 147.724C1428.1 150.974 1429.39 154.661 1430.57 158.379C1431.74 162.061 1432.85 165.768 1433.82 169.509C1434.24 171.118 1434.27 172.836 1434.38 174.511C1434.6 177.611 1434.7 180.72 1434.94 183.817C1435.49 190.856 1434.36 197.606 1431.67 204.12C1430.22 207.635 1428.87 211.189 1427.41 214.701C1427.02 215.655 1426.31 216.482 1425.91 217.435C1425.58 218.232 1424.89 219.032 1425.53 220.031C1425.64 220.211 1425.5 220.63 1425.37 220.878C1423.42 224.509 1424.1 227.825 1426.45 231.02C1428.38 233.658 1430.64 235.833 1433.46 237.59C1436.73 239.63 1439.68 242.189 1442.83 244.441C1444.95 245.955 1447.26 247.219 1449.32 248.798C1450.9 250.001 1452.23 251.516 1453.66 252.904C1455.09 254.29 1456.5 255.693 1457.92 257.085C1460.62 259.725 1463.37 262.312 1465.99 265.021C1467.46 266.54 1468.74 268.249 1470.08 269.895C1470.42 270.313 1470.66 270.81 1470.94 271.28C1472.42 273.839 1474.17 276.285 1475.33 278.987C1477.2 283.363 1479.19 287.743 1479.93 292.508C1480.3 294.886 1480.8 297.311 1480.67 299.683C1480.51 302.443 1480.72 305.272 1479.73 307.986C1479.33 309.087 1479.62 310.421 1479.38 311.609C1479 313.576 1478.56 315.546 1477.94 317.447C1477.31 319.367 1476.54 321.26 1475.63 323.062C1474.56 325.187 1473.02 326.956 1471.19 328.534C1469.75 329.777 1468.65 331.406 1467.34 332.812C1466.9 333.287 1466.25 333.563 1465.76 334C1463.86 335.685 1462.12 337.572 1460.09 339.061C1457.14 341.215 1454.02 343.127 1450.93 345.07C1447.53 347.204 1444.1 349.283 1440.65 351.332C1439.19 352.199 1437.68 352.989 1436.14 353.704C1433.45 354.955 1430.74 356.192 1427.99 357.304C1425.19 358.432 1422.34 359.411 1419.5 360.437C1417.04 361.326 1414.61 362.226 1412.42 363.745C1410.37 365.163 1407.93 365.669 1405.49 366.081C1403.03 366.498 1400.58 366.95 1398.12 367.383C1395.5 367.845 1392.87 368.274 1390.26 368.772C1388.45 369.116 1386.66 369.573 1384.85 369.938C1383.52 370.207 1382.19 370.489 1380.85 370.621C1379.11 370.792 1377.35 370.855 1375.6 370.902C1371.53 371.014 1367.46 371.083 1363.39 371.179C1359.37 371.274 1355.49 370.482 1351.63 369.502C1350.54 369.228 1349.36 369.283 1348.22 369.345C1347.9 369.362 1347.39 369.908 1347.35 370.261C1347.09 372.235 1347.04 374.236 1346.76 376.205C1346.22 379.972 1345.79 383.737 1345.95 387.552C1345.96 387.807 1345.72 388.073 1345.59 388.334C1345.45 388.097 1345.22 387.871 1345.18 387.619C1344.97 386.087 1344.71 384.552 1344.65 383.011C1344.57 380.583 1344.47 378.135 1344.68 375.722C1344.85 373.726 1345.46 371.767 1345.88 369.794C1346.05 369.022 1346.32 368.549 1345.07 368.135C1342.77 367.378 1340.6 366.175 1338.49 364.967C1337.23 364.25 1336.17 363.191 1335.05 362.244C1333.03 360.522 1331.32 358.487 1329.59 356.481C1328.54 355.268 1327.92 353.841 1328.01 352.171C1328.05 351.368 1328.02 350.56 1328.02 349.755C1328.02 346.82 1330.84 344.729 1333.68 345.573C1336.25 346.339 1338.74 347.306 1340.76 349.171C1341.54 349.888 1342.18 350.767 1343.01 351.404C1345.52 353.323 1348.27 354.794 1351.43 355.333C1353.19 355.634 1354.95 355.977 1356.72 356.116C1358.45 356.251 1360.12 356.113 1361.4 354.567C1362.07 353.762 1361.68 353.383 1361.14 352.968C1359.42 351.655 1357.65 350.413 1355.96 349.062C1355.49 348.687 1355.06 348.074 1354.93 347.497C1354.32 344.906 1353.99 342.24 1355.46 339.851C1356.51 338.159 1358.37 337.778 1360.27 337.603C1363.05 337.349 1365.59 338.259 1368.03 339.277C1371.92 340.897 1375.8 342.465 1380.09 342.13C1381.75 342.001 1383.4 341.342 1385 340.774C1387.36 339.937 1389.29 338.354 1391.33 336.943C1394.58 334.702 1396.79 331.401 1399.81 328.989C1401.8 327.406 1403.97 325.904 1406.3 324.964C1408.31 324.156 1410.54 324.62 1412.26 326.31L1412.83 326.868C1413.9 327.922 1414.93 329.005 1415.36 330.526C1415.55 331.196 1415.86 331.364 1416.49 331.005C1418.51 329.851 1420.75 328.974 1422.53 327.529C1425.88 324.819 1428.86 321.686 1430.76 317.734C1431.43 316.326 1431.68 314.721 1432.27 313.262C1433.69 309.706 1433.69 305.991 1433.57 302.27C1433.52 300.729 1433.17 299.199 1433.1 297.658C1433.07 297.195 1433.58 296.727 1433.76 296.23C1433.94 295.719 1434.01 295.17 1434.13 294.638C1434.16 294.474 1434.21 294.312 1434.24 294.149C1434.38 294.303 1434.62 294.443 1434.65 294.614C1434.94 296.557 1435.31 298.498 1435.44 300.454C1435.63 303.318 1435.8 306.199 1435.7 309.064C1435.55 313.77 1434.21 318.078 1431.61 322.132C1428.54 326.917 1424.14 330.079 1419.63 333.187C1419 333.62 1418.2 333.845 1417.45 334.047C1415.93 334.456 1417.22 335.361 1417.15 335.982C1417.06 336.704 1417.54 337.485 1417.74 338.249C1419.06 343.397 1419.74 348.616 1419.38 353.937C1419.28 355.301 1419.04 356.655 1418.85 358.01C1418.72 358.937 1419.47 358.862 1419.86 358.721C1422.35 357.83 1424.83 356.913 1427.26 355.888C1430.34 354.591 1433.47 353.363 1436.41 351.777C1440.19 349.734 1443.8 347.388 1447.46 345.132C1451.49 342.652 1455.54 340.2 1459.47 337.58C1460.74 336.733 1461.68 335.381 1462.79 334.286C1463.5 333.583 1464.52 333.057 1464.94 332.22C1465.46 331.175 1465.91 329.803 1465.68 328.726C1464.67 324.035 1462.07 320.165 1458.09 317.622C1455.71 316.101 1452.78 315.279 1449.99 314.601C1446.86 313.841 1443.7 312.89 1440.38 313.172C1439.76 313.225 1439.1 313.078 1438.49 312.901C1438.09 312.784 1437.75 312.449 1437.38 312.211C1437.83 311.822 1438.27 311.118 1438.73 311.093C1444.17 310.795 1449.62 310.724 1454.73 312.968L1455.39 313.262C1457.05 314.004 1458.69 314.816 1460.12 316.16C1463.14 319.008 1465.67 322.098 1467.15 326.006C1467.28 326.371 1467.4 326.744 1467.53 327.112C1467.56 326.678 1467.58 326.244 1467.62 325.81C1467.64 325.643 1467.68 325.478 1467.72 325.312C1467.77 325.485 1467.83 325.659 1467.89 325.832C1468.4 327.284 1468.9 327.579 1470.06 326.577C1471.96 324.932 1473.61 323.05 1474.35 320.503C1474.71 319.244 1475.58 318.121 1475.89 316.857C1476.4 314.761 1476.81 312.611 1476.96 310.464C1477.2 307.245 1476.95 303.981 1477.33 300.786C1477.83 296.497 1476.35 292.622 1475.38 288.63C1474.47 284.916 1473.35 281.243 1471.38 277.947C1469.23 274.343 1466.93 270.823 1464.57 267.356C1463.26 265.443 1461.77 263.637 1460.21 261.924C1459.13 260.746 1457.76 259.846 1456.58 258.759C1454.76 257.081 1452.99 255.347 1451.19 253.642C1448.16 250.775 1444.85 248.309 1441.34 246.043C1438.67 244.313 1436.21 242.244 1433.63 240.361C1432.03 239.191 1430.37 238.096 1428.76 236.944C1428.37 236.669 1428.06 236.282 1427.68 236.003C1427.62 235.961 1427.27 236.194 1427.17 236.366C1426.95 236.76 1426.86 237.227 1426.61 237.605C1426.11 238.39 1425.54 239.124 1425.02 239.9C1423.91 241.582 1422.98 243.427 1421.66 244.928C1420.02 246.8 1418.2 248.584 1416.21 250.06C1413.41 252.125 1410.43 253.944 1407.44 255.734C1404.09 257.748 1400.47 259.179 1396.63 260.036C1395.36 260.32 1394.1 260.698 1392.81 260.799C1392.01 260.862 1391.11 260.622 1390.39 260.246C1390.06 260.072 1389.98 259.258 1389.93 258.721C1389.8 257.286 1389.77 255.84 1389.63 254.406C1389.58 253.984 1389.27 253.592 1389.1 253.177C1388.99 252.908 1388.83 252.612 1388.86 252.347C1388.99 251.204 1389.21 250.071 1389.32 248.927C1389.34 248.711 1388.93 248.234 1388.82 248.263C1388.15 248.452 1387.43 248.639 1386.87 249.029C1385.12 250.239 1383.37 251.461 1381.76 252.838C1380.93 253.539 1380.43 254.606 1379.72 255.452C1379.48 255.728 1378.96 256.053 1378.72 255.96C1378.36 255.815 1377.88 255.318 1377.9 254.989C1378 252.51 1378.07 250.011 1378.47 247.573C1378.61 246.722 1378.44 246.663 1377.87 246.625C1376.17 246.51 1374.45 246.285 1372.76 246.386C1370.65 246.511 1368.94 245.491 1367.09 244.839C1366.22 244.535 1365.3 244.251 1364.4 244.234C1362.79 244.202 1361.16 244.307 1359.56 244.484C1356.84 244.784 1354.14 245.203 1351.43 245.537C1346.67 246.125 1342.28 248.019 1337.74 249.372C1336.15 249.845 1334.59 250.393 1333.01 250.913C1332.7 251.016 1332.37 251.1 1332.09 251.271C1330.92 251.997 1330.93 252.282 1331.87 253.308C1334.08 255.695 1336.19 258.169 1337.54 261.154C1338.72 263.751 1339.74 266.426 1339.8 269.34C1339.84 271.1 1339.8 272.86 1339.82 274.62C1339.82 274.771 1339.92 274.921 1339.97 275.072C1340.1 274.946 1340.24 274.833 1340.34 274.692C1340.82 274.041 1341.2 273.288 1341.78 272.768C1342.06 272.522 1342.87 272.524 1343.18 272.758C1343.62 273.096 1344.31 273.512 1343.6 274.408C1341.69 276.81 1339.8 279.241 1338.13 281.803C1337.35 282.981 1336.88 284.457 1336.64 285.861C1336.21 288.407 1336.05 290.999 1335.79 293.573C1335.58 295.656 1336.59 297.415 1337.28 299.262C1337.72 300.424 1337.87 301.75 1338.52 302.76C1339.25 303.887 1339.52 305.426 1341.03 306.016C1341.34 306.138 1341.71 306.888 1341.6 307.151C1341.43 307.554 1340.89 307.985 1340.45 308.056C1338.87 308.309 1338.27 306.96 1337.7 305.95C1335.67 302.31 1333.84 298.487 1333.46 294.32C1333.1 290.351 1332.99 286.259 1335.13 282.571C1335.4 282.101 1335.38 281.652 1334.68 281.799C1333.7 282.004 1332.75 282.327 1331.79 282.587C1329.46 283.217 1327.1 283.747 1324.81 284.492C1322.1 285.372 1319.41 286.352 1316.79 287.446C1314.5 288.397 1312.23 289.437 1310.1 290.688C1308.68 291.519 1307.52 292.79 1306.24 293.863C1306.4 294.042 1306.52 294.34 1306.7 294.379C1307.37 294.522 1308.07 294.51 1308.73 294.681C1311.47 295.394 1312.46 297.654 1313.26 300.026C1313.36 300.327 1313.06 300.744 1313.02 301.115C1312.89 302.418 1313.28 302.724 1314.55 302.402C1315.64 302.124 1316.74 301.722 1317.85 301.679C1322.85 301.483 1327.74 302.044 1332.33 304.225C1333.75 304.9 1335.2 305.521 1336.54 306.333C1338.32 307.413 1338.4 309.662 1336.75 311.012C1333.92 313.323 1330.56 314.409 1327.04 315.064C1324.92 315.459 1322.79 315.998 1320.65 316.097C1317.18 316.259 1313.69 316.269 1310.32 315.095C1309.31 314.741 1308.43 315.438 1308.19 316.541C1307.68 318.836 1305.38 320.669 1303.04 320.718C1300.76 320.765 1298.47 320.88 1296.19 320.987C1295.91 321.001 1295.62 321.119 1295.36 321.252C1292.62 322.684 1289.34 322.237 1287.1 320.135C1286.87 319.913 1286.52 319.64 1286.24 319.66C1284.19 319.808 1283.16 318.279 1281.95 317.081C1281.14 316.288 1280.44 315.394 1279.68 314.562C1277.27 311.945 1275.05 309.252 1274.67 305.49C1274.57 304.511 1274.13 303.569 1273.9 302.598C1273.68 301.697 1273.46 300.787 1273.37 299.868C1272.79 294 1272.46 288.124 1272.52 282.217C1272.57 277.907 1274.64 274.788 1277.75 272.167C1279.32 270.842 1280.83 269.329 1282.63 268.422C1286.31 266.569 1289.99 264.701 1293.98 263.468C1299.58 261.739 1305.08 259.667 1310.57 257.593C1313.73 256.398 1316.76 254.85 1319.89 253.572C1323.18 252.231 1326.51 250.991 1329.84 249.768C1333.57 248.401 1337.29 247.03 1341.06 245.796C1344.1 244.801 1347.17 243.89 1350.28 243.171C1352.12 242.746 1354.05 242.755 1355.95 242.592C1358.19 242.399 1360.44 242.244 1362.69 242.023C1362.84 242.008 1363.11 241.423 1363.06 241.37C1362.55 240.849 1361.99 240.374 1361.42 239.91C1361.23 239.756 1360.92 239.727 1360.78 239.55C1359.68 238.222 1358.58 236.899 1357.56 235.518C1356.5 234.094 1355.46 232.648 1354.53 231.138C1352.74 228.229 1351.13 225.272 1350.46 221.808C1349.97 219.251 1351.01 217.459 1352.2 215.457C1353.21 213.784 1354.33 212.325 1355.94 211.275C1357.85 210.028 1359.82 208.883 1362.25 209.014C1362.83 209.046 1363.42 208.821 1364.01 208.769C1368.58 208.365 1372.9 209.521 1377.19 210.893C1381.38 212.231 1385.58 213.606 1389.86 214.579C1391.64 214.985 1393.65 214.285 1395.56 214.277C1398.45 214.266 1399.12 211.867 1400.27 210.036C1402.73 206.145 1405.16 202.236 1407.44 198.243C1408.06 197.161 1408.24 195.763 1408.37 194.485C1408.58 192.476 1408.53 190.442 1408.68 188.426C1409.04 183.817 1414 180.855 1418.16 182.724C1421.12 184.048 1421.82 186.207 1420.18 189.157C1419.21 190.909 1418.11 192.594 1417.07 194.31C1416.94 194.524 1416.71 194.757 1416.73 194.964C1416.9 197.128 1416.53 199.268 1417.18 201.475C1418.35 205.492 1421.22 208.155 1423.92 211.011C1424.41 211.531 1424.95 212.002 1425.42 212.541C1425.67 212.829 1425.81 213.213 1426 213.553C1426.21 213.103 1426.41 212.649 1426.63 212.204C1428.06 209.312 1428.8 206.205 1429.61 203.1C1430.2 200.822 1431.25 198.664 1431.83 196.383C1432.34 194.326 1432.63 192.183 1432.75 190.062L1432.85 188.346C1433.03 185.198 1433.17 182.038 1432.99 178.905C1432.78 175.3 1432.05 171.722 1431.49 168.141C1430.72 163.214 1428.77 158.638 1427.12 153.979C1426.55 152.352 1425.58 150.862 1424.74 149.333C1423.61 147.251 1422.45 145.18 1421.24 143.138C1421.06 142.82 1420.55 142.708 1420.23 142.447C1419.92 142.193 1419.67 141.871 1419.39 141.579C1419.67 141.334 1419.95 140.888 1420.23 140.883C1421.09 140.867 1421.94 141.081 1422.8 141.095C1423.48 141.107 1424.19 141.047 1424.84 140.862C1426.32 140.445 1427.77 139.952 1429.21 139.451C1430.79 138.905 1431.69 137.665 1432.2 136.178C1433.12 133.491 1433.36 130.742 1432.81 127.915C1432.57 126.683 1432.76 125.366 1432.49 124.145C1431.91 121.517 1430.96 118.975 1429.13 116.97C1427.29 114.951 1425.29 113.049 1423.19 111.309C1422.14 110.44 1420.69 110.045 1419.43 109.436C1419.05 109.257 1418.67 109.104 1418.31 108.894C1417.04 108.14 1415.73 107.686 1414.2 107.791C1412.99 107.873 1411.76 107.485 1410.56 107.585C1405.79 107.982 1401.38 109.285 1397.53 112.358C1394.49 114.78 1392.59 117.879 1391.27 121.414C1390.07 124.625 1392.64 127.255 1395.5 127.379C1398.61 127.514 1401.31 128.572 1403.84 130.242C1405.01 131.009 1406.14 131.816 1407.28 132.617C1407.4 132.698 1407.45 132.864 1407.54 132.99C1407.38 132.973 1407.21 132.999 1407.08 132.933C1405.39 132.057 1403.72 131.142 1402.01 130.288C1399.37 128.965 1396.6 128.036 1393.62 128.26C1390.86 128.467 1388.12 129.14 1385.35 129.252C1381.91 129.39 1378.74 130.515 1375.66 131.775C1372.03 133.257 1368.32 134.797 1365.12 136.993C1361.29 139.618 1358.12 143.126 1355.31 146.899C1354.03 148.63 1353.22 150.562 1352.34 152.512C1350.45 156.702 1348.23 160.736 1346.26 164.891C1344.9 167.765 1343.73 170.73 1342.49 173.661C1342.11 174.574 1341.86 175.563 1341.37 176.414C1340.89 177.259 1341.14 177.34 1341.94 177.367C1345.07 177.473 1347.73 176.097 1350.33 174.645C1353.17 173.057 1356 171.406 1358.66 169.546C1361.57 167.516 1364.29 165.21 1367.1 163.037C1367.64 162.625 1368.19 162.228 1368.79 161.924C1368.94 161.845 1369.53 162.183 1369.52 162.263C1369.36 163.17 1369.24 164.105 1368.91 164.954C1367.73 167.956 1366.48 170.927 1365.27 173.914C1365.18 174.145 1365.18 174.417 1365.14 174.67C1365.38 174.581 1365.63 174.526 1365.83 174.396C1369.09 172.339 1372.41 170.367 1375.58 168.169C1377.32 166.956 1378.81 165.373 1380.4 163.931C1381.79 162.66 1383.1 161.276 1384.57 160.107C1385.01 159.757 1385.89 159.96 1386.57 159.91C1386.52 160.436 1386.49 160.964 1386.43 161.489C1386.26 163.205 1386.09 164.922 1385.89 166.636C1385.64 168.852 1385.35 171.065 1385.1 173.283C1385.05 173.714 1385.13 174.159 1385.15 174.598C1385.52 174.443 1385.91 174.331 1386.24 174.127C1389.44 172.162 1392.7 170.333 1395.61 167.881C1397.78 166.053 1399.1 163.651 1400.9 161.597C1401.41 161.012 1401.65 159.785 1402.81 160.859C1402.85 160.897 1403.02 160.859 1403.08 160.802C1404.43 159.557 1404.08 160.815 1404.12 161.504C1404.21 163.212 1404.42 164.925 1404.35 166.626C1404.26 168.776 1403.86 170.911 1403.74 173.061C1403.6 175.543 1403.62 178.034 1403.6 180.521C1403.6 180.591 1404 180.773 1404.08 180.715C1404.91 180.164 1405.77 179.629 1406.52 178.979C1407.47 178.15 1408.19 178.242 1408.43 179.417C1408.68 180.629 1408.83 181.869 1408.9 183.104C1408.92 183.411 1408.44 183.745 1408.19 184.066C1407.91 183.782 1407.39 183.513 1407.37 183.213C1407.29 181.838 1406.25 181.637 1405.22 182.071C1404.5 182.371 1403.96 183.073 1403.25 183.414C1402.68 183.685 1401.99 183.68 1401.35 183.798C1401.38 183.467 1401.42 183.136 1401.42 182.806C1401.42 182.778 1401.15 182.758 1401.02 182.722C1400.65 182.627 1400.09 182.624 1399.98 182.4C1399.84 182.105 1400.01 181.625 1400.11 181.242C1400.36 180.317 1400.76 179.418 1400.87 178.48C1401.07 176.964 1401.05 175.423 1401.18 173.898C1401.32 172.269 1401.62 170.648 1401.68 169.018C1401.73 167.629 1401.53 166.23 1401.43 164.836C1401.43 164.716 1401.36 164.6 1401.32 164.483C1401.19 164.6 1401.06 164.709 1400.94 164.836C1399.99 165.872 1399.05 166.921 1398.09 167.949C1395.32 170.92 1391.82 172.879 1388.38 174.926C1387.43 175.495 1386.4 176.263 1385.37 176.309C1384.06 176.367 1384.35 177.028 1384.25 177.772C1384.21 178.027 1383.65 178.409 1383.37 178.372C1383.11 178.336 1382.69 177.806 1382.72 177.538C1382.96 175.42 1383.29 173.312 1383.6 171.202C1383.73 170.276 1383.93 169.356 1384.01 168.425C1384.14 166.899 1384.2 165.368 1384.28 163.839C1384.3 163.626 1384.25 163.41 1384.22 163.195C1384.07 163.308 1383.9 163.408 1383.75 163.534C1382.4 164.702 1381.03 165.84 1379.71 167.05C1374.76 171.619 1369.32 175.453 1363.17 178.237C1362.82 178.395 1362.14 178.613 1362.11 178.559C1361.77 177.866 1361.11 176.952 1361.33 176.43C1362.51 173.608 1363.91 170.88 1365.24 168.12C1365.48 167.625 1365.71 167.129 1365.95 166.634C1365.46 166.939 1364.94 167.218 1364.47 167.552C1361.98 169.315 1359.58 171.21 1357 172.829C1354.51 174.393 1351.83 175.654 1349.26 177.096C1347.83 177.897 1346.06 178.384 1345.77 180.392C1345.68 180.972 1345.75 181.573 1345.69 182.158C1345.67 182.342 1345.46 182.508 1345.34 182.681C1345.29 182.51 1345.25 182.327 1345.16 182.17C1344.69 181.285 1344.4 180.107 1343.66 179.61C1342.93 179.123 1341.74 179.219 1340.76 179.27C1339.99 179.31 1339.24 179.679 1338.48 179.883C1338.37 179.913 1338.18 179.875 1338.12 179.796C1338.06 179.724 1338.09 179.532 1338.15 179.431C1339.65 176.761 1340.15 173.702 1341.42 170.946C1342.58 168.429 1343.78 165.929 1345 163.437C1346.11 161.166 1347.28 158.925 1348.38 156.651C1349.64 154.045 1351 151.473 1352.06 148.786C1353.34 145.568 1355.7 143.262 1358.08 140.954L1359.36 139.706C1361.08 138.044 1362.82 136.399 1364.69 134.935C1366.13 133.806 1367.97 133.193 1369.62 132.318C1373.22 130.404 1377.08 129.141 1380.96 128.013C1382.95 127.436 1385.1 127.436 1387.17 127.141C1387.55 127.087 1387.91 126.866 1388.28 126.722C1387.97 126.419 1387.7 125.95 1387.33 125.84C1385.61 125.328 1383.87 124.918 1382.13 124.467C1381.93 124.415 1381.73 124.362 1381.55 124.266C1381.23 124.096 1380.94 123.892 1380.63 123.702C1380.99 123.6 1381.35 123.448 1381.71 123.405C1382.7 123.288 1383.78 123.432 1384.66 123.064C1385.45 122.727 1386.24 121.963 1386.63 121.184C1386.93 120.585 1386.93 120.795 1387.2 121.07C1387.65 121.538 1388.1 122.02 1388.59 122.449C1388.74 122.577 1389.1 122.659 1389.23 122.569C1389.59 122.32 1389.87 121.97 1390.18 121.66C1388.98 120.571 1389.93 119.655 1390.43 118.72C1391.81 116.174 1393.16 113.643 1395.33 111.604C1397.07 109.963 1399.05 108.867 1401.26 108.099C1403.01 107.491 1404.77 106.93 1406.53 106.281C1410.06 106.214 1413.58 106.214 1417.18 106.214ZM1304.17 379.34C1304.62 380.09 1305.09 380.831 1305.57 381.564C1305.76 381.862 1306 382.13 1306.22 382.412C1306.25 382.113 1306.21 381.783 1306.33 381.525C1306.46 381.26 1306.7 381.024 1306.95 380.85C1307.73 380.292 1308.57 379.801 1309.33 379.216C1309.63 378.985 1309.8 378.576 1310.02 378.249C1309.72 378.219 1309.43 378.188 1308.86 378.158C1307.57 378.068 1306.27 377.937 1304.97 377.902C1303.87 377.872 1303.61 378.391 1304.17 379.34ZM1243.19 377.122C1243.06 377.691 1242.93 378.26 1242.94 378.963C1243.01 379.115 1243.07 379.266 1243.14 379.417C1243.3 379.316 1243.61 379.214 1243.61 379.114C1243.61 378.518 1243.54 377.922 1243.47 377.329C1243.46 377.251 1243.29 377.19 1243.19 377.122ZM1239.77 371.481C1240.77 373.122 1241.78 374.759 1242.82 376.375C1242.96 376.589 1243.3 376.672 1243.55 376.816C1243.66 376.587 1243.84 376.366 1243.87 376.128C1244.07 374.457 1244.77 373.339 1246.65 373.301C1247.03 373.293 1247.4 372.968 1248.04 372.789C1248.34 372.663 1248.71 372.608 1248.93 372.396C1249.43 371.924 1249.86 371.373 1250.31 370.855C1249.58 370.762 1248.84 370.63 1248.1 370.585C1247.15 370.527 1246.18 370.611 1245.24 370.503C1243.81 370.34 1242.4 369.95 1240.97 369.871C1239.79 369.806 1239.26 370.65 1239.77 371.481ZM1208.39 373.069C1208.25 373.489 1208.11 373.908 1207.98 374.331C1207.92 374.528 1207.89 374.734 1207.71 375.071C1207.71 375.335 1207.62 375.644 1207.73 375.855C1207.9 376.189 1208.2 376.458 1208.44 376.754C1208.64 376.405 1208.97 376.071 1209.02 375.704C1209.07 375.272 1208.89 374.807 1208.78 374.364C1208.67 373.927 1208.52 373.5 1208.39 373.069ZM1407.74 326.689C1405.88 327.049 1404.25 328.027 1403.03 329.606C1401.77 331.24 1400.61 333.025 1399.07 334.348C1396.76 336.329 1394.21 338.045 1391.67 339.725C1388.79 341.625 1385.61 343.004 1382.33 344.019C1379.37 344.939 1376.36 344.132 1373.42 343.499C1372.08 343.21 1370.75 342.853 1369.44 342.442C1367.58 341.86 1365.62 341.437 1363.96 340.49C1362.89 339.878 1361.99 339.617 1360.85 339.759C1360.2 339.841 1359.45 339.637 1358.89 339.889C1356.52 340.969 1355.4 345.054 1357.12 346.955C1358.62 348.604 1360.43 350.019 1362.29 351.269C1363.89 352.351 1364.7 354.965 1363.63 356.585C1362.15 358.846 1359.76 359.284 1357.4 359.598C1354.73 359.956 1352.13 359.254 1349.65 358.317C1346.19 357.011 1343.32 354.706 1340.66 352.23C1338.76 350.458 1336.79 348.921 1334.18 347.957C1333.51 348.089 1332.85 348.238 1332.18 348.346C1331.91 348.389 1331.62 348.34 1331.34 348.333C1331.52 348.175 1331.68 348.003 1331.87 347.863C1331.99 347.774 1332.15 347.732 1332.29 347.668C1332.12 347.63 1331.88 347.503 1331.81 347.568C1331.15 348.136 1330.37 348.645 1329.95 349.364C1329.67 349.841 1329.69 350.701 1330.55 351.069C1330.76 351.156 1330.89 351.544 1330.96 351.818C1331.84 355.582 1334.31 358.386 1336.86 361.023C1339.24 363.487 1342.35 364.965 1345.6 366.072C1346.23 366.287 1346.87 366.474 1347.52 366.607C1349.38 366.986 1351.24 367.327 1353.1 367.689C1355.98 368.249 1358.77 369.203 1361.79 369.061C1367.83 368.778 1373.88 368.701 1379.92 368.476C1381.68 368.411 1383.47 368.281 1385.19 367.926C1388.58 367.225 1391.92 366.271 1395.32 365.559C1399.93 364.59 1404.58 363.761 1409.2 362.838C1409.59 362.761 1410.26 362.367 1410.23 362.227C1409.88 360.345 1411.53 360.427 1412.42 360.234C1414.82 359.712 1416.31 358.497 1416.72 356.014C1416.91 354.856 1417.35 353.726 1417.44 352.566C1417.56 350.843 1417.63 349.084 1417.42 347.378C1417.18 345.386 1416.57 343.443 1416.18 341.465C1415.45 337.693 1414.75 333.899 1412.92 330.473C1412.32 329.35 1411.41 328.308 1410.42 327.516C1409.72 326.963 1408.57 326.53 1407.74 326.689ZM1349.75 356.034C1349.87 356.161 1350 356.287 1350.39 356.413C1351.27 356.664 1352.13 357.031 1353.02 357.141C1354.63 357.338 1356.26 357.384 1357.88 357.478C1358 357.485 1358.13 357.37 1358.26 357.312C1358.14 357.281 1358.02 357.224 1357.9 357.222C1355.25 357.171 1352.65 356.864 1350.15 355.917C1350.05 355.877 1349.88 355.992 1349.75 356.034ZM1221.67 352.141C1223.06 352.194 1224.45 352.313 1225.83 352.431C1226.07 352.451 1226.3 352.641 1226.54 352.645C1231.56 352.747 1236.58 352.834 1241.74 352.923C1242.69 353.102 1243.5 353.363 1244.33 353.442C1245.89 353.593 1247.47 353.658 1249.04 353.725C1253.47 353.914 1257.9 354.097 1262.34 354.262C1265.29 354.371 1268.25 354.443 1271.2 354.537C1271.37 354.542 1271.53 354.59 1271.7 354.619C1271.53 354.68 1271.37 354.788 1271.2 354.795C1267.26 354.983 1263.32 355.28 1259.38 355.3C1256.33 355.316 1253.28 354.948 1250.22 354.81C1245.61 354.602 1241 354.493 1236.39 354.25C1232.79 354.06 1229.2 353.749 1225.61 353.45C1224.2 353.333 1222.81 353.113 1221.41 352.911C1221.22 352.884 1221.06 352.688 1220.89 352.57C1221.15 352.419 1221.42 352.131 1221.67 352.141ZM1343.98 349.737C1345.44 350.19 1346.86 350.909 1348.35 351.084C1350.47 351.333 1352.64 351.203 1354.78 351.203C1355.49 351.202 1356.19 351.075 1356.9 351.056C1357.18 351.048 1357.47 351.173 1357.76 351.237C1357.49 351.441 1357.24 351.7 1356.93 351.841C1353.75 353.307 1350.48 353.188 1347.04 352.386C1346.54 352.207 1346.13 352.079 1345.8 351.839C1344.99 351.24 1344.21 350.591 1343.42 349.956C1343.38 349.922 1343.38 349.834 1343.36 349.771C1343.57 349.756 1343.8 349.678 1343.98 349.737ZM1253.79 256.187C1254.28 256.427 1254.48 257.538 1254.55 258.276C1254.61 258.818 1254.63 259.51 1253.54 259.554C1251.85 259.621 1252.5 261.081 1252.48 262.011C1252.46 263.224 1252.69 264.44 1252.71 265.657C1252.75 268.162 1252.92 270.689 1252.66 273.166C1252.46 275.006 1252.66 276.644 1253.19 278.386C1253.49 279.349 1253.99 279.401 1254.64 279.341C1255.38 279.273 1256.1 278.992 1256.83 278.839C1257.1 278.782 1257.58 278.729 1257.64 278.848C1257.79 279.116 1257.88 279.676 1257.74 279.791C1257.15 280.254 1256.46 280.939 1255.83 280.916C1253.45 280.83 1252.89 281.953 1252.98 283.922C1253.05 285.708 1253.07 287.505 1252.98 289.289C1252.77 293.135 1252.33 296.937 1251.48 300.725C1250.99 302.91 1251.36 305.298 1251.4 307.593C1251.42 308.81 1251.5 310.034 1251.68 311.237C1251.77 311.832 1251.99 312.512 1252.39 312.936C1253.37 313.99 1254.43 314.923 1255.75 315.652C1260.55 318.307 1263.84 322.195 1265.4 327.619C1266.01 329.763 1266.41 331.898 1266.63 334.069C1266.95 337.396 1265.54 340.332 1264.14 343.218C1262.45 346.693 1259.71 348.989 1256.24 350.701C1252.92 352.339 1249.5 352.831 1245.93 352.613C1244.58 352.531 1243.27 351.851 1241.92 351.66C1239.36 351.298 1237.41 349.763 1235.33 348.484C1234.63 348.058 1233.96 347.506 1233.45 346.875C1230.93 343.755 1228.86 340.334 1228.12 336.354C1227.5 332.983 1227.49 329.523 1228.63 326.214C1229.57 323.517 1231.18 321.192 1233.07 319.065C1234.73 317.196 1236.59 315.476 1238.02 313.451C1238.95 312.145 1239.51 310.452 1239.8 308.853C1240.21 306.644 1240.3 304.362 1240.37 302.106C1240.42 300.492 1240.13 298.87 1240.15 297.253C1240.18 293.844 1240.42 290.434 1240.34 287.03C1240.31 285.56 1239.87 284.02 1239.28 282.664C1238.57 281.071 1238.66 279.554 1239.19 278.064C1239.91 276.088 1240.17 274.097 1240.15 272.012C1240.13 270.171 1240.36 268.328 1240.38 266.486C1240.39 265.406 1240.24 264.321 1240.13 263.242C1239.94 261.515 1239.97 259.829 1241 258.226C1242.56 255.783 1244.8 255.002 1247.48 254.908C1249.72 254.831 1251.83 255.228 1253.79 256.187ZM1242.01 284.2C1241.91 288.949 1241.79 293.697 1241.76 298.446C1241.74 300.287 1242.06 302.136 1241.97 303.968C1241.86 306.146 1241.2 308.319 1241.27 310.477C1241.36 313.152 1240.16 314.986 1238.27 316.499C1235.17 318.989 1232.66 321.96 1230.74 325.436C1230.67 325.559 1230.71 325.748 1230.72 325.906C1230.72 326.363 1230.89 326.882 1230.73 327.268C1229.94 329.17 1228.9 331.02 1229.69 333.182C1230 334.033 1230.49 334.821 1230.79 335.677C1230.92 336.051 1230.93 336.757 1230.72 336.901C1230.18 337.277 1230.1 337.508 1230.46 338.081C1230.76 338.557 1230.79 339.194 1231.03 339.718C1232.69 343.336 1234.9 346.465 1238.56 348.372C1243.45 350.92 1248.5 350.7 1253.58 349.221C1257.84 347.979 1260.7 344.964 1262.91 340.977C1264.28 337.925 1265.07 334.836 1264.58 331.391C1264.2 328.762 1263.21 326.392 1261.75 324.389C1260.09 322.111 1257.81 320.277 1255.78 318.279C1254.82 317.332 1253.87 316.334 1252.77 315.566C1251.24 314.495 1250.18 313.088 1249.53 311.412C1248.38 308.452 1248.64 305.272 1249.35 302.39C1250.34 298.37 1250.06 294.316 1250.54 290.3C1250.78 288.227 1250.58 286.1 1250.58 283.998C1250.58 282.777 1249.42 281.939 1248.24 282.075C1247.12 282.206 1245.94 282.218 1244.83 282.026C1243.15 281.735 1242.04 282.486 1242.01 284.2ZM1258.89 346.615L1258.37 347.283C1258.58 347.228 1258.84 347.238 1258.99 347.093C1259.09 347.003 1259.02 346.675 1258.89 346.615ZM1303.65 345.528C1303.68 345.691 1303.94 345.915 1304.1 345.927C1305.75 346.044 1307.44 345.941 1309.05 346.26C1310.82 346.613 1311.3 345.736 1311.67 344.198C1312.01 343.583 1312.03 343.105 1311.19 342.903C1309.9 342.593 1308.63 342.221 1307.33 341.922C1304.94 341.368 1303.16 343.114 1303.65 345.528ZM1358.31 318.621C1360.62 318.743 1362.89 319.157 1365.1 320.289C1368.53 322.043 1369.42 325.854 1368.22 328.745C1367.65 330.118 1368.01 331.876 1367.94 333.595C1367.73 335.289 1367.82 336.789 1368.82 338.111C1368.85 338.155 1368.72 338.319 1368.67 338.427C1367.93 338.06 1367.18 337.701 1366.45 337.318C1366.37 337.277 1366.34 337.089 1366.34 336.971C1366.42 333.521 1366.53 330.07 1366.6 326.619C1366.64 324.886 1366.61 324.867 1364.99 325.278C1363.34 325.698 1361.71 326.201 1360.04 326.555C1359.81 326.605 1359.44 326.008 1359.14 325.71C1359.51 325.385 1359.84 324.937 1360.28 324.76C1361.35 324.327 1362.49 324.071 1363.56 323.634C1363.93 323.483 1364.46 322.938 1364.4 322.695C1364.26 322.078 1363.89 321.477 1363.48 320.977C1363.24 320.69 1362.76 320.483 1362.37 320.461C1358.74 320.252 1355.14 319.425 1351.45 320.13C1350.1 320.388 1348.66 320.085 1347.27 320.19C1344.27 320.414 1341.27 320.697 1338.43 321.785C1338.25 321.851 1338.1 321.953 1337.93 322.039C1338.08 322.148 1338.22 322.306 1338.38 322.358C1340.08 322.892 1341.76 323.533 1343.5 323.897C1345.46 324.308 1347.47 324.459 1349.45 324.742C1349.88 324.803 1350.3 324.916 1350.7 325.067C1350.82 325.113 1350.97 325.407 1350.93 325.517C1350.78 325.899 1350.5 326.585 1350.36 326.565C1347.54 326.185 1344.73 325.748 1341.94 325.254C1341.17 325.119 1340.46 324.73 1339.71 324.508C1338.72 324.215 1337.96 324.762 1337.93 325.75C1337.75 331.444 1337.58 337.138 1337.4 342.831C1337.39 343.144 1337.35 343.464 1337.4 343.769C1337.6 344.947 1337.23 345.387 1336.03 345.275C1335.93 345.266 1335.79 344.879 1335.8 344.672C1335.87 342.115 1336.11 339.553 1336.02 337.004C1335.91 333.979 1335.36 330.968 1335.31 327.945C1335.27 325.638 1335.28 323.213 1336.78 321.205C1337.78 319.867 1339.46 319.958 1340.83 319.71C1343.66 319.193 1346.57 319.026 1349.45 318.85C1352.4 318.669 1355.37 318.464 1358.31 318.621ZM1289.72 343.276C1289.5 344.082 1289.95 344.771 1290.75 344.838C1292.37 344.974 1294.01 344.895 1295.64 344.974C1296.68 345.024 1297.2 344.467 1297.75 343.685C1298.91 342.032 1298.79 340.802 1297.07 339.5C1296.63 339.5 1296.15 339.609 1295.74 339.483C1292.46 338.47 1290.45 340.658 1289.72 343.276ZM1307.8 338.444C1307.36 338.661 1306.18 338.464 1306.85 339.903C1308.57 340.468 1310.3 341.041 1312.03 341.566C1312.11 341.591 1312.45 341.184 1312.46 340.976C1312.48 339.405 1309.35 337.686 1307.8 338.444ZM1298.85 336.462C1297.24 336.61 1295.62 336.758 1294.01 336.964C1293.83 336.985 1293.71 337.377 1293.56 337.598C1293.79 337.695 1294.01 337.858 1294.24 337.876C1294.77 337.919 1295.35 337.757 1295.83 337.916C1296.96 338.29 1298.77 337.577 1298.88 339.706C1299.04 339.681 1299.28 339.71 1299.34 339.62C1299.59 339.245 1299.94 338.845 1299.98 338.431C1300.02 337.813 1299.84 337.176 1299.48 336.547C1299.27 336.517 1299.06 336.443 1298.85 336.462ZM1355.26 324.177C1355.74 324.55 1356.38 324.709 1356.92 325.009C1358.5 325.891 1358.63 326.882 1357.29 328.158C1357.33 327.352 1357.61 326.44 1356.46 326.384C1355.79 326.351 1355.08 326.628 1354.44 326.893C1354.06 327.049 1353.79 327.456 1353.47 327.75C1353.92 327.998 1354.36 328.423 1354.82 328.454C1355.62 328.508 1356.42 328.315 1357.23 328.225C1356.1 329.566 1355.05 329.874 1353.56 329.299C1352.67 328.956 1351.36 325.903 1351.89 325.198C1352.29 324.665 1352.93 324.305 1353.48 323.886C1354.17 323.351 1354.68 323.723 1355.26 324.177ZM1290.63 267.117C1288.47 267.898 1286.27 268.831 1284.4 270.145C1281.87 271.926 1279.59 274.088 1277.25 276.153C1275.3 277.886 1274.69 280.3 1274.75 282.733C1274.84 287.412 1275.34 292.082 1275.46 296.761C1275.51 299.153 1275.88 301.418 1276.54 303.706C1277.29 306.331 1277.85 308.986 1279.77 311.097C1280.48 311.878 1281.06 312.787 1281.66 313.665C1282.27 314.567 1282.79 315.531 1283.44 316.403C1283.6 316.615 1284.1 316.571 1284.44 316.645C1284.46 316.396 1284.43 316.132 1284.51 315.899C1284.73 315.186 1284.99 314.485 1285.23 313.779C1285.47 314.317 1285.71 314.853 1285.95 315.394C1286.05 315.621 1286.15 315.849 1286.21 316.088C1287.23 319.928 1291.35 321.313 1294.38 320.087C1296.22 319.345 1296.54 317.911 1294.78 316.531C1294.24 316.104 1293.72 315.648 1293.05 315.071C1292.83 314.76 1292.49 314.473 1292.42 314.131C1292.34 313.755 1292.4 313.223 1292.63 312.962C1292.77 312.802 1293.47 312.883 1293.7 313.095C1295.09 314.397 1296.38 315.81 1297.78 317.104L1298.06 317.366C1299.43 318.629 1300.83 319.832 1303.01 319.397C1304.27 319.145 1306.05 318.155 1306.31 317.234C1306.54 316.448 1305.65 314.05 1304.78 313.767C1302.93 313.159 1301.54 311.906 1300.02 310.794C1297.75 309.133 1297.28 305.996 1299.07 303.898C1299.27 303.651 1299.26 303.222 1299.39 302.892C1299.44 302.747 1299.59 302.636 1299.69 302.509C1299.76 302.625 1299.88 302.745 1299.87 302.857C1299.8 304.117 1299.76 305.385 1299.6 306.635C1299.47 307.586 1300.06 309.104 1300.94 309.547C1302.07 310.114 1302.96 310.97 1304.51 310.89C1305.79 310.823 1307.13 311.774 1308.45 312.237C1309.93 312.756 1311.43 313.251 1312.93 313.712C1313.19 313.791 1313.51 313.645 1313.81 313.603C1313.75 313.45 1313.74 313.25 1313.63 313.152C1311.65 311.33 1311.96 308.918 1311.97 306.601C1311.97 306.203 1312.26 305.792 1312.47 305.412C1312.6 305.169 1312.82 304.973 1312.99 304.756C1312.67 304.632 1312.32 304.359 1312.03 304.416C1311.43 304.534 1310.88 304.867 1310.29 305.042C1307.66 305.817 1305.02 306.571 1302.38 307.305C1302.29 307.331 1302.02 307.074 1302 306.928C1301.83 305.595 1302.83 305.213 1303.79 304.879C1305.74 304.202 1307.9 304.166 1309.61 302.746C1310.84 301.73 1311.67 300.189 1311.3 298.994C1310.71 297.089 1309.63 296.29 1307.67 296.276C1306.16 296.265 1304.66 296.212 1303.15 296.201C1301.51 296.188 1299.85 296.089 1298.22 296.238C1296.85 296.363 1295.52 296.804 1294.16 297.071C1293.95 297.113 1293.71 296.977 1293.48 296.923C1294.02 296.35 1294.51 295.356 1295.12 295.275C1298.51 294.825 1301.74 293.905 1304.85 292.509C1305.11 292.392 1305.34 292.136 1305.5 291.887C1305.9 291.254 1306.09 290.287 1306.64 289.987C1309.88 288.241 1313.21 286.658 1316.49 284.994C1316.98 284.749 1317.7 284.434 1317.78 284.038C1318.1 282.576 1318.44 281.046 1318.32 279.58C1318.12 277.31 1316.83 275.43 1315.18 273.939C1313.31 272.248 1311.17 270.875 1308.73 270.135C1305.67 269.204 1302.59 268.317 1299.47 267.592C1297.81 267.205 1296.06 267.145 1294.34 267.035C1293.1 266.956 1291.74 266.718 1290.63 267.117ZM1313.71 310.759C1314.99 312.931 1316.95 314.225 1319.85 314.266C1321.15 314.176 1322.46 314.181 1323.75 313.977C1326.12 313.601 1328.48 313.144 1330.82 312.626C1331.39 312.499 1331.86 312.132 1331.18 311.345C1329.72 309.674 1329.78 307.898 1331.15 306.146C1331.33 305.906 1331.36 305.544 1331.47 305.239C1331.17 305.206 1330.87 305.144 1330.57 305.143C1328.19 305.135 1325.81 305.207 1323.43 305.117C1321.41 305.04 1319.39 304.673 1317.36 304.626C1313.99 304.547 1312 307.858 1313.71 310.759ZM1368.72 309.034C1370.6 309.657 1372.47 310.301 1374.29 311.076C1375.04 311.398 1375.65 312.057 1376.31 312.59C1376.76 312.952 1377.16 313.361 1377.59 313.749C1377.13 313.891 1376.68 314.107 1376.21 314.154C1375.67 314.208 1375.1 314.213 1374.59 314.059C1372.3 313.357 1370.01 312.649 1367.77 311.829C1366.33 311.304 1365.47 312.04 1364.54 312.908C1363.82 313.569 1362.89 313.82 1362.21 312.909C1361.62 312.101 1362.21 311.445 1362.92 310.843C1364.18 309.834 1365.42 308.998 1367 308.908C1367.57 308.876 1368.19 308.858 1368.72 309.034ZM1333.62 306.855C1333.31 306.998 1333.01 307.14 1332.7 307.282C1331.59 307.802 1331.26 308.54 1331.72 309.515C1332.14 310.419 1333.95 311.324 1334.65 310.98C1335.74 310.443 1336.28 309.103 1335.79 307.689C1334.85 307.559 1335.37 308.534 1334.95 308.788C1334.57 309.022 1334.17 309.216 1333.77 309.428C1333.73 309.028 1333.67 308.629 1333.65 308.228C1333.62 307.772 1333.63 307.313 1333.62 306.855ZM1324.51 254.121C1319.59 256.044 1314.8 258.284 1309.92 260.289C1307.21 261.401 1304.39 262.252 1301.64 263.271C1300.36 263.743 1299.12 264.299 1297.89 264.891C1297.51 265.073 1297.25 265.5 1296.94 265.815C1297.39 266.037 1297.81 266.351 1298.28 266.465C1300.27 266.95 1302.28 267.382 1304.28 267.822C1308.83 268.822 1312.94 270.54 1316.11 274.212C1318.14 276.572 1319.68 279.002 1319.43 282.236C1319.36 283.202 1319.79 283.593 1320.66 283.378C1321.87 283.083 1323.05 282.684 1324.24 282.318C1326.26 281.697 1328.28 281.067 1330.56 280.441C1331.94 279.993 1333.39 279.692 1334.68 279.069C1337.7 277.616 1337.76 278.186 1337.66 275.01C1337.56 271.905 1337.77 268.815 1337.2 265.691C1336.55 262.13 1334.99 259.124 1332.62 256.58C1331.57 255.45 1329.93 254.714 1328.42 254.223C1327.21 253.832 1325.64 253.678 1324.51 254.121ZM1250.87 278.816C1248.37 278.86 1245.87 278.818 1243.37 278.842C1242.96 278.846 1242.55 279.009 1241.87 279.099C1241.38 279.504 1240.9 279.91 1240.41 280.316C1240.81 280.536 1241.2 280.921 1241.61 280.951C1244.7 281.178 1247.8 281.332 1250.89 281.517C1251.93 281.578 1251.91 280.859 1251.92 280.159C1251.93 279.435 1251.91 278.797 1250.87 278.816ZM1242.8 259.817C1241.52 260.44 1242.12 261.792 1242.01 263.126C1241.92 264.699 1241.77 266.271 1241.75 267.845C1241.71 270.663 1241.69 273.483 1241.78 276.298C1241.8 276.793 1242.34 277.663 1242.69 277.693C1245.14 277.902 1247.61 277.979 1250.08 277.974C1250.42 277.973 1251.52 277.929 1250.9 276.746C1250.46 275.926 1250.36 274.866 1250.34 273.908C1250.27 270.822 1250.27 267.734 1250.33 264.649C1250.35 263.557 1250.48 262.424 1250.82 261.396C1251.06 260.671 1250.96 259.848 1250.19 259.783C1248.58 259.649 1246.96 259.546 1245.34 259.52C1244.49 259.506 1243.53 259.464 1242.8 259.817ZM1424.94 232.976C1424.75 233.131 1424.52 233.26 1424.37 233.446C1423.67 234.311 1423.05 235.261 1422.27 236.054C1419.5 238.88 1416.84 241.839 1413.28 243.765C1411.05 244.97 1408.94 246.397 1406.26 247.018C1404.05 247.6 1401.85 248.302 1399.61 248.729C1397.38 249.153 1395.11 249.314 1392.85 249.559C1392.21 249.629 1391.23 249.598 1391.57 250.47C1392.43 252.641 1392.25 254.814 1392.06 257.025C1391.93 258.633 1392.35 259.122 1393.88 258.664C1396.96 257.738 1400.14 256.92 1403.02 255.533C1407.63 253.322 1411.96 250.585 1416.04 247.457C1418.3 245.719 1420.31 243.825 1421.49 241.166C1421.78 240.522 1422.06 239.799 1422.55 239.337C1424.22 237.767 1425.43 236.059 1425.02 233.613C1424.98 233.402 1424.96 233.189 1424.94 232.976ZM1251.67 256.538C1249.25 256.565 1246.82 256.493 1244.4 256.585C1243.75 256.61 1243.04 256.989 1242.5 257.393C1242.22 257.603 1241.63 258.427 1242.76 258.496C1244.51 258.604 1246.28 258.633 1248.3 258.696C1249.95 258.643 1251.59 258.631 1253.23 258.506C1253.6 258.478 1253.99 258.1 1254.24 257.783C1254.32 257.687 1253.99 257.24 1253.81 256.976C1253.25 256.126 1252.43 256.53 1251.67 256.538ZM1380.81 247.824C1380.54 248.647 1380.24 249.462 1380.02 250.298C1379.95 250.561 1380.09 250.88 1380.13 251.174C1380.43 251.053 1380.78 250.989 1381.03 250.799C1382.02 250.053 1382.98 249.265 1383.95 248.495C1384.49 248.069 1385.03 247.65 1385.57 247.227C1385.03 247.023 1384.48 246.84 1383.96 246.611C1382.49 245.972 1381.6 246.281 1380.81 247.824ZM1414.97 200.446C1414.88 200.806 1414.85 201.205 1414.68 201.518C1414.33 202.133 1413.72 202.647 1413.52 203.296C1412.13 207.955 1410.83 212.639 1409.47 217.31C1408.78 219.702 1408.02 222.074 1407.34 224.471C1406.29 228.19 1405.22 231.913 1403.02 235.148C1401.83 236.909 1401.18 239.034 1399.14 240.251C1395.8 242.244 1392.73 244.781 1388.54 244.755C1388.11 244.752 1387.67 245.007 1387.24 245.142C1387.62 245.343 1388 245.535 1388.37 245.748C1388.49 245.813 1388.61 245.916 1388.65 246.031C1389.26 247.563 1390.63 247.775 1391.94 247.654C1394.48 247.418 1397.01 247.025 1399.53 246.604C1403.53 245.935 1407.33 244.701 1410.89 242.684C1415.22 240.241 1418.82 237.016 1422.07 233.059C1422.42 232.532 1422.84 232.037 1423.09 231.468C1423.28 231.036 1423.26 230.51 1423.33 230.026C1423.01 230.008 1422.69 229.991 1422.37 229.971C1421.46 229.913 1421.11 229.323 1421.29 228.543C1421.68 226.825 1421.92 225.121 1421.54 223.371C1421.5 223.179 1421.58 222.944 1421.65 222.75C1422.23 221.202 1422.77 219.637 1423.42 218.122C1424.15 216.44 1424.83 214.789 1423.4 213.156C1422.42 212.035 1421.43 210.921 1420.36 209.886C1417.96 207.565 1416.27 204.837 1415.37 201.623C1415.26 201.225 1415.11 200.838 1414.97 200.446ZM1363.26 210.551C1359.68 210.883 1356.72 212.032 1354.6 214.823C1352.81 217.176 1351.78 219.769 1352.89 222.949C1354.75 228.261 1357.38 233.055 1361.12 237.256C1361.66 237.869 1362.02 238.659 1362.44 239.378C1362.63 239.7 1362.75 240.059 1362.95 240.376C1362.98 240.425 1363.34 240.372 1363.37 240.3C1363.5 239.951 1363.72 239.521 1363.61 239.225C1362.59 236.344 1361.51 233.48 1360.44 230.616C1358.56 225.604 1357.08 220.516 1357.5 215.069C1357.51 214.857 1357.48 214.54 1357.6 214.456C1358.28 213.982 1359 213.559 1359.71 213.132C1359.8 213.075 1359.95 213.099 1360.07 213.086C1360.07 213.239 1360.15 213.441 1360.08 213.537C1358.28 216.026 1358.79 218.637 1359.64 221.276C1360.75 224.793 1361.87 228.312 1362.97 231.834C1363.75 234.33 1364.52 236.827 1365.26 239.336C1365.69 240.806 1366.28 242.028 1367.62 243.01C1370.81 245.346 1374.35 244.803 1377.85 244.577C1379.96 244.44 1382.05 243.978 1384.42 243.663C1384.97 243.573 1385.51 243.497 1386.05 243.392C1388.16 242.982 1390.33 242.756 1392.35 242.099C1395.14 241.195 1397.51 239.462 1399.67 237.48C1400.01 237.165 1400.21 236.635 1400.35 236.167C1401.17 233.567 1400.15 231.11 1399.67 228.628C1399.2 226.208 1398.46 223.84 1397.97 221.425C1397.29 218.088 1394.89 216.035 1391.64 216.243C1389.82 216.36 1387.9 216.378 1386.15 215.954C1382.61 215.099 1379.13 213.961 1375.65 212.847C1371.62 211.552 1367.69 210.139 1363.26 210.551ZM1413.42 184.256C1411.54 185.012 1410.89 186.722 1410.61 188.379C1410.18 190.945 1410.28 193.595 1409.98 196.189C1409.79 197.848 1409.3 199.473 1408.94 201.381C1408.31 202.371 1407.67 203.355 1407.05 204.353C1404.65 208.205 1402.2 212.033 1398.88 215.158C1397.74 216.226 1397.65 217.118 1398.12 218.522C1398.93 220.883 1399.44 223.342 1400.1 225.752C1400.63 227.675 1401.2 229.587 1401.77 231.499C1401.83 231.71 1402.11 232.061 1402.14 232.045C1402.45 231.897 1402.88 231.743 1402.98 231.479C1404.81 226.561 1406.49 221.581 1408.43 216.708C1410.57 211.367 1411.67 205.771 1412.97 200.214C1413.59 197.569 1414.33 194.984 1416.12 192.792C1417.05 191.644 1417.75 190.267 1418.39 188.917C1418.79 188.068 1419.54 187.279 1418.91 186.088C1417.94 184.235 1415.58 183.392 1413.42 184.256ZM1365.18 181.142C1367.53 181.197 1369.9 181.366 1372.23 181.685C1373.96 181.921 1375.66 182.43 1377.35 182.911C1377.97 183.089 1378.48 182.777 1378.98 182.79C1380.14 182.817 1381.34 183.057 1382.44 183.451C1387.66 185.324 1392.99 186.3 1398.56 185.977C1400.44 185.867 1402.35 186.124 1404.32 186.213C1403.14 186.482 1401.9 186.825 1400.64 187.001C1398.85 187.25 1397.04 187.394 1395.24 187.541C1394.87 187.571 1394.48 187.318 1394.12 187.363C1393.66 187.423 1393.21 187.649 1392.75 187.804C1392.9 188.146 1392.96 188.579 1393.21 188.817C1394.49 190.035 1395.94 190.574 1397.74 189.991C1399.4 189.453 1401.13 189.146 1402.79 188.602C1403.69 188.309 1404.52 187.779 1405.32 187.269C1406.1 186.774 1406.74 186.933 1406.87 187.767C1406.89 187.872 1406.9 188.055 1406.85 188.082C1405.69 188.722 1404.57 189.504 1403.33 189.934C1401.6 190.533 1399.81 191.028 1398 191.263C1396.56 191.449 1396.45 192.256 1396.63 193.264C1397.19 196.368 1397.39 199.461 1396.92 202.603C1396.79 203.424 1397.08 204.307 1397.17 205.162C1397.77 204.73 1398.37 204.306 1398.96 203.866C1400.39 202.794 1401.82 201.715 1403.25 200.643C1403.33 200.584 1403.44 200.565 1403.53 200.528C1403.5 200.68 1403.52 200.874 1403.43 200.98C1402.47 202.144 1401.55 203.35 1400.51 204.437C1398.51 206.523 1396.51 208.621 1394.37 210.563C1392.18 212.56 1389.57 213.695 1386.56 212.766C1383.12 211.707 1379.74 210.458 1376.34 209.303C1374.96 208.838 1373.36 208.709 1372.26 207.889C1370.52 206.591 1368.49 206.146 1366.61 205.292C1365.41 204.747 1364.15 204.265 1362.88 203.962C1361.45 203.623 1360.16 204.047 1359.09 205.137C1356.6 207.673 1354.07 210.17 1351.57 212.69C1350.46 213.805 1347.3 213.745 1346.1 212.503C1343.4 209.694 1341.77 206.264 1341.21 202.473C1340.74 199.325 1340.61 196.094 1340.67 192.907C1340.72 190.448 1341.88 188.288 1343.33 186.238C1345.36 183.384 1348.63 183.427 1351.42 182.539C1353.83 181.776 1356.45 181.663 1358.99 181.405C1361.04 181.197 1363.12 181.093 1365.18 181.142ZM1379.47 184.251C1379.64 184.368 1379.82 184.492 1380 184.601C1380.32 184.795 1380.65 184.969 1380.97 185.17C1382.45 186.115 1383.95 187.047 1385.41 188.02C1387.06 189.109 1388.4 190.478 1389.11 192.365C1389.76 194.108 1390.36 195.869 1390.99 197.891C1390.99 198.07 1390.95 198.259 1390.99 198.427C1391.6 200.785 1391.37 203.123 1391.03 205.504C1390.72 207.632 1389.83 209.412 1388.56 211.069C1388.45 211.219 1388.41 211.433 1388.34 211.617C1388.46 211.651 1388.59 211.729 1388.7 211.71C1391.37 211.251 1393.46 209.916 1394.39 207.313C1394.98 205.666 1395.43 203.895 1395.51 202.159C1395.66 199.353 1395.73 196.488 1395.31 193.727C1394.93 191.248 1392.4 190.195 1390.7 188.669C1389.56 187.656 1388.18 186.809 1386.76 186.263C1384.6 185.43 1382.31 184.918 1380.07 184.281C1379.88 184.227 1379.67 184.259 1379.47 184.251ZM1357.95 183.066C1355.18 183.338 1352.45 184.135 1349.76 184.907C1347.69 185.499 1346.18 186.912 1346 189.186C1345.85 191.247 1345.96 193.33 1345.98 195.403C1346 198.462 1346.77 201.309 1348.37 203.941C1348.78 204.616 1349.09 205.422 1348.09 205.993C1348.02 206.031 1348.03 206.317 1348.09 206.447C1348.29 206.859 1348.53 207.249 1348.74 207.654C1348.82 207.795 1348.85 207.958 1348.9 208.111C1348.74 208.03 1348.54 207.988 1348.43 207.862C1346.88 206.002 1345.84 203.881 1345.17 201.381C1344.72 198.971 1344.08 196.577 1343.89 194.147C1343.75 192.277 1344.19 190.363 1344.36 188.468C1344.37 188.354 1344.29 188.232 1344.25 188.113C1344.16 188.195 1344.02 188.257 1343.97 188.36C1343.47 189.493 1342.66 190.602 1342.55 191.775C1342.33 194.186 1342.49 196.632 1342.49 199.063C1342.49 202.441 1343.68 205.479 1345.23 208.392C1345.74 209.357 1346.4 210.265 1347.12 211.089C1347.94 212.023 1349.79 211.713 1351.22 210.322C1354.35 207.276 1357.4 204.157 1360.49 201.068C1361.15 200.403 1361.74 199.639 1362.5 199.114C1362.92 198.822 1363.87 198.658 1364.14 198.91C1364.76 199.493 1364.63 200.142 1363.7 200.58C1363.13 200.846 1362.75 201.422 1363.5 202.039C1363.9 202.371 1364.2 202.918 1364.65 203.099C1366.79 203.964 1368.99 204.684 1371.13 205.562C1372.39 206.08 1373.53 206.902 1374.79 207.404C1377.59 208.516 1380.42 209.548 1383.27 210.547C1386.19 211.575 1388.11 210.402 1388.85 207.53C1389.53 204.928 1389.56 202.311 1389.4 199.65C1389.17 195.844 1388.21 192.48 1385.16 189.84C1382.05 187.153 1378.61 185.142 1374.68 184.11C1372.39 183.51 1370 183.168 1367.63 183.037C1364.41 182.858 1361.15 182.75 1357.95 183.066ZM1375.29 195.414C1375.77 195.546 1376.12 196.146 1376.52 196.683C1376.59 197.514 1376.67 198.21 1376.71 198.908C1376.72 198.964 1376.47 199.117 1376.4 199.087C1375.72 198.797 1374.89 198.625 1374.43 198.12C1374.08 197.729 1374.03 196.87 1374.17 196.297C1374.26 195.909 1375 195.333 1375.29 195.414ZM1355.28 194.482C1355.51 195.4 1355.71 196.517 1354.71 197.131C1354.25 197.414 1353.54 197.288 1352.94 197.348C1352.94 197.171 1352.94 196.994 1352.87 196.75C1352.49 195.606 1352.67 194.629 1353.76 194.183C1354.18 194.01 1355.22 194.253 1355.28 194.482ZM1412.49 187.354C1413.04 187.409 1413.51 187.53 1413.99 187.652C1413.83 188.105 1413.7 188.571 1413.51 189.007C1413.37 189.311 1413.07 189.552 1412.98 189.862C1412.78 190.518 1412.36 190.801 1411.89 190.311C1411.59 190 1411.44 189.334 1411.54 188.9C1411.66 188.367 1412.11 187.911 1412.49 187.354ZM1408.14 185.323C1408.01 185.441 1407.89 185.637 1407.74 185.664C1406.67 185.866 1405.6 186.035 1404.45 186.213C1405.49 185.855 1406.6 185.489 1407.71 185.152C1407.83 185.118 1407.99 185.262 1408.14 185.323Z" fill="#00160A"/>
</g>
<defs>
<clipPath id="clip0">
<rect width="342" height="326" fill="white" transform="translate(1139 106.09)"/>
</clipPath>
</defs>
</svg>
